G04 #@! TF.GenerationSoftware,KiCad,Pcbnew,(5.0.2)-1*
G04 #@! TF.CreationDate,2021-12-13T13:30:45+03:00*
G04 #@! TF.ProjectId,tasarim,74617361-7269-46d2-9e6b-696361645f70,rev?*
G04 #@! TF.SameCoordinates,Original*
G04 #@! TF.FileFunction,Legend,Top*
G04 #@! TF.FilePolarity,Positive*
%FSLAX46Y46*%
G04 Gerber Fmt 4.6, Leading zero omitted, Abs format (unit mm)*
G04 Created by KiCad (PCBNEW (5.0.2)-1) date 13.12.2021 13:30:45*
%MOMM*%
%LPD*%
G01*
G04 APERTURE LIST*
%ADD10C,0.300000*%
%ADD11C,0.120000*%
%ADD12C,0.150000*%
G04 APERTURE END LIST*
D10*
X182054571Y-82403142D02*
X183197428Y-82403142D01*
X182626000Y-82974571D02*
X182626000Y-81831714D01*
X123325142Y-88586571D02*
X123825142Y-90086571D01*
X124325142Y-88586571D01*
X124825142Y-90086571D02*
X124825142Y-88586571D01*
X125539428Y-90086571D02*
X125539428Y-88586571D01*
X126396571Y-90086571D01*
X126396571Y-88586571D01*
X199922000Y-89602571D02*
X200207714Y-89602571D01*
X200350571Y-89674000D01*
X200493428Y-89816857D01*
X200564857Y-90102571D01*
X200564857Y-90602571D01*
X200493428Y-90888285D01*
X200350571Y-91031142D01*
X200207714Y-91102571D01*
X199922000Y-91102571D01*
X199779142Y-91031142D01*
X199636285Y-90888285D01*
X199564857Y-90602571D01*
X199564857Y-90102571D01*
X199636285Y-89816857D01*
X199779142Y-89674000D01*
X199922000Y-89602571D01*
X201207714Y-89602571D02*
X201207714Y-90816857D01*
X201279142Y-90959714D01*
X201350571Y-91031142D01*
X201493428Y-91102571D01*
X201779142Y-91102571D01*
X201922000Y-91031142D01*
X201993428Y-90959714D01*
X202064857Y-90816857D01*
X202064857Y-89602571D01*
X202564857Y-89602571D02*
X203422000Y-89602571D01*
X202993428Y-91102571D02*
X202993428Y-89602571D01*
X174530000Y-81215571D02*
X175030000Y-82715571D01*
X175530000Y-81215571D01*
X176887142Y-82572714D02*
X176815714Y-82644142D01*
X176601428Y-82715571D01*
X176458571Y-82715571D01*
X176244285Y-82644142D01*
X176101428Y-82501285D01*
X176030000Y-82358428D01*
X175958571Y-82072714D01*
X175958571Y-81858428D01*
X176030000Y-81572714D01*
X176101428Y-81429857D01*
X176244285Y-81287000D01*
X176458571Y-81215571D01*
X176601428Y-81215571D01*
X176815714Y-81287000D01*
X176887142Y-81358428D01*
X178387142Y-82572714D02*
X178315714Y-82644142D01*
X178101428Y-82715571D01*
X177958571Y-82715571D01*
X177744285Y-82644142D01*
X177601428Y-82501285D01*
X177530000Y-82358428D01*
X177458571Y-82072714D01*
X177458571Y-81858428D01*
X177530000Y-81572714D01*
X177601428Y-81429857D01*
X177744285Y-81287000D01*
X177958571Y-81215571D01*
X178101428Y-81215571D01*
X178315714Y-81287000D01*
X178387142Y-81358428D01*
X164973142Y-81292000D02*
X164830285Y-81220571D01*
X164616000Y-81220571D01*
X164401714Y-81292000D01*
X164258857Y-81434857D01*
X164187428Y-81577714D01*
X164116000Y-81863428D01*
X164116000Y-82077714D01*
X164187428Y-82363428D01*
X164258857Y-82506285D01*
X164401714Y-82649142D01*
X164616000Y-82720571D01*
X164758857Y-82720571D01*
X164973142Y-82649142D01*
X165044571Y-82577714D01*
X165044571Y-82077714D01*
X164758857Y-82077714D01*
X165687428Y-82720571D02*
X165687428Y-81220571D01*
X166544571Y-82720571D01*
X166544571Y-81220571D01*
X167258857Y-82720571D02*
X167258857Y-81220571D01*
X167616000Y-81220571D01*
X167830285Y-81292000D01*
X167973142Y-81434857D01*
X168044571Y-81577714D01*
X168116000Y-81863428D01*
X168116000Y-82077714D01*
X168044571Y-82363428D01*
X167973142Y-82506285D01*
X167830285Y-82649142D01*
X167616000Y-82720571D01*
X167258857Y-82720571D01*
X194850000Y-94169571D02*
X195350000Y-95669571D01*
X195850000Y-94169571D01*
X197207142Y-95526714D02*
X197135714Y-95598142D01*
X196921428Y-95669571D01*
X196778571Y-95669571D01*
X196564285Y-95598142D01*
X196421428Y-95455285D01*
X196350000Y-95312428D01*
X196278571Y-95026714D01*
X196278571Y-94812428D01*
X196350000Y-94526714D01*
X196421428Y-94383857D01*
X196564285Y-94241000D01*
X196778571Y-94169571D01*
X196921428Y-94169571D01*
X197135714Y-94241000D01*
X197207142Y-94312428D01*
X198707142Y-95526714D02*
X198635714Y-95598142D01*
X198421428Y-95669571D01*
X198278571Y-95669571D01*
X198064285Y-95598142D01*
X197921428Y-95455285D01*
X197850000Y-95312428D01*
X197778571Y-95026714D01*
X197778571Y-94812428D01*
X197850000Y-94526714D01*
X197921428Y-94383857D01*
X198064285Y-94241000D01*
X198278571Y-94169571D01*
X198421428Y-94169571D01*
X198635714Y-94241000D01*
X198707142Y-94312428D01*
X195453142Y-99326000D02*
X195310285Y-99254571D01*
X195096000Y-99254571D01*
X194881714Y-99326000D01*
X194738857Y-99468857D01*
X194667428Y-99611714D01*
X194596000Y-99897428D01*
X194596000Y-100111714D01*
X194667428Y-100397428D01*
X194738857Y-100540285D01*
X194881714Y-100683142D01*
X195096000Y-100754571D01*
X195238857Y-100754571D01*
X195453142Y-100683142D01*
X195524571Y-100611714D01*
X195524571Y-100111714D01*
X195238857Y-100111714D01*
X196167428Y-100754571D02*
X196167428Y-99254571D01*
X197024571Y-100754571D01*
X197024571Y-99254571D01*
X197738857Y-100754571D02*
X197738857Y-99254571D01*
X198096000Y-99254571D01*
X198310285Y-99326000D01*
X198453142Y-99468857D01*
X198524571Y-99611714D01*
X198596000Y-99897428D01*
X198596000Y-100111714D01*
X198524571Y-100397428D01*
X198453142Y-100540285D01*
X198310285Y-100683142D01*
X198096000Y-100754571D01*
X197738857Y-100754571D01*
X125762000Y-92645571D02*
X126262000Y-94145571D01*
X126762000Y-92645571D01*
X128119142Y-94002714D02*
X128047714Y-94074142D01*
X127833428Y-94145571D01*
X127690571Y-94145571D01*
X127476285Y-94074142D01*
X127333428Y-93931285D01*
X127262000Y-93788428D01*
X127190571Y-93502714D01*
X127190571Y-93288428D01*
X127262000Y-93002714D01*
X127333428Y-92859857D01*
X127476285Y-92717000D01*
X127690571Y-92645571D01*
X127833428Y-92645571D01*
X128047714Y-92717000D01*
X128119142Y-92788428D01*
X129619142Y-94002714D02*
X129547714Y-94074142D01*
X129333428Y-94145571D01*
X129190571Y-94145571D01*
X128976285Y-94074142D01*
X128833428Y-93931285D01*
X128762000Y-93788428D01*
X128690571Y-93502714D01*
X128690571Y-93288428D01*
X128762000Y-93002714D01*
X128833428Y-92859857D01*
X128976285Y-92717000D01*
X129190571Y-92645571D01*
X129333428Y-92645571D01*
X129547714Y-92717000D01*
X129619142Y-92788428D01*
X126619142Y-98056000D02*
X126476285Y-97984571D01*
X126262000Y-97984571D01*
X126047714Y-98056000D01*
X125904857Y-98198857D01*
X125833428Y-98341714D01*
X125762000Y-98627428D01*
X125762000Y-98841714D01*
X125833428Y-99127428D01*
X125904857Y-99270285D01*
X126047714Y-99413142D01*
X126262000Y-99484571D01*
X126404857Y-99484571D01*
X126619142Y-99413142D01*
X126690571Y-99341714D01*
X126690571Y-98841714D01*
X126404857Y-98841714D01*
X127333428Y-99484571D02*
X127333428Y-97984571D01*
X128190571Y-99484571D01*
X128190571Y-97984571D01*
X128904857Y-99484571D02*
X128904857Y-97984571D01*
X129262000Y-97984571D01*
X129476285Y-98056000D01*
X129619142Y-98198857D01*
X129690571Y-98341714D01*
X129762000Y-98627428D01*
X129762000Y-98841714D01*
X129690571Y-99127428D01*
X129619142Y-99270285D01*
X129476285Y-99413142D01*
X129262000Y-99484571D01*
X128904857Y-99484571D01*
D11*
G04 #@! TO.C,U1*
X154670000Y-95190000D02*
G75*
G02X152670000Y-95190000I-1000000J0D01*
G01*
X152670000Y-95190000D02*
X151020000Y-95190000D01*
X151020000Y-95190000D02*
X151020000Y-105470000D01*
X151020000Y-105470000D02*
X156320000Y-105470000D01*
X156320000Y-105470000D02*
X156320000Y-95190000D01*
X156320000Y-95190000D02*
X154670000Y-95190000D01*
G04 #@! TO.C,C4*
X178380582Y-93036500D02*
X178380582Y-91786500D01*
X179005582Y-92411500D02*
X177755582Y-92411500D01*
X165827500Y-89153500D02*
X165827500Y-88519500D01*
X165867500Y-89593500D02*
X165867500Y-88079500D01*
X165907500Y-89864500D02*
X165907500Y-87808500D01*
X165947500Y-90077500D02*
X165947500Y-87595500D01*
X165987500Y-90258500D02*
X165987500Y-87414500D01*
X166027500Y-90419500D02*
X166027500Y-87253500D01*
X166067500Y-90564500D02*
X166067500Y-87108500D01*
X166107500Y-90697500D02*
X166107500Y-86975500D01*
X166147500Y-90820500D02*
X166147500Y-86852500D01*
X166187500Y-90936500D02*
X166187500Y-86736500D01*
X166227500Y-91045500D02*
X166227500Y-86627500D01*
X166267500Y-91148500D02*
X166267500Y-86524500D01*
X166307500Y-91246500D02*
X166307500Y-86426500D01*
X166347500Y-91340500D02*
X166347500Y-86332500D01*
X166387500Y-91430500D02*
X166387500Y-86242500D01*
X166427500Y-91517500D02*
X166427500Y-86155500D01*
X166467500Y-91600500D02*
X166467500Y-86072500D01*
X166507500Y-91680500D02*
X166507500Y-85992500D01*
X166547500Y-91757500D02*
X166547500Y-85915500D01*
X166587500Y-91832500D02*
X166587500Y-85840500D01*
X166627500Y-91905500D02*
X166627500Y-85767500D01*
X166667500Y-91976500D02*
X166667500Y-85696500D01*
X166707500Y-92044500D02*
X166707500Y-85628500D01*
X166747500Y-92111500D02*
X166747500Y-85561500D01*
X166787500Y-92175500D02*
X166787500Y-85497500D01*
X166827500Y-92238500D02*
X166827500Y-85434500D01*
X166867500Y-92300500D02*
X166867500Y-85372500D01*
X166907500Y-92360500D02*
X166907500Y-85312500D01*
X166947500Y-92419500D02*
X166947500Y-85253500D01*
X166987500Y-92476500D02*
X166987500Y-85196500D01*
X167027500Y-92532500D02*
X167027500Y-85140500D01*
X167067500Y-92586500D02*
X167067500Y-85086500D01*
X167107500Y-92640500D02*
X167107500Y-85032500D01*
X167147500Y-92692500D02*
X167147500Y-84980500D01*
X167187500Y-92743500D02*
X167187500Y-84929500D01*
X167227500Y-92793500D02*
X167227500Y-84879500D01*
X167267500Y-92843500D02*
X167267500Y-84829500D01*
X167307500Y-92891500D02*
X167307500Y-84781500D01*
X167347500Y-92938500D02*
X167347500Y-84734500D01*
X167387500Y-92984500D02*
X167387500Y-84688500D01*
X167427500Y-93030500D02*
X167427500Y-84642500D01*
X167467500Y-93074500D02*
X167467500Y-84598500D01*
X167507500Y-93118500D02*
X167507500Y-84554500D01*
X167547500Y-93161500D02*
X167547500Y-84511500D01*
X167587500Y-93203500D02*
X167587500Y-84469500D01*
X167627500Y-93244500D02*
X167627500Y-84428500D01*
X167667500Y-93285500D02*
X167667500Y-84387500D01*
X167707500Y-93325500D02*
X167707500Y-84347500D01*
X167747500Y-93364500D02*
X167747500Y-84308500D01*
X167787500Y-93403500D02*
X167787500Y-84269500D01*
X167827500Y-93441500D02*
X167827500Y-84231500D01*
X167867500Y-93478500D02*
X167867500Y-84194500D01*
X167907500Y-93514500D02*
X167907500Y-84158500D01*
X167947500Y-93550500D02*
X167947500Y-84122500D01*
X167987500Y-93586500D02*
X167987500Y-84086500D01*
X168027500Y-93621500D02*
X168027500Y-84051500D01*
X168067500Y-93655500D02*
X168067500Y-84017500D01*
X168107500Y-93688500D02*
X168107500Y-83984500D01*
X168147500Y-93721500D02*
X168147500Y-83951500D01*
X168187500Y-93754500D02*
X168187500Y-83918500D01*
X168227500Y-93786500D02*
X168227500Y-83886500D01*
X168267500Y-87396500D02*
X168267500Y-83854500D01*
X168267500Y-93818500D02*
X168267500Y-90276500D01*
X168307500Y-87396500D02*
X168307500Y-83824500D01*
X168307500Y-93848500D02*
X168307500Y-90276500D01*
X168347500Y-87396500D02*
X168347500Y-83793500D01*
X168347500Y-93879500D02*
X168347500Y-90276500D01*
X168387500Y-87396500D02*
X168387500Y-83763500D01*
X168387500Y-93909500D02*
X168387500Y-90276500D01*
X168427500Y-87396500D02*
X168427500Y-83734500D01*
X168427500Y-93938500D02*
X168427500Y-90276500D01*
X168467500Y-87396500D02*
X168467500Y-83705500D01*
X168467500Y-93967500D02*
X168467500Y-90276500D01*
X168507500Y-87396500D02*
X168507500Y-83676500D01*
X168507500Y-93996500D02*
X168507500Y-90276500D01*
X168547500Y-87396500D02*
X168547500Y-83648500D01*
X168547500Y-94024500D02*
X168547500Y-90276500D01*
X168587500Y-87396500D02*
X168587500Y-83620500D01*
X168587500Y-94052500D02*
X168587500Y-90276500D01*
X168627500Y-87396500D02*
X168627500Y-83593500D01*
X168627500Y-94079500D02*
X168627500Y-90276500D01*
X168667500Y-87396500D02*
X168667500Y-83566500D01*
X168667500Y-94106500D02*
X168667500Y-90276500D01*
X168707500Y-87396500D02*
X168707500Y-83540500D01*
X168707500Y-94132500D02*
X168707500Y-90276500D01*
X168747500Y-87396500D02*
X168747500Y-83514500D01*
X168747500Y-94158500D02*
X168747500Y-90276500D01*
X168787500Y-87396500D02*
X168787500Y-83489500D01*
X168787500Y-94183500D02*
X168787500Y-90276500D01*
X168827500Y-87396500D02*
X168827500Y-83464500D01*
X168827500Y-94208500D02*
X168827500Y-90276500D01*
X168867500Y-87396500D02*
X168867500Y-83439500D01*
X168867500Y-94233500D02*
X168867500Y-90276500D01*
X168907500Y-87396500D02*
X168907500Y-83415500D01*
X168907500Y-94257500D02*
X168907500Y-90276500D01*
X168947500Y-87396500D02*
X168947500Y-83391500D01*
X168947500Y-94281500D02*
X168947500Y-90276500D01*
X168987500Y-87396500D02*
X168987500Y-83368500D01*
X168987500Y-94304500D02*
X168987500Y-90276500D01*
X169027500Y-87396500D02*
X169027500Y-83345500D01*
X169027500Y-94327500D02*
X169027500Y-90276500D01*
X169067500Y-87396500D02*
X169067500Y-83322500D01*
X169067500Y-94350500D02*
X169067500Y-90276500D01*
X169107500Y-87396500D02*
X169107500Y-83300500D01*
X169107500Y-94372500D02*
X169107500Y-90276500D01*
X169147500Y-87396500D02*
X169147500Y-83278500D01*
X169147500Y-94394500D02*
X169147500Y-90276500D01*
X169187500Y-87396500D02*
X169187500Y-83256500D01*
X169187500Y-94416500D02*
X169187500Y-90276500D01*
X169227500Y-87396500D02*
X169227500Y-83235500D01*
X169227500Y-94437500D02*
X169227500Y-90276500D01*
X169267500Y-87396500D02*
X169267500Y-83214500D01*
X169267500Y-94458500D02*
X169267500Y-90276500D01*
X169307500Y-87396500D02*
X169307500Y-83194500D01*
X169307500Y-94478500D02*
X169307500Y-90276500D01*
X169347500Y-87396500D02*
X169347500Y-83174500D01*
X169347500Y-94498500D02*
X169347500Y-90276500D01*
X169387500Y-87396500D02*
X169387500Y-83154500D01*
X169387500Y-94518500D02*
X169387500Y-90276500D01*
X169427500Y-87396500D02*
X169427500Y-83134500D01*
X169427500Y-94538500D02*
X169427500Y-90276500D01*
X169467500Y-87396500D02*
X169467500Y-83115500D01*
X169467500Y-94557500D02*
X169467500Y-90276500D01*
X169507500Y-87396500D02*
X169507500Y-83097500D01*
X169507500Y-94575500D02*
X169507500Y-90276500D01*
X169547500Y-87396500D02*
X169547500Y-83078500D01*
X169547500Y-94594500D02*
X169547500Y-90276500D01*
X169587500Y-87396500D02*
X169587500Y-83060500D01*
X169587500Y-94612500D02*
X169587500Y-90276500D01*
X169627500Y-87396500D02*
X169627500Y-83043500D01*
X169627500Y-94629500D02*
X169627500Y-90276500D01*
X169667500Y-87396500D02*
X169667500Y-83025500D01*
X169667500Y-94647500D02*
X169667500Y-90276500D01*
X169707500Y-87396500D02*
X169707500Y-83008500D01*
X169707500Y-94664500D02*
X169707500Y-90276500D01*
X169747500Y-87396500D02*
X169747500Y-82991500D01*
X169747500Y-94681500D02*
X169747500Y-90276500D01*
X169787500Y-87396500D02*
X169787500Y-82975500D01*
X169787500Y-94697500D02*
X169787500Y-90276500D01*
X169827500Y-87396500D02*
X169827500Y-82959500D01*
X169827500Y-94713500D02*
X169827500Y-90276500D01*
X169867500Y-87396500D02*
X169867500Y-82943500D01*
X169867500Y-94729500D02*
X169867500Y-90276500D01*
X169907500Y-87396500D02*
X169907500Y-82928500D01*
X169907500Y-94744500D02*
X169907500Y-90276500D01*
X169947500Y-87396500D02*
X169947500Y-82912500D01*
X169947500Y-94760500D02*
X169947500Y-90276500D01*
X169987500Y-87396500D02*
X169987500Y-82897500D01*
X169987500Y-94775500D02*
X169987500Y-90276500D01*
X170027500Y-87396500D02*
X170027500Y-82883500D01*
X170027500Y-94789500D02*
X170027500Y-90276500D01*
X170067500Y-87396500D02*
X170067500Y-82869500D01*
X170067500Y-94803500D02*
X170067500Y-90276500D01*
X170107500Y-87396500D02*
X170107500Y-82855500D01*
X170107500Y-94817500D02*
X170107500Y-90276500D01*
X170147500Y-87396500D02*
X170147500Y-82841500D01*
X170147500Y-94831500D02*
X170147500Y-90276500D01*
X170187500Y-87396500D02*
X170187500Y-82828500D01*
X170187500Y-94844500D02*
X170187500Y-90276500D01*
X170227500Y-87396500D02*
X170227500Y-82815500D01*
X170227500Y-94857500D02*
X170227500Y-90276500D01*
X170267500Y-87396500D02*
X170267500Y-82802500D01*
X170267500Y-94870500D02*
X170267500Y-90276500D01*
X170307500Y-87396500D02*
X170307500Y-82789500D01*
X170307500Y-94883500D02*
X170307500Y-90276500D01*
X170347500Y-87396500D02*
X170347500Y-82777500D01*
X170347500Y-94895500D02*
X170347500Y-90276500D01*
X170387500Y-87396500D02*
X170387500Y-82765500D01*
X170387500Y-94907500D02*
X170387500Y-90276500D01*
X170427500Y-87396500D02*
X170427500Y-82753500D01*
X170427500Y-94919500D02*
X170427500Y-90276500D01*
X170467500Y-87396500D02*
X170467500Y-82742500D01*
X170467500Y-94930500D02*
X170467500Y-90276500D01*
X170507500Y-87396500D02*
X170507500Y-82731500D01*
X170507500Y-94941500D02*
X170507500Y-90276500D01*
X170547500Y-87396500D02*
X170547500Y-82720500D01*
X170547500Y-94952500D02*
X170547500Y-90276500D01*
X170587500Y-87396500D02*
X170587500Y-82710500D01*
X170587500Y-94962500D02*
X170587500Y-90276500D01*
X170627500Y-87396500D02*
X170627500Y-82699500D01*
X170627500Y-94973500D02*
X170627500Y-90276500D01*
X170667500Y-87396500D02*
X170667500Y-82690500D01*
X170667500Y-94982500D02*
X170667500Y-90276500D01*
X170707500Y-87396500D02*
X170707500Y-82680500D01*
X170707500Y-94992500D02*
X170707500Y-90276500D01*
X170747500Y-87396500D02*
X170747500Y-82670500D01*
X170747500Y-95002500D02*
X170747500Y-90276500D01*
X170787500Y-87396500D02*
X170787500Y-82661500D01*
X170787500Y-95011500D02*
X170787500Y-90276500D01*
X170827500Y-87396500D02*
X170827500Y-82652500D01*
X170827500Y-95020500D02*
X170827500Y-90276500D01*
X170867500Y-87396500D02*
X170867500Y-82644500D01*
X170867500Y-95028500D02*
X170867500Y-90276500D01*
X170907500Y-87396500D02*
X170907500Y-82635500D01*
X170907500Y-95037500D02*
X170907500Y-90276500D01*
X170947500Y-87396500D02*
X170947500Y-82627500D01*
X170947500Y-95045500D02*
X170947500Y-90276500D01*
X170987500Y-87396500D02*
X170987500Y-82620500D01*
X170987500Y-95052500D02*
X170987500Y-90276500D01*
X171027500Y-87396500D02*
X171027500Y-82612500D01*
X171027500Y-95060500D02*
X171027500Y-90276500D01*
X171067500Y-87396500D02*
X171067500Y-82605500D01*
X171067500Y-95067500D02*
X171067500Y-90276500D01*
X171107500Y-87396500D02*
X171107500Y-82598500D01*
X171107500Y-95074500D02*
X171107500Y-90276500D01*
X171147500Y-95081500D02*
X171147500Y-82591500D01*
X171187500Y-95088500D02*
X171187500Y-82584500D01*
X171227500Y-95094500D02*
X171227500Y-82578500D01*
X171267500Y-95100500D02*
X171267500Y-82572500D01*
X171307500Y-95105500D02*
X171307500Y-82567500D01*
X171347500Y-95111500D02*
X171347500Y-82561500D01*
X171387500Y-95116500D02*
X171387500Y-82556500D01*
X171427500Y-95121500D02*
X171427500Y-82551500D01*
X171467500Y-95126500D02*
X171467500Y-82546500D01*
X171508500Y-95130500D02*
X171508500Y-82542500D01*
X171548500Y-95134500D02*
X171548500Y-82538500D01*
X171588500Y-95138500D02*
X171588500Y-82534500D01*
X171628500Y-95142500D02*
X171628500Y-82530500D01*
X171668500Y-95145500D02*
X171668500Y-82527500D01*
X171708500Y-95148500D02*
X171708500Y-82524500D01*
X171748500Y-95151500D02*
X171748500Y-82521500D01*
X171788500Y-95154500D02*
X171788500Y-82518500D01*
X171828500Y-95156500D02*
X171828500Y-82516500D01*
X171868500Y-95158500D02*
X171868500Y-82514500D01*
X171908500Y-95160500D02*
X171908500Y-82512500D01*
X171948500Y-95162500D02*
X171948500Y-82510500D01*
X171988500Y-95163500D02*
X171988500Y-82509500D01*
X172028500Y-95164500D02*
X172028500Y-82508500D01*
X172068500Y-95165500D02*
X172068500Y-82507500D01*
X172108500Y-95166500D02*
X172108500Y-82506500D01*
X172148500Y-95166500D02*
X172148500Y-82506500D01*
X172188500Y-95166500D02*
X172188500Y-82506500D01*
X178558500Y-88836500D02*
G75*
G03X178558500Y-88836500I-6370000J0D01*
G01*
G04 #@! TO.C,C1*
X130535000Y-104898436D02*
X130535000Y-106102564D01*
X132355000Y-104898436D02*
X132355000Y-106102564D01*
G04 #@! TO.C,C2*
X136909564Y-93620000D02*
X135705436Y-93620000D01*
X136909564Y-91800000D02*
X135705436Y-91800000D01*
G04 #@! TO.C,C3*
X133734564Y-109453000D02*
X132530436Y-109453000D01*
X133734564Y-111273000D02*
X132530436Y-111273000D01*
G04 #@! TO.C,C5*
X152650436Y-110850000D02*
X153854564Y-110850000D01*
X152650436Y-112670000D02*
X153854564Y-112670000D01*
G04 #@! TO.C,C6*
X190202500Y-101259000D02*
G75*
G03X190202500Y-101259000I-6370000J0D01*
G01*
X177502500Y-101259000D02*
X190162500Y-101259000D01*
X177502500Y-101219000D02*
X190162500Y-101219000D01*
X177502500Y-101179000D02*
X190162500Y-101179000D01*
X177503500Y-101139000D02*
X190161500Y-101139000D01*
X177504500Y-101099000D02*
X190160500Y-101099000D01*
X177505500Y-101059000D02*
X190159500Y-101059000D01*
X177506500Y-101019000D02*
X190158500Y-101019000D01*
X177508500Y-100979000D02*
X190156500Y-100979000D01*
X177510500Y-100939000D02*
X190154500Y-100939000D01*
X177512500Y-100899000D02*
X190152500Y-100899000D01*
X177514500Y-100859000D02*
X190150500Y-100859000D01*
X177517500Y-100819000D02*
X190147500Y-100819000D01*
X177520500Y-100779000D02*
X190144500Y-100779000D01*
X177523500Y-100739000D02*
X190141500Y-100739000D01*
X177526500Y-100699000D02*
X190138500Y-100699000D01*
X177530500Y-100659000D02*
X190134500Y-100659000D01*
X177534500Y-100619000D02*
X190130500Y-100619000D01*
X177538500Y-100579000D02*
X190126500Y-100579000D01*
X177542500Y-100538000D02*
X190122500Y-100538000D01*
X177547500Y-100498000D02*
X190117500Y-100498000D01*
X177552500Y-100458000D02*
X190112500Y-100458000D01*
X177557500Y-100418000D02*
X190107500Y-100418000D01*
X177563500Y-100378000D02*
X190101500Y-100378000D01*
X177568500Y-100338000D02*
X190096500Y-100338000D01*
X177574500Y-100298000D02*
X190090500Y-100298000D01*
X177580500Y-100258000D02*
X190084500Y-100258000D01*
X177587500Y-100218000D02*
X190077500Y-100218000D01*
X177594500Y-100178000D02*
X182392500Y-100178000D01*
X185272500Y-100178000D02*
X190070500Y-100178000D01*
X177601500Y-100138000D02*
X182392500Y-100138000D01*
X185272500Y-100138000D02*
X190063500Y-100138000D01*
X177608500Y-100098000D02*
X182392500Y-100098000D01*
X185272500Y-100098000D02*
X190056500Y-100098000D01*
X177616500Y-100058000D02*
X182392500Y-100058000D01*
X185272500Y-100058000D02*
X190048500Y-100058000D01*
X177623500Y-100018000D02*
X182392500Y-100018000D01*
X185272500Y-100018000D02*
X190041500Y-100018000D01*
X177631500Y-99978000D02*
X182392500Y-99978000D01*
X185272500Y-99978000D02*
X190033500Y-99978000D01*
X177640500Y-99938000D02*
X182392500Y-99938000D01*
X185272500Y-99938000D02*
X190024500Y-99938000D01*
X177648500Y-99898000D02*
X182392500Y-99898000D01*
X185272500Y-99898000D02*
X190016500Y-99898000D01*
X177657500Y-99858000D02*
X182392500Y-99858000D01*
X185272500Y-99858000D02*
X190007500Y-99858000D01*
X177666500Y-99818000D02*
X182392500Y-99818000D01*
X185272500Y-99818000D02*
X189998500Y-99818000D01*
X177676500Y-99778000D02*
X182392500Y-99778000D01*
X185272500Y-99778000D02*
X189988500Y-99778000D01*
X177686500Y-99738000D02*
X182392500Y-99738000D01*
X185272500Y-99738000D02*
X189978500Y-99738000D01*
X177695500Y-99698000D02*
X182392500Y-99698000D01*
X185272500Y-99698000D02*
X189969500Y-99698000D01*
X177706500Y-99658000D02*
X182392500Y-99658000D01*
X185272500Y-99658000D02*
X189958500Y-99658000D01*
X177716500Y-99618000D02*
X182392500Y-99618000D01*
X185272500Y-99618000D02*
X189948500Y-99618000D01*
X177727500Y-99578000D02*
X182392500Y-99578000D01*
X185272500Y-99578000D02*
X189937500Y-99578000D01*
X177738500Y-99538000D02*
X182392500Y-99538000D01*
X185272500Y-99538000D02*
X189926500Y-99538000D01*
X177749500Y-99498000D02*
X182392500Y-99498000D01*
X185272500Y-99498000D02*
X189915500Y-99498000D01*
X177761500Y-99458000D02*
X182392500Y-99458000D01*
X185272500Y-99458000D02*
X189903500Y-99458000D01*
X177773500Y-99418000D02*
X182392500Y-99418000D01*
X185272500Y-99418000D02*
X189891500Y-99418000D01*
X177785500Y-99378000D02*
X182392500Y-99378000D01*
X185272500Y-99378000D02*
X189879500Y-99378000D01*
X177798500Y-99338000D02*
X182392500Y-99338000D01*
X185272500Y-99338000D02*
X189866500Y-99338000D01*
X177811500Y-99298000D02*
X182392500Y-99298000D01*
X185272500Y-99298000D02*
X189853500Y-99298000D01*
X177824500Y-99258000D02*
X182392500Y-99258000D01*
X185272500Y-99258000D02*
X189840500Y-99258000D01*
X177837500Y-99218000D02*
X182392500Y-99218000D01*
X185272500Y-99218000D02*
X189827500Y-99218000D01*
X177851500Y-99178000D02*
X182392500Y-99178000D01*
X185272500Y-99178000D02*
X189813500Y-99178000D01*
X177865500Y-99138000D02*
X182392500Y-99138000D01*
X185272500Y-99138000D02*
X189799500Y-99138000D01*
X177879500Y-99098000D02*
X182392500Y-99098000D01*
X185272500Y-99098000D02*
X189785500Y-99098000D01*
X177893500Y-99058000D02*
X182392500Y-99058000D01*
X185272500Y-99058000D02*
X189771500Y-99058000D01*
X177908500Y-99018000D02*
X182392500Y-99018000D01*
X185272500Y-99018000D02*
X189756500Y-99018000D01*
X177924500Y-98978000D02*
X182392500Y-98978000D01*
X185272500Y-98978000D02*
X189740500Y-98978000D01*
X177939500Y-98938000D02*
X182392500Y-98938000D01*
X185272500Y-98938000D02*
X189725500Y-98938000D01*
X177955500Y-98898000D02*
X182392500Y-98898000D01*
X185272500Y-98898000D02*
X189709500Y-98898000D01*
X177971500Y-98858000D02*
X182392500Y-98858000D01*
X185272500Y-98858000D02*
X189693500Y-98858000D01*
X177987500Y-98818000D02*
X182392500Y-98818000D01*
X185272500Y-98818000D02*
X189677500Y-98818000D01*
X178004500Y-98778000D02*
X182392500Y-98778000D01*
X185272500Y-98778000D02*
X189660500Y-98778000D01*
X178021500Y-98738000D02*
X182392500Y-98738000D01*
X185272500Y-98738000D02*
X189643500Y-98738000D01*
X178039500Y-98698000D02*
X182392500Y-98698000D01*
X185272500Y-98698000D02*
X189625500Y-98698000D01*
X178056500Y-98658000D02*
X182392500Y-98658000D01*
X185272500Y-98658000D02*
X189608500Y-98658000D01*
X178074500Y-98618000D02*
X182392500Y-98618000D01*
X185272500Y-98618000D02*
X189590500Y-98618000D01*
X178093500Y-98578000D02*
X182392500Y-98578000D01*
X185272500Y-98578000D02*
X189571500Y-98578000D01*
X178111500Y-98538000D02*
X182392500Y-98538000D01*
X185272500Y-98538000D02*
X189553500Y-98538000D01*
X178130500Y-98498000D02*
X182392500Y-98498000D01*
X185272500Y-98498000D02*
X189534500Y-98498000D01*
X178150500Y-98458000D02*
X182392500Y-98458000D01*
X185272500Y-98458000D02*
X189514500Y-98458000D01*
X178170500Y-98418000D02*
X182392500Y-98418000D01*
X185272500Y-98418000D02*
X189494500Y-98418000D01*
X178190500Y-98378000D02*
X182392500Y-98378000D01*
X185272500Y-98378000D02*
X189474500Y-98378000D01*
X178210500Y-98338000D02*
X182392500Y-98338000D01*
X185272500Y-98338000D02*
X189454500Y-98338000D01*
X178231500Y-98298000D02*
X182392500Y-98298000D01*
X185272500Y-98298000D02*
X189433500Y-98298000D01*
X178252500Y-98258000D02*
X182392500Y-98258000D01*
X185272500Y-98258000D02*
X189412500Y-98258000D01*
X178274500Y-98218000D02*
X182392500Y-98218000D01*
X185272500Y-98218000D02*
X189390500Y-98218000D01*
X178296500Y-98178000D02*
X182392500Y-98178000D01*
X185272500Y-98178000D02*
X189368500Y-98178000D01*
X178318500Y-98138000D02*
X182392500Y-98138000D01*
X185272500Y-98138000D02*
X189346500Y-98138000D01*
X178341500Y-98098000D02*
X182392500Y-98098000D01*
X185272500Y-98098000D02*
X189323500Y-98098000D01*
X178364500Y-98058000D02*
X182392500Y-98058000D01*
X185272500Y-98058000D02*
X189300500Y-98058000D01*
X178387500Y-98018000D02*
X182392500Y-98018000D01*
X185272500Y-98018000D02*
X189277500Y-98018000D01*
X178411500Y-97978000D02*
X182392500Y-97978000D01*
X185272500Y-97978000D02*
X189253500Y-97978000D01*
X178435500Y-97938000D02*
X182392500Y-97938000D01*
X185272500Y-97938000D02*
X189229500Y-97938000D01*
X178460500Y-97898000D02*
X182392500Y-97898000D01*
X185272500Y-97898000D02*
X189204500Y-97898000D01*
X178485500Y-97858000D02*
X182392500Y-97858000D01*
X185272500Y-97858000D02*
X189179500Y-97858000D01*
X178510500Y-97818000D02*
X182392500Y-97818000D01*
X185272500Y-97818000D02*
X189154500Y-97818000D01*
X178536500Y-97778000D02*
X182392500Y-97778000D01*
X185272500Y-97778000D02*
X189128500Y-97778000D01*
X178562500Y-97738000D02*
X182392500Y-97738000D01*
X185272500Y-97738000D02*
X189102500Y-97738000D01*
X178589500Y-97698000D02*
X182392500Y-97698000D01*
X185272500Y-97698000D02*
X189075500Y-97698000D01*
X178616500Y-97658000D02*
X182392500Y-97658000D01*
X185272500Y-97658000D02*
X189048500Y-97658000D01*
X178644500Y-97618000D02*
X182392500Y-97618000D01*
X185272500Y-97618000D02*
X189020500Y-97618000D01*
X178672500Y-97578000D02*
X182392500Y-97578000D01*
X185272500Y-97578000D02*
X188992500Y-97578000D01*
X178701500Y-97538000D02*
X182392500Y-97538000D01*
X185272500Y-97538000D02*
X188963500Y-97538000D01*
X178730500Y-97498000D02*
X182392500Y-97498000D01*
X185272500Y-97498000D02*
X188934500Y-97498000D01*
X178759500Y-97458000D02*
X182392500Y-97458000D01*
X185272500Y-97458000D02*
X188905500Y-97458000D01*
X178789500Y-97418000D02*
X182392500Y-97418000D01*
X185272500Y-97418000D02*
X188875500Y-97418000D01*
X178820500Y-97378000D02*
X182392500Y-97378000D01*
X185272500Y-97378000D02*
X188844500Y-97378000D01*
X178850500Y-97338000D02*
X182392500Y-97338000D01*
X185272500Y-97338000D02*
X188814500Y-97338000D01*
X178882500Y-97298000D02*
X188782500Y-97298000D01*
X178914500Y-97258000D02*
X188750500Y-97258000D01*
X178947500Y-97218000D02*
X188717500Y-97218000D01*
X178980500Y-97178000D02*
X188684500Y-97178000D01*
X179013500Y-97138000D02*
X188651500Y-97138000D01*
X179047500Y-97098000D02*
X188617500Y-97098000D01*
X179082500Y-97058000D02*
X188582500Y-97058000D01*
X179118500Y-97018000D02*
X188546500Y-97018000D01*
X179154500Y-96978000D02*
X188510500Y-96978000D01*
X179190500Y-96938000D02*
X188474500Y-96938000D01*
X179227500Y-96898000D02*
X188437500Y-96898000D01*
X179265500Y-96858000D02*
X188399500Y-96858000D01*
X179304500Y-96818000D02*
X188360500Y-96818000D01*
X179343500Y-96778000D02*
X188321500Y-96778000D01*
X179383500Y-96738000D02*
X188281500Y-96738000D01*
X179424500Y-96698000D02*
X188240500Y-96698000D01*
X179465500Y-96658000D02*
X188199500Y-96658000D01*
X179507500Y-96618000D02*
X188157500Y-96618000D01*
X179550500Y-96578000D02*
X188114500Y-96578000D01*
X179594500Y-96538000D02*
X188070500Y-96538000D01*
X179638500Y-96498000D02*
X188026500Y-96498000D01*
X179684500Y-96458000D02*
X187980500Y-96458000D01*
X179730500Y-96418000D02*
X187934500Y-96418000D01*
X179777500Y-96378000D02*
X187887500Y-96378000D01*
X179825500Y-96338000D02*
X187839500Y-96338000D01*
X179875500Y-96298000D02*
X187789500Y-96298000D01*
X179925500Y-96258000D02*
X187739500Y-96258000D01*
X179976500Y-96218000D02*
X187688500Y-96218000D01*
X180028500Y-96178000D02*
X187636500Y-96178000D01*
X180082500Y-96138000D02*
X187582500Y-96138000D01*
X180136500Y-96098000D02*
X187528500Y-96098000D01*
X180192500Y-96058000D02*
X187472500Y-96058000D01*
X180249500Y-96018000D02*
X187415500Y-96018000D01*
X180308500Y-95978000D02*
X187356500Y-95978000D01*
X180368500Y-95938000D02*
X187296500Y-95938000D01*
X180430500Y-95898000D02*
X187234500Y-95898000D01*
X180493500Y-95858000D02*
X187171500Y-95858000D01*
X180557500Y-95818000D02*
X187107500Y-95818000D01*
X180624500Y-95778000D02*
X187040500Y-95778000D01*
X180692500Y-95738000D02*
X186972500Y-95738000D01*
X180763500Y-95698000D02*
X186901500Y-95698000D01*
X180836500Y-95658000D02*
X186828500Y-95658000D01*
X180911500Y-95618000D02*
X186753500Y-95618000D01*
X180988500Y-95578000D02*
X186676500Y-95578000D01*
X181068500Y-95538000D02*
X186596500Y-95538000D01*
X181151500Y-95498000D02*
X186513500Y-95498000D01*
X181238500Y-95458000D02*
X186426500Y-95458000D01*
X181328500Y-95418000D02*
X186336500Y-95418000D01*
X181422500Y-95378000D02*
X186242500Y-95378000D01*
X181520500Y-95338000D02*
X186144500Y-95338000D01*
X181623500Y-95298000D02*
X186041500Y-95298000D01*
X181732500Y-95258000D02*
X185932500Y-95258000D01*
X181848500Y-95218000D02*
X185816500Y-95218000D01*
X181971500Y-95178000D02*
X185693500Y-95178000D01*
X182104500Y-95138000D02*
X185560500Y-95138000D01*
X182249500Y-95098000D02*
X185415500Y-95098000D01*
X182410500Y-95058000D02*
X185254500Y-95058000D01*
X182591500Y-95018000D02*
X185073500Y-95018000D01*
X182804500Y-94978000D02*
X184860500Y-94978000D01*
X183075500Y-94938000D02*
X184589500Y-94938000D01*
X183515500Y-94898000D02*
X184149500Y-94898000D01*
X180257500Y-108076082D02*
X180257500Y-106826082D01*
X179632500Y-107451082D02*
X180882500Y-107451082D01*
G04 #@! TO.C,D1*
X198088000Y-80541500D02*
X198088000Y-90781500D01*
X193447000Y-80541500D02*
X193447000Y-90781500D01*
X198088000Y-80541500D02*
X193447000Y-80541500D01*
X198088000Y-90781500D02*
X193447000Y-90781500D01*
X196578000Y-80541500D02*
X196578000Y-90781500D01*
X198088000Y-83811500D02*
X196578000Y-83811500D01*
X198088000Y-87512500D02*
X196578000Y-87512500D01*
G04 #@! TO.C,F1*
X162838500Y-90726000D02*
X135598500Y-90726000D01*
X162838500Y-81486000D02*
X135598500Y-81486000D01*
X162838500Y-90726000D02*
X162838500Y-81486000D01*
X135598500Y-90726000D02*
X135598500Y-81486000D01*
G04 #@! TO.C,L1*
X189493152Y-86768500D02*
G75*
G03X182409848Y-86768500I-3541652J-1560000D01*
G01*
X189493152Y-89888500D02*
G75*
G02X182409848Y-89888500I-3541652J1560000D01*
G01*
G04 #@! TO.C,Q1*
X198795000Y-113506000D02*
X188555000Y-113506000D01*
X198795000Y-108865000D02*
X188555000Y-108865000D01*
X198795000Y-113506000D02*
X198795000Y-108865000D01*
X188555000Y-113506000D02*
X188555000Y-108865000D01*
X198795000Y-111996000D02*
X188555000Y-111996000D01*
X195525000Y-113506000D02*
X195525000Y-111996000D01*
X191824000Y-113506000D02*
X191824000Y-111996000D01*
G04 #@! TO.C,R1*
X130535000Y-96970436D02*
X130535000Y-98174564D01*
X132355000Y-96970436D02*
X132355000Y-98174564D01*
G04 #@! TO.C,R2*
X135530000Y-96970436D02*
X135530000Y-98174564D01*
X133710000Y-96970436D02*
X133710000Y-98174564D01*
G04 #@! TO.C,R3*
X135530000Y-106102564D02*
X135530000Y-104898436D01*
X133710000Y-106102564D02*
X133710000Y-104898436D01*
G04 #@! TO.C,R4*
X132278800Y-91041136D02*
X132278800Y-92245264D01*
X130458800Y-91041136D02*
X130458800Y-92245264D01*
G04 #@! TO.C,R5*
X136885000Y-96970436D02*
X136885000Y-98174564D01*
X138705000Y-96970436D02*
X138705000Y-98174564D01*
G04 #@! TO.C,R6*
X136885000Y-106102564D02*
X136885000Y-104898436D01*
X138705000Y-106102564D02*
X138705000Y-104898436D01*
G04 #@! TO.C,R7*
X169475564Y-100817000D02*
X168271436Y-100817000D01*
X169475564Y-102637000D02*
X168271436Y-102637000D01*
G04 #@! TO.C,R8*
X169475564Y-105558000D02*
X168271436Y-105558000D01*
X169475564Y-103738000D02*
X168271436Y-103738000D01*
G04 #@! TO.C,R9*
X163037000Y-109866000D02*
X163037000Y-108536000D01*
X163037000Y-108536000D02*
X177577000Y-108536000D01*
X177577000Y-108536000D02*
X177577000Y-109866000D01*
X163037000Y-113146000D02*
X163037000Y-114476000D01*
X163037000Y-114476000D02*
X177577000Y-114476000D01*
X177577000Y-114476000D02*
X177577000Y-113146000D01*
G04 #@! TO.C,U1*
D12*
X152908095Y-93642380D02*
X152908095Y-94451904D01*
X152955714Y-94547142D01*
X153003333Y-94594761D01*
X153098571Y-94642380D01*
X153289047Y-94642380D01*
X153384285Y-94594761D01*
X153431904Y-94547142D01*
X153479523Y-94451904D01*
X153479523Y-93642380D01*
X154479523Y-94642380D02*
X153908095Y-94642380D01*
X154193809Y-94642380D02*
X154193809Y-93642380D01*
X154098571Y-93785238D01*
X154003333Y-93880476D01*
X153908095Y-93928095D01*
G04 #@! TO.C,C4*
X172021833Y-96693642D02*
X171974214Y-96741261D01*
X171831357Y-96788880D01*
X171736119Y-96788880D01*
X171593261Y-96741261D01*
X171498023Y-96646023D01*
X171450404Y-96550785D01*
X171402785Y-96360309D01*
X171402785Y-96217452D01*
X171450404Y-96026976D01*
X171498023Y-95931738D01*
X171593261Y-95836500D01*
X171736119Y-95788880D01*
X171831357Y-95788880D01*
X171974214Y-95836500D01*
X172021833Y-95884119D01*
X172878976Y-96122214D02*
X172878976Y-96788880D01*
X172640880Y-95741261D02*
X172402785Y-96455547D01*
X173021833Y-96455547D01*
G04 #@! TO.C,C1*
X133622142Y-105667166D02*
X133669761Y-105714785D01*
X133717380Y-105857642D01*
X133717380Y-105952880D01*
X133669761Y-106095738D01*
X133574523Y-106190976D01*
X133479285Y-106238595D01*
X133288809Y-106286214D01*
X133145952Y-106286214D01*
X132955476Y-106238595D01*
X132860238Y-106190976D01*
X132765000Y-106095738D01*
X132717380Y-105952880D01*
X132717380Y-105857642D01*
X132765000Y-105714785D01*
X132812619Y-105667166D01*
X133717380Y-104714785D02*
X133717380Y-105286214D01*
X133717380Y-105000500D02*
X132717380Y-105000500D01*
X132860238Y-105095738D01*
X132955476Y-105190976D01*
X133003095Y-105286214D01*
G04 #@! TO.C,C2*
X136140833Y-94887142D02*
X136093214Y-94934761D01*
X135950357Y-94982380D01*
X135855119Y-94982380D01*
X135712261Y-94934761D01*
X135617023Y-94839523D01*
X135569404Y-94744285D01*
X135521785Y-94553809D01*
X135521785Y-94410952D01*
X135569404Y-94220476D01*
X135617023Y-94125238D01*
X135712261Y-94030000D01*
X135855119Y-93982380D01*
X135950357Y-93982380D01*
X136093214Y-94030000D01*
X136140833Y-94077619D01*
X136521785Y-94077619D02*
X136569404Y-94030000D01*
X136664642Y-93982380D01*
X136902738Y-93982380D01*
X136997976Y-94030000D01*
X137045595Y-94077619D01*
X137093214Y-94172857D01*
X137093214Y-94268095D01*
X137045595Y-94410952D01*
X136474166Y-94982380D01*
X137093214Y-94982380D01*
G04 #@! TO.C,C3*
X132965833Y-112540142D02*
X132918214Y-112587761D01*
X132775357Y-112635380D01*
X132680119Y-112635380D01*
X132537261Y-112587761D01*
X132442023Y-112492523D01*
X132394404Y-112397285D01*
X132346785Y-112206809D01*
X132346785Y-112063952D01*
X132394404Y-111873476D01*
X132442023Y-111778238D01*
X132537261Y-111683000D01*
X132680119Y-111635380D01*
X132775357Y-111635380D01*
X132918214Y-111683000D01*
X132965833Y-111730619D01*
X133299166Y-111635380D02*
X133918214Y-111635380D01*
X133584880Y-112016333D01*
X133727738Y-112016333D01*
X133822976Y-112063952D01*
X133870595Y-112111571D01*
X133918214Y-112206809D01*
X133918214Y-112444904D01*
X133870595Y-112540142D01*
X133822976Y-112587761D01*
X133727738Y-112635380D01*
X133442023Y-112635380D01*
X133346785Y-112587761D01*
X133299166Y-112540142D01*
G04 #@! TO.C,C5*
X153085833Y-110297142D02*
X153038214Y-110344761D01*
X152895357Y-110392380D01*
X152800119Y-110392380D01*
X152657261Y-110344761D01*
X152562023Y-110249523D01*
X152514404Y-110154285D01*
X152466785Y-109963809D01*
X152466785Y-109820952D01*
X152514404Y-109630476D01*
X152562023Y-109535238D01*
X152657261Y-109440000D01*
X152800119Y-109392380D01*
X152895357Y-109392380D01*
X153038214Y-109440000D01*
X153085833Y-109487619D01*
X153990595Y-109392380D02*
X153514404Y-109392380D01*
X153466785Y-109868571D01*
X153514404Y-109820952D01*
X153609642Y-109773333D01*
X153847738Y-109773333D01*
X153942976Y-109820952D01*
X153990595Y-109868571D01*
X154038214Y-109963809D01*
X154038214Y-110201904D01*
X153990595Y-110297142D01*
X153942976Y-110344761D01*
X153847738Y-110392380D01*
X153609642Y-110392380D01*
X153514404Y-110344761D01*
X153466785Y-110297142D01*
G04 #@! TO.C,C6*
X176689642Y-101425666D02*
X176737261Y-101473285D01*
X176784880Y-101616142D01*
X176784880Y-101711380D01*
X176737261Y-101854238D01*
X176642023Y-101949476D01*
X176546785Y-101997095D01*
X176356309Y-102044714D01*
X176213452Y-102044714D01*
X176022976Y-101997095D01*
X175927738Y-101949476D01*
X175832500Y-101854238D01*
X175784880Y-101711380D01*
X175784880Y-101616142D01*
X175832500Y-101473285D01*
X175880119Y-101425666D01*
X175784880Y-100568523D02*
X175784880Y-100759000D01*
X175832500Y-100854238D01*
X175880119Y-100901857D01*
X176022976Y-100997095D01*
X176213452Y-101044714D01*
X176594404Y-101044714D01*
X176689642Y-100997095D01*
X176737261Y-100949476D01*
X176784880Y-100854238D01*
X176784880Y-100663761D01*
X176737261Y-100568523D01*
X176689642Y-100520904D01*
X176594404Y-100473285D01*
X176356309Y-100473285D01*
X176261071Y-100520904D01*
X176213452Y-100568523D01*
X176165833Y-100663761D01*
X176165833Y-100854238D01*
X176213452Y-100949476D01*
X176261071Y-100997095D01*
X176356309Y-101044714D01*
G04 #@! TO.C,D1*
X199540380Y-86399595D02*
X198540380Y-86399595D01*
X198540380Y-86161500D01*
X198588000Y-86018642D01*
X198683238Y-85923404D01*
X198778476Y-85875785D01*
X198968952Y-85828166D01*
X199111809Y-85828166D01*
X199302285Y-85875785D01*
X199397523Y-85923404D01*
X199492761Y-86018642D01*
X199540380Y-86161500D01*
X199540380Y-86399595D01*
X199540380Y-84875785D02*
X199540380Y-85447214D01*
X199540380Y-85161500D02*
X198540380Y-85161500D01*
X198683238Y-85256738D01*
X198778476Y-85351976D01*
X198826095Y-85447214D01*
G04 #@! TO.C,F1*
X148885166Y-91784571D02*
X148551833Y-91784571D01*
X148551833Y-92308380D02*
X148551833Y-91308380D01*
X149028023Y-91308380D01*
X149932785Y-92308380D02*
X149361357Y-92308380D01*
X149647071Y-92308380D02*
X149647071Y-91308380D01*
X149551833Y-91451238D01*
X149456595Y-91546476D01*
X149361357Y-91594095D01*
G04 #@! TO.C,*
X139978142Y-80684666D02*
X140454333Y-80684666D01*
X139882904Y-80970380D02*
X140216238Y-79970380D01*
X140549571Y-80970380D01*
X140882904Y-80303714D02*
X140882904Y-80970380D01*
X140882904Y-80398952D02*
X140930523Y-80351333D01*
X141025761Y-80303714D01*
X141168619Y-80303714D01*
X141263857Y-80351333D01*
X141311476Y-80446571D01*
X141311476Y-80970380D01*
X142216238Y-80970380D02*
X142216238Y-80446571D01*
X142168619Y-80351333D01*
X142073380Y-80303714D01*
X141882904Y-80303714D01*
X141787666Y-80351333D01*
X142216238Y-80922761D02*
X142121000Y-80970380D01*
X141882904Y-80970380D01*
X141787666Y-80922761D01*
X141740047Y-80827523D01*
X141740047Y-80732285D01*
X141787666Y-80637047D01*
X141882904Y-80589428D01*
X142121000Y-80589428D01*
X142216238Y-80541809D01*
X142692428Y-80970380D02*
X142692428Y-79970380D01*
X143121000Y-80970380D02*
X143121000Y-80446571D01*
X143073380Y-80351333D01*
X142978142Y-80303714D01*
X142835285Y-80303714D01*
X142740047Y-80351333D01*
X142692428Y-80398952D01*
X143454333Y-80303714D02*
X143835285Y-80303714D01*
X143597190Y-79970380D02*
X143597190Y-80827523D01*
X143644809Y-80922761D01*
X143740047Y-80970380D01*
X143835285Y-80970380D01*
X144597190Y-80970380D02*
X144597190Y-80446571D01*
X144549571Y-80351333D01*
X144454333Y-80303714D01*
X144263857Y-80303714D01*
X144168619Y-80351333D01*
X144597190Y-80922761D02*
X144501952Y-80970380D01*
X144263857Y-80970380D01*
X144168619Y-80922761D01*
X144121000Y-80827523D01*
X144121000Y-80732285D01*
X144168619Y-80637047D01*
X144263857Y-80589428D01*
X144501952Y-80589428D01*
X144597190Y-80541809D01*
X145073380Y-80970380D02*
X145073380Y-80303714D01*
X145073380Y-80494190D02*
X145121000Y-80398952D01*
X145168619Y-80351333D01*
X145263857Y-80303714D01*
X145359095Y-80303714D01*
G04 #@! TO.C,Potansiyometre*
X151218000Y-80970380D02*
X151218000Y-79970380D01*
X151598952Y-79970380D01*
X151694190Y-80018000D01*
X151741809Y-80065619D01*
X151789428Y-80160857D01*
X151789428Y-80303714D01*
X151741809Y-80398952D01*
X151694190Y-80446571D01*
X151598952Y-80494190D01*
X151218000Y-80494190D01*
X152360857Y-80970380D02*
X152265619Y-80922761D01*
X152218000Y-80875142D01*
X152170380Y-80779904D01*
X152170380Y-80494190D01*
X152218000Y-80398952D01*
X152265619Y-80351333D01*
X152360857Y-80303714D01*
X152503714Y-80303714D01*
X152598952Y-80351333D01*
X152646571Y-80398952D01*
X152694190Y-80494190D01*
X152694190Y-80779904D01*
X152646571Y-80875142D01*
X152598952Y-80922761D01*
X152503714Y-80970380D01*
X152360857Y-80970380D01*
X152979904Y-80303714D02*
X153360857Y-80303714D01*
X153122761Y-79970380D02*
X153122761Y-80827523D01*
X153170380Y-80922761D01*
X153265619Y-80970380D01*
X153360857Y-80970380D01*
X154122761Y-80970380D02*
X154122761Y-80446571D01*
X154075142Y-80351333D01*
X153979904Y-80303714D01*
X153789428Y-80303714D01*
X153694190Y-80351333D01*
X154122761Y-80922761D02*
X154027523Y-80970380D01*
X153789428Y-80970380D01*
X153694190Y-80922761D01*
X153646571Y-80827523D01*
X153646571Y-80732285D01*
X153694190Y-80637047D01*
X153789428Y-80589428D01*
X154027523Y-80589428D01*
X154122761Y-80541809D01*
X154598952Y-80303714D02*
X154598952Y-80970380D01*
X154598952Y-80398952D02*
X154646571Y-80351333D01*
X154741809Y-80303714D01*
X154884666Y-80303714D01*
X154979904Y-80351333D01*
X155027523Y-80446571D01*
X155027523Y-80970380D01*
X155456095Y-80922761D02*
X155551333Y-80970380D01*
X155741809Y-80970380D01*
X155837047Y-80922761D01*
X155884666Y-80827523D01*
X155884666Y-80779904D01*
X155837047Y-80684666D01*
X155741809Y-80637047D01*
X155598952Y-80637047D01*
X155503714Y-80589428D01*
X155456095Y-80494190D01*
X155456095Y-80446571D01*
X155503714Y-80351333D01*
X155598952Y-80303714D01*
X155741809Y-80303714D01*
X155837047Y-80351333D01*
X156313238Y-80970380D02*
X156313238Y-80303714D01*
X156313238Y-79970380D02*
X156265619Y-80018000D01*
X156313238Y-80065619D01*
X156360857Y-80018000D01*
X156313238Y-79970380D01*
X156313238Y-80065619D01*
X156694190Y-80303714D02*
X156932285Y-80970380D01*
X157170380Y-80303714D02*
X156932285Y-80970380D01*
X156837047Y-81208476D01*
X156789428Y-81256095D01*
X156694190Y-81303714D01*
X157694190Y-80970380D02*
X157598952Y-80922761D01*
X157551333Y-80875142D01*
X157503714Y-80779904D01*
X157503714Y-80494190D01*
X157551333Y-80398952D01*
X157598952Y-80351333D01*
X157694190Y-80303714D01*
X157837047Y-80303714D01*
X157932285Y-80351333D01*
X157979904Y-80398952D01*
X158027523Y-80494190D01*
X158027523Y-80779904D01*
X157979904Y-80875142D01*
X157932285Y-80922761D01*
X157837047Y-80970380D01*
X157694190Y-80970380D01*
X158456095Y-80970380D02*
X158456095Y-80303714D01*
X158456095Y-80398952D02*
X158503714Y-80351333D01*
X158598952Y-80303714D01*
X158741809Y-80303714D01*
X158837047Y-80351333D01*
X158884666Y-80446571D01*
X158884666Y-80970380D01*
X158884666Y-80446571D02*
X158932285Y-80351333D01*
X159027523Y-80303714D01*
X159170380Y-80303714D01*
X159265619Y-80351333D01*
X159313238Y-80446571D01*
X159313238Y-80970380D01*
X160170380Y-80922761D02*
X160075142Y-80970380D01*
X159884666Y-80970380D01*
X159789428Y-80922761D01*
X159741809Y-80827523D01*
X159741809Y-80446571D01*
X159789428Y-80351333D01*
X159884666Y-80303714D01*
X160075142Y-80303714D01*
X160170380Y-80351333D01*
X160218000Y-80446571D01*
X160218000Y-80541809D01*
X159741809Y-80637047D01*
X160503714Y-80303714D02*
X160884666Y-80303714D01*
X160646571Y-79970380D02*
X160646571Y-80827523D01*
X160694190Y-80922761D01*
X160789428Y-80970380D01*
X160884666Y-80970380D01*
X161218000Y-80970380D02*
X161218000Y-80303714D01*
X161218000Y-80494190D02*
X161265619Y-80398952D01*
X161313238Y-80351333D01*
X161408476Y-80303714D01*
X161503714Y-80303714D01*
X162218000Y-80922761D02*
X162122761Y-80970380D01*
X161932285Y-80970380D01*
X161837047Y-80922761D01*
X161789428Y-80827523D01*
X161789428Y-80446571D01*
X161837047Y-80351333D01*
X161932285Y-80303714D01*
X162122761Y-80303714D01*
X162218000Y-80351333D01*
X162265619Y-80446571D01*
X162265619Y-80541809D01*
X161789428Y-80637047D01*
G04 #@! TO.C,Ak\0131m \00D6.*
X182729523Y-81192666D02*
X183205714Y-81192666D01*
X182634285Y-81478380D02*
X182967619Y-80478380D01*
X183300952Y-81478380D01*
X183634285Y-81478380D02*
X183634285Y-80478380D01*
X183729523Y-81097428D02*
X184015238Y-81478380D01*
X184015238Y-80811714D02*
X183634285Y-81192666D01*
X184443809Y-81478380D02*
X184443809Y-80811714D01*
X184920000Y-81478380D02*
X184920000Y-80811714D01*
X184920000Y-80906952D02*
X184967619Y-80859333D01*
X185062857Y-80811714D01*
X185205714Y-80811714D01*
X185300952Y-80859333D01*
X185348571Y-80954571D01*
X185348571Y-81478380D01*
X185348571Y-80954571D02*
X185396190Y-80859333D01*
X185491428Y-80811714D01*
X185634285Y-80811714D01*
X185729523Y-80859333D01*
X185777142Y-80954571D01*
X185777142Y-81478380D01*
X187205714Y-80478380D02*
X187396190Y-80478380D01*
X187491428Y-80526000D01*
X187586666Y-80621238D01*
X187634285Y-80811714D01*
X187634285Y-81145047D01*
X187586666Y-81335523D01*
X187491428Y-81430761D01*
X187396190Y-81478380D01*
X187205714Y-81478380D01*
X187110476Y-81430761D01*
X187015238Y-81335523D01*
X186967619Y-81145047D01*
X186967619Y-80811714D01*
X187015238Y-80621238D01*
X187110476Y-80526000D01*
X187205714Y-80478380D01*
X187110476Y-80145047D02*
X187158095Y-80192666D01*
X187110476Y-80240285D01*
X187062857Y-80192666D01*
X187110476Y-80145047D01*
X187110476Y-80240285D01*
X187491428Y-80145047D02*
X187539047Y-80192666D01*
X187491428Y-80240285D01*
X187443809Y-80192666D01*
X187491428Y-80145047D01*
X187491428Y-80240285D01*
X188062857Y-81383142D02*
X188110476Y-81430761D01*
X188062857Y-81478380D01*
X188015238Y-81430761D01*
X188062857Y-81383142D01*
X188062857Y-81478380D01*
G04 #@! TO.C,Gerilim \00D6.*
X168680190Y-80018000D02*
X168584952Y-79970380D01*
X168442095Y-79970380D01*
X168299238Y-80018000D01*
X168204000Y-80113238D01*
X168156380Y-80208476D01*
X168108761Y-80398952D01*
X168108761Y-80541809D01*
X168156380Y-80732285D01*
X168204000Y-80827523D01*
X168299238Y-80922761D01*
X168442095Y-80970380D01*
X168537333Y-80970380D01*
X168680190Y-80922761D01*
X168727809Y-80875142D01*
X168727809Y-80541809D01*
X168537333Y-80541809D01*
X169537333Y-80922761D02*
X169442095Y-80970380D01*
X169251619Y-80970380D01*
X169156380Y-80922761D01*
X169108761Y-80827523D01*
X169108761Y-80446571D01*
X169156380Y-80351333D01*
X169251619Y-80303714D01*
X169442095Y-80303714D01*
X169537333Y-80351333D01*
X169584952Y-80446571D01*
X169584952Y-80541809D01*
X169108761Y-80637047D01*
X170013523Y-80970380D02*
X170013523Y-80303714D01*
X170013523Y-80494190D02*
X170061142Y-80398952D01*
X170108761Y-80351333D01*
X170204000Y-80303714D01*
X170299238Y-80303714D01*
X170632571Y-80970380D02*
X170632571Y-80303714D01*
X170632571Y-79970380D02*
X170584952Y-80018000D01*
X170632571Y-80065619D01*
X170680190Y-80018000D01*
X170632571Y-79970380D01*
X170632571Y-80065619D01*
X171251619Y-80970380D02*
X171156380Y-80922761D01*
X171108761Y-80827523D01*
X171108761Y-79970380D01*
X171632571Y-80970380D02*
X171632571Y-80303714D01*
X171632571Y-79970380D02*
X171584952Y-80018000D01*
X171632571Y-80065619D01*
X171680190Y-80018000D01*
X171632571Y-79970380D01*
X171632571Y-80065619D01*
X172108761Y-80970380D02*
X172108761Y-80303714D01*
X172108761Y-80398952D02*
X172156380Y-80351333D01*
X172251619Y-80303714D01*
X172394476Y-80303714D01*
X172489714Y-80351333D01*
X172537333Y-80446571D01*
X172537333Y-80970380D01*
X172537333Y-80446571D02*
X172584952Y-80351333D01*
X172680190Y-80303714D01*
X172823047Y-80303714D01*
X172918285Y-80351333D01*
X172965904Y-80446571D01*
X172965904Y-80970380D01*
X174394476Y-79970380D02*
X174584952Y-79970380D01*
X174680190Y-80018000D01*
X174775428Y-80113238D01*
X174823047Y-80303714D01*
X174823047Y-80637047D01*
X174775428Y-80827523D01*
X174680190Y-80922761D01*
X174584952Y-80970380D01*
X174394476Y-80970380D01*
X174299238Y-80922761D01*
X174204000Y-80827523D01*
X174156380Y-80637047D01*
X174156380Y-80303714D01*
X174204000Y-80113238D01*
X174299238Y-80018000D01*
X174394476Y-79970380D01*
X174299238Y-79637047D02*
X174346857Y-79684666D01*
X174299238Y-79732285D01*
X174251619Y-79684666D01*
X174299238Y-79637047D01*
X174299238Y-79732285D01*
X174680190Y-79637047D02*
X174727809Y-79684666D01*
X174680190Y-79732285D01*
X174632571Y-79684666D01*
X174680190Y-79637047D01*
X174680190Y-79732285D01*
X175251619Y-80875142D02*
X175299238Y-80922761D01*
X175251619Y-80970380D01*
X175204000Y-80922761D01*
X175251619Y-80875142D01*
X175251619Y-80970380D01*
G04 #@! TO.C,*
G04 #@! TO.C,L1*
X185784833Y-83780880D02*
X185308642Y-83780880D01*
X185308642Y-82780880D01*
X186641976Y-83780880D02*
X186070547Y-83780880D01*
X186356261Y-83780880D02*
X186356261Y-82780880D01*
X186261023Y-82923738D01*
X186165785Y-83018976D01*
X186070547Y-83066595D01*
G04 #@! TO.C,Q1*
X193579761Y-115053619D02*
X193484523Y-115006000D01*
X193389285Y-114910761D01*
X193246428Y-114767904D01*
X193151190Y-114720285D01*
X193055952Y-114720285D01*
X193103571Y-114958380D02*
X193008333Y-114910761D01*
X192913095Y-114815523D01*
X192865476Y-114625047D01*
X192865476Y-114291714D01*
X192913095Y-114101238D01*
X193008333Y-114006000D01*
X193103571Y-113958380D01*
X193294047Y-113958380D01*
X193389285Y-114006000D01*
X193484523Y-114101238D01*
X193532142Y-114291714D01*
X193532142Y-114625047D01*
X193484523Y-114815523D01*
X193389285Y-114910761D01*
X193294047Y-114958380D01*
X193103571Y-114958380D01*
X194484523Y-114958380D02*
X193913095Y-114958380D01*
X194198809Y-114958380D02*
X194198809Y-113958380D01*
X194103571Y-114101238D01*
X194008333Y-114196476D01*
X193913095Y-114244095D01*
G04 #@! TO.C,R1*
X133717380Y-97739166D02*
X133241190Y-98072500D01*
X133717380Y-98310595D02*
X132717380Y-98310595D01*
X132717380Y-97929642D01*
X132765000Y-97834404D01*
X132812619Y-97786785D01*
X132907857Y-97739166D01*
X133050714Y-97739166D01*
X133145952Y-97786785D01*
X133193571Y-97834404D01*
X133241190Y-97929642D01*
X133241190Y-98310595D01*
X133717380Y-96786785D02*
X133717380Y-97358214D01*
X133717380Y-97072500D02*
X132717380Y-97072500D01*
X132860238Y-97167738D01*
X132955476Y-97262976D01*
X133003095Y-97358214D01*
G04 #@! TO.C,R2*
X136892380Y-97739166D02*
X136416190Y-98072500D01*
X136892380Y-98310595D02*
X135892380Y-98310595D01*
X135892380Y-97929642D01*
X135940000Y-97834404D01*
X135987619Y-97786785D01*
X136082857Y-97739166D01*
X136225714Y-97739166D01*
X136320952Y-97786785D01*
X136368571Y-97834404D01*
X136416190Y-97929642D01*
X136416190Y-98310595D01*
X135987619Y-97358214D02*
X135940000Y-97310595D01*
X135892380Y-97215357D01*
X135892380Y-96977261D01*
X135940000Y-96882023D01*
X135987619Y-96834404D01*
X136082857Y-96786785D01*
X136178095Y-96786785D01*
X136320952Y-96834404D01*
X136892380Y-97405833D01*
X136892380Y-96786785D01*
G04 #@! TO.C,R3*
X133252380Y-105667166D02*
X132776190Y-106000500D01*
X133252380Y-106238595D02*
X132252380Y-106238595D01*
X132252380Y-105857642D01*
X132300000Y-105762404D01*
X132347619Y-105714785D01*
X132442857Y-105667166D01*
X132585714Y-105667166D01*
X132680952Y-105714785D01*
X132728571Y-105762404D01*
X132776190Y-105857642D01*
X132776190Y-106238595D01*
X132252380Y-105333833D02*
X132252380Y-104714785D01*
X132633333Y-105048119D01*
X132633333Y-104905261D01*
X132680952Y-104810023D01*
X132728571Y-104762404D01*
X132823809Y-104714785D01*
X133061904Y-104714785D01*
X133157142Y-104762404D01*
X133204761Y-104810023D01*
X133252380Y-104905261D01*
X133252380Y-105190976D01*
X133204761Y-105286214D01*
X133157142Y-105333833D01*
G04 #@! TO.C,R4*
X133641180Y-91809866D02*
X133164990Y-92143200D01*
X133641180Y-92381295D02*
X132641180Y-92381295D01*
X132641180Y-92000342D01*
X132688800Y-91905104D01*
X132736419Y-91857485D01*
X132831657Y-91809866D01*
X132974514Y-91809866D01*
X133069752Y-91857485D01*
X133117371Y-91905104D01*
X133164990Y-92000342D01*
X133164990Y-92381295D01*
X132974514Y-90952723D02*
X133641180Y-90952723D01*
X132593561Y-91190819D02*
X133307847Y-91428914D01*
X133307847Y-90809866D01*
G04 #@! TO.C,R5*
X140067380Y-97739166D02*
X139591190Y-98072500D01*
X140067380Y-98310595D02*
X139067380Y-98310595D01*
X139067380Y-97929642D01*
X139115000Y-97834404D01*
X139162619Y-97786785D01*
X139257857Y-97739166D01*
X139400714Y-97739166D01*
X139495952Y-97786785D01*
X139543571Y-97834404D01*
X139591190Y-97929642D01*
X139591190Y-98310595D01*
X139067380Y-96834404D02*
X139067380Y-97310595D01*
X139543571Y-97358214D01*
X139495952Y-97310595D01*
X139448333Y-97215357D01*
X139448333Y-96977261D01*
X139495952Y-96882023D01*
X139543571Y-96834404D01*
X139638809Y-96786785D01*
X139876904Y-96786785D01*
X139972142Y-96834404D01*
X140019761Y-96882023D01*
X140067380Y-96977261D01*
X140067380Y-97215357D01*
X140019761Y-97310595D01*
X139972142Y-97358214D01*
G04 #@! TO.C,R6*
X136427380Y-105667166D02*
X135951190Y-106000500D01*
X136427380Y-106238595D02*
X135427380Y-106238595D01*
X135427380Y-105857642D01*
X135475000Y-105762404D01*
X135522619Y-105714785D01*
X135617857Y-105667166D01*
X135760714Y-105667166D01*
X135855952Y-105714785D01*
X135903571Y-105762404D01*
X135951190Y-105857642D01*
X135951190Y-106238595D01*
X135427380Y-104810023D02*
X135427380Y-105000500D01*
X135475000Y-105095738D01*
X135522619Y-105143357D01*
X135665476Y-105238595D01*
X135855952Y-105286214D01*
X136236904Y-105286214D01*
X136332142Y-105238595D01*
X136379761Y-105190976D01*
X136427380Y-105095738D01*
X136427380Y-104905261D01*
X136379761Y-104810023D01*
X136332142Y-104762404D01*
X136236904Y-104714785D01*
X135998809Y-104714785D01*
X135903571Y-104762404D01*
X135855952Y-104810023D01*
X135808333Y-104905261D01*
X135808333Y-105095738D01*
X135855952Y-105190976D01*
X135903571Y-105238595D01*
X135998809Y-105286214D01*
G04 #@! TO.C,R7*
X168706833Y-103999380D02*
X168373500Y-103523190D01*
X168135404Y-103999380D02*
X168135404Y-102999380D01*
X168516357Y-102999380D01*
X168611595Y-103047000D01*
X168659214Y-103094619D01*
X168706833Y-103189857D01*
X168706833Y-103332714D01*
X168659214Y-103427952D01*
X168611595Y-103475571D01*
X168516357Y-103523190D01*
X168135404Y-103523190D01*
X169040166Y-102999380D02*
X169706833Y-102999380D01*
X169278261Y-103999380D01*
G04 #@! TO.C,R8*
X168706833Y-106920380D02*
X168373500Y-106444190D01*
X168135404Y-106920380D02*
X168135404Y-105920380D01*
X168516357Y-105920380D01*
X168611595Y-105968000D01*
X168659214Y-106015619D01*
X168706833Y-106110857D01*
X168706833Y-106253714D01*
X168659214Y-106348952D01*
X168611595Y-106396571D01*
X168516357Y-106444190D01*
X168135404Y-106444190D01*
X169278261Y-106348952D02*
X169183023Y-106301333D01*
X169135404Y-106253714D01*
X169087785Y-106158476D01*
X169087785Y-106110857D01*
X169135404Y-106015619D01*
X169183023Y-105968000D01*
X169278261Y-105920380D01*
X169468738Y-105920380D01*
X169563976Y-105968000D01*
X169611595Y-106015619D01*
X169659214Y-106110857D01*
X169659214Y-106158476D01*
X169611595Y-106253714D01*
X169563976Y-106301333D01*
X169468738Y-106348952D01*
X169278261Y-106348952D01*
X169183023Y-106396571D01*
X169135404Y-106444190D01*
X169087785Y-106539428D01*
X169087785Y-106729904D01*
X169135404Y-106825142D01*
X169183023Y-106872761D01*
X169278261Y-106920380D01*
X169468738Y-106920380D01*
X169563976Y-106872761D01*
X169611595Y-106825142D01*
X169659214Y-106729904D01*
X169659214Y-106539428D01*
X169611595Y-106444190D01*
X169563976Y-106396571D01*
X169468738Y-106348952D01*
G04 #@! TO.C,R9*
X170140333Y-107988380D02*
X169807000Y-107512190D01*
X169568904Y-107988380D02*
X169568904Y-106988380D01*
X169949857Y-106988380D01*
X170045095Y-107036000D01*
X170092714Y-107083619D01*
X170140333Y-107178857D01*
X170140333Y-107321714D01*
X170092714Y-107416952D01*
X170045095Y-107464571D01*
X169949857Y-107512190D01*
X169568904Y-107512190D01*
X170616523Y-107988380D02*
X170807000Y-107988380D01*
X170902238Y-107940761D01*
X170949857Y-107893142D01*
X171045095Y-107750285D01*
X171092714Y-107559809D01*
X171092714Y-107178857D01*
X171045095Y-107083619D01*
X170997476Y-107036000D01*
X170902238Y-106988380D01*
X170711761Y-106988380D01*
X170616523Y-107036000D01*
X170568904Y-107083619D01*
X170521285Y-107178857D01*
X170521285Y-107416952D01*
X170568904Y-107512190D01*
X170616523Y-107559809D01*
X170711761Y-107607428D01*
X170902238Y-107607428D01*
X170997476Y-107559809D01*
X171045095Y-107512190D01*
X171092714Y-107416952D01*
G04 #@! TO.C,*
G04 #@! TO.C,REF\002A\002A*
X189166666Y-90232380D02*
X188833333Y-89756190D01*
X188595238Y-90232380D02*
X188595238Y-89232380D01*
X188976190Y-89232380D01*
X189071428Y-89280000D01*
X189119047Y-89327619D01*
X189166666Y-89422857D01*
X189166666Y-89565714D01*
X189119047Y-89660952D01*
X189071428Y-89708571D01*
X188976190Y-89756190D01*
X188595238Y-89756190D01*
X189595238Y-89708571D02*
X189928571Y-89708571D01*
X190071428Y-90232380D02*
X189595238Y-90232380D01*
X189595238Y-89232380D01*
X190071428Y-89232380D01*
X190833333Y-89708571D02*
X190500000Y-89708571D01*
X190500000Y-90232380D02*
X190500000Y-89232380D01*
X190976190Y-89232380D01*
X191500000Y-89232380D02*
X191500000Y-89470476D01*
X191261904Y-89375238D02*
X191500000Y-89470476D01*
X191738095Y-89375238D01*
X191357142Y-89660952D02*
X191500000Y-89470476D01*
X191642857Y-89660952D01*
X192261904Y-89232380D02*
X192261904Y-89470476D01*
X192023809Y-89375238D02*
X192261904Y-89470476D01*
X192500000Y-89375238D01*
X192119047Y-89660952D02*
X192261904Y-89470476D01*
X192404761Y-89660952D01*
G04 #@! TO.C,*
G04 #@! TD*
M02*
