G04 #@! TF.GenerationSoftware,KiCad,Pcbnew,(5.0.2)-1*
G04 #@! TF.CreationDate,2021-12-13T13:30:45+03:00*
G04 #@! TF.ProjectId,tasarim,74617361-7269-46d2-9e6b-696361645f70,rev?*
G04 #@! TF.SameCoordinates,Original*
G04 #@! TF.FileFunction,Soldermask,Bot*
G04 #@! TF.FilePolarity,Negative*
%FSLAX46Y46*%
G04 Gerber Fmt 4.6, Leading zero omitted, Abs format (unit mm)*
G04 Created by KiCad (PCBNEW (5.0.2)-1) date 13.12.2021 13:30:45*
%MOMM*%
%LPD*%
G01*
G04 APERTURE LIST*
%ADD10C,0.100000*%
G04 APERTURE END LIST*
D10*
G36*
X178104861Y-110065497D02*
X178211446Y-110075995D01*
X178393789Y-110131308D01*
X178484961Y-110158965D01*
X178599410Y-110220140D01*
X178737033Y-110293701D01*
X178957976Y-110475024D01*
X179117480Y-110669380D01*
X179139298Y-110695966D01*
X179274035Y-110948039D01*
X179274035Y-110948040D01*
X179357005Y-111221554D01*
X179385020Y-111506000D01*
X179357005Y-111790446D01*
X179314903Y-111929238D01*
X179274035Y-112063961D01*
X179202016Y-112198697D01*
X179139299Y-112316033D01*
X178957976Y-112536976D01*
X178737033Y-112718299D01*
X178619697Y-112781016D01*
X178484961Y-112853035D01*
X178393789Y-112880692D01*
X178211446Y-112936005D01*
X178104861Y-112946502D01*
X177998278Y-112957000D01*
X177855722Y-112957000D01*
X177749139Y-112946502D01*
X177642554Y-112936005D01*
X177460211Y-112880692D01*
X177369039Y-112853035D01*
X177234303Y-112781016D01*
X177116967Y-112718299D01*
X176896024Y-112536976D01*
X176714701Y-112316033D01*
X176651984Y-112198697D01*
X176579965Y-112063961D01*
X176539097Y-111929238D01*
X176496995Y-111790446D01*
X176468980Y-111506000D01*
X176496995Y-111221554D01*
X176579965Y-110948040D01*
X176579965Y-110948039D01*
X176714702Y-110695966D01*
X176736521Y-110669380D01*
X176896024Y-110475024D01*
X177116967Y-110293701D01*
X177254590Y-110220140D01*
X177369039Y-110158965D01*
X177460211Y-110131308D01*
X177642554Y-110075995D01*
X177749139Y-110065497D01*
X177855722Y-110055000D01*
X177998278Y-110055000D01*
X178104861Y-110065497D01*
X178104861Y-110065497D01*
G37*
G36*
X163110238Y-110110760D02*
X163110240Y-110110761D01*
X163110241Y-110110761D01*
X163374306Y-110220140D01*
X163484399Y-110293702D01*
X163611962Y-110378937D01*
X163814063Y-110581038D01*
X163814065Y-110581041D01*
X163972860Y-110818694D01*
X164073455Y-111061553D01*
X164082240Y-111082762D01*
X164138000Y-111363088D01*
X164138000Y-111648912D01*
X164109848Y-111790444D01*
X164082239Y-111929241D01*
X163972860Y-112193306D01*
X163816206Y-112427754D01*
X163814063Y-112430962D01*
X163611962Y-112633063D01*
X163611959Y-112633065D01*
X163374306Y-112791860D01*
X163110241Y-112901239D01*
X163110240Y-112901239D01*
X163110238Y-112901240D01*
X162829912Y-112957000D01*
X162544088Y-112957000D01*
X162263762Y-112901240D01*
X162263760Y-112901239D01*
X162263759Y-112901239D01*
X161999694Y-112791860D01*
X161762041Y-112633065D01*
X161762038Y-112633063D01*
X161559937Y-112430962D01*
X161557794Y-112427754D01*
X161401140Y-112193306D01*
X161291761Y-111929241D01*
X161264153Y-111790444D01*
X161236000Y-111648912D01*
X161236000Y-111363088D01*
X161291760Y-111082762D01*
X161300545Y-111061553D01*
X161401140Y-110818694D01*
X161559935Y-110581041D01*
X161559937Y-110581038D01*
X161762038Y-110378937D01*
X161889601Y-110293702D01*
X161999694Y-110220140D01*
X162263759Y-110110761D01*
X162263760Y-110110761D01*
X162263762Y-110110760D01*
X162544088Y-110055000D01*
X162829912Y-110055000D01*
X163110238Y-110110760D01*
X163110238Y-110110760D01*
G37*
G36*
X193871720Y-109199520D02*
X194060881Y-109256901D01*
X194235212Y-109350083D01*
X194388015Y-109475485D01*
X194513417Y-109628288D01*
X194606599Y-109802620D01*
X194663980Y-109991781D01*
X194678500Y-110139207D01*
X194678500Y-110332794D01*
X194663980Y-110480220D01*
X194606599Y-110669381D01*
X194513417Y-110843712D01*
X194388015Y-110996515D01*
X194235212Y-111121917D01*
X194060880Y-111215099D01*
X193871719Y-111272480D01*
X193675000Y-111291855D01*
X193478280Y-111272480D01*
X193289119Y-111215099D01*
X193114788Y-111121917D01*
X192961985Y-110996515D01*
X192836583Y-110843712D01*
X192743401Y-110669380D01*
X192686020Y-110480219D01*
X192676045Y-110378937D01*
X192671500Y-110332795D01*
X192671500Y-110139204D01*
X192677726Y-110075995D01*
X192686020Y-109991780D01*
X192743401Y-109802619D01*
X192836583Y-109628288D01*
X192961985Y-109475485D01*
X193114788Y-109350083D01*
X193289120Y-109256901D01*
X193478281Y-109199520D01*
X193675000Y-109180145D01*
X193871720Y-109199520D01*
X193871720Y-109199520D01*
G37*
G36*
X191331720Y-109199520D02*
X191520881Y-109256901D01*
X191695212Y-109350083D01*
X191848015Y-109475485D01*
X191973417Y-109628288D01*
X192066599Y-109802620D01*
X192123980Y-109991781D01*
X192138500Y-110139207D01*
X192138500Y-110332794D01*
X192123980Y-110480220D01*
X192066599Y-110669381D01*
X191973417Y-110843712D01*
X191848015Y-110996515D01*
X191695212Y-111121917D01*
X191520880Y-111215099D01*
X191331719Y-111272480D01*
X191135000Y-111291855D01*
X190938280Y-111272480D01*
X190749119Y-111215099D01*
X190574788Y-111121917D01*
X190421985Y-110996515D01*
X190296583Y-110843712D01*
X190203401Y-110669380D01*
X190146020Y-110480219D01*
X190136045Y-110378937D01*
X190131500Y-110332795D01*
X190131500Y-110139204D01*
X190137726Y-110075995D01*
X190146020Y-109991780D01*
X190203401Y-109802619D01*
X190296583Y-109628288D01*
X190421985Y-109475485D01*
X190574788Y-109350083D01*
X190749120Y-109256901D01*
X190938281Y-109199520D01*
X191135000Y-109180145D01*
X191331720Y-109199520D01*
X191331720Y-109199520D01*
G37*
G36*
X197218500Y-111287000D02*
X195211500Y-111287000D01*
X195211500Y-109185000D01*
X197218500Y-109185000D01*
X197218500Y-111287000D01*
X197218500Y-111287000D01*
G37*
G36*
X147187256Y-107865298D02*
X147293579Y-107886447D01*
X147594042Y-108010903D01*
X147791884Y-108143097D01*
X147864454Y-108191587D01*
X148094413Y-108421546D01*
X148275098Y-108691960D01*
X148399553Y-108992422D01*
X148452162Y-109256901D01*
X148463000Y-109311391D01*
X148463000Y-109636609D01*
X148399553Y-109955579D01*
X148275097Y-110256042D01*
X148125308Y-110480216D01*
X148094413Y-110526454D01*
X147864454Y-110756413D01*
X147864451Y-110756415D01*
X147594042Y-110937097D01*
X147594041Y-110937098D01*
X147594040Y-110937098D01*
X147506037Y-110973550D01*
X147293579Y-111061553D01*
X147187256Y-111082702D01*
X146974611Y-111125000D01*
X146649389Y-111125000D01*
X146436744Y-111082702D01*
X146330421Y-111061553D01*
X146117963Y-110973550D01*
X146029960Y-110937098D01*
X146029959Y-110937098D01*
X146029958Y-110937097D01*
X145759549Y-110756415D01*
X145759546Y-110756413D01*
X145529587Y-110526454D01*
X145498692Y-110480216D01*
X145348903Y-110256042D01*
X145224447Y-109955579D01*
X145161000Y-109636609D01*
X145161000Y-109311391D01*
X145171839Y-109256901D01*
X145224447Y-108992422D01*
X145348902Y-108691960D01*
X145529587Y-108421546D01*
X145759546Y-108191587D01*
X145832116Y-108143097D01*
X146029958Y-108010903D01*
X146330421Y-107886447D01*
X146436744Y-107865298D01*
X146649389Y-107823000D01*
X146974611Y-107823000D01*
X147187256Y-107865298D01*
X147187256Y-107865298D01*
G37*
G36*
X201543256Y-105071298D02*
X201649579Y-105092447D01*
X201950042Y-105216903D01*
X202216852Y-105395180D01*
X202220454Y-105397587D01*
X202450413Y-105627546D01*
X202631098Y-105897960D01*
X202755553Y-106198422D01*
X202819000Y-106517389D01*
X202819000Y-106842611D01*
X202755553Y-107161578D01*
X202631098Y-107462040D01*
X202450413Y-107732454D01*
X202220454Y-107962413D01*
X202220451Y-107962415D01*
X201950042Y-108143097D01*
X201649579Y-108267553D01*
X201543256Y-108288702D01*
X201330611Y-108331000D01*
X201005389Y-108331000D01*
X200792744Y-108288702D01*
X200686421Y-108267553D01*
X200385958Y-108143097D01*
X200115549Y-107962415D01*
X200115546Y-107962413D01*
X199885587Y-107732454D01*
X199704902Y-107462040D01*
X199580447Y-107161578D01*
X199517000Y-106842611D01*
X199517000Y-106517389D01*
X199580447Y-106198422D01*
X199704902Y-105897960D01*
X199885587Y-105627546D01*
X200115546Y-105397587D01*
X200119148Y-105395180D01*
X200385958Y-105216903D01*
X200686421Y-105092447D01*
X200792744Y-105071298D01*
X201005389Y-105029000D01*
X201330611Y-105029000D01*
X201543256Y-105071298D01*
X201543256Y-105071298D01*
G37*
G36*
X185083500Y-105010000D02*
X182581500Y-105010000D01*
X182581500Y-102508000D01*
X185083500Y-102508000D01*
X185083500Y-105010000D01*
X185083500Y-105010000D01*
G37*
G36*
X157646821Y-103301313D02*
X157646824Y-103301314D01*
X157646825Y-103301314D01*
X157807239Y-103349975D01*
X157807241Y-103349976D01*
X157807244Y-103349977D01*
X157955078Y-103428995D01*
X158084659Y-103535341D01*
X158191005Y-103664922D01*
X158270023Y-103812756D01*
X158318687Y-103973179D01*
X158335117Y-104140000D01*
X158318687Y-104306821D01*
X158270023Y-104467244D01*
X158191005Y-104615078D01*
X158084659Y-104744659D01*
X157955078Y-104851005D01*
X157807244Y-104930023D01*
X157807241Y-104930024D01*
X157807239Y-104930025D01*
X157646825Y-104978686D01*
X157646824Y-104978686D01*
X157646821Y-104978687D01*
X157521804Y-104991000D01*
X157438196Y-104991000D01*
X157313179Y-104978687D01*
X157313176Y-104978686D01*
X157313175Y-104978686D01*
X157152761Y-104930025D01*
X157152759Y-104930024D01*
X157152756Y-104930023D01*
X157004922Y-104851005D01*
X156875341Y-104744659D01*
X156768995Y-104615078D01*
X156689977Y-104467244D01*
X156641313Y-104306821D01*
X156624883Y-104140000D01*
X156641313Y-103973179D01*
X156689977Y-103812756D01*
X156768995Y-103664922D01*
X156875341Y-103535341D01*
X157004922Y-103428995D01*
X157152756Y-103349977D01*
X157152759Y-103349976D01*
X157152761Y-103349975D01*
X157313175Y-103301314D01*
X157313176Y-103301314D01*
X157313179Y-103301313D01*
X157438196Y-103289000D01*
X157521804Y-103289000D01*
X157646821Y-103301313D01*
X157646821Y-103301313D01*
G37*
G36*
X150026821Y-103301313D02*
X150026824Y-103301314D01*
X150026825Y-103301314D01*
X150187239Y-103349975D01*
X150187241Y-103349976D01*
X150187244Y-103349977D01*
X150335078Y-103428995D01*
X150464659Y-103535341D01*
X150571005Y-103664922D01*
X150650023Y-103812756D01*
X150698687Y-103973179D01*
X150715117Y-104140000D01*
X150698687Y-104306821D01*
X150650023Y-104467244D01*
X150571005Y-104615078D01*
X150464659Y-104744659D01*
X150335078Y-104851005D01*
X150187244Y-104930023D01*
X150187241Y-104930024D01*
X150187239Y-104930025D01*
X150026825Y-104978686D01*
X150026824Y-104978686D01*
X150026821Y-104978687D01*
X149901804Y-104991000D01*
X149818196Y-104991000D01*
X149693179Y-104978687D01*
X149693176Y-104978686D01*
X149693175Y-104978686D01*
X149532761Y-104930025D01*
X149532759Y-104930024D01*
X149532756Y-104930023D01*
X149384922Y-104851005D01*
X149255341Y-104744659D01*
X149148995Y-104615078D01*
X149069977Y-104467244D01*
X149021313Y-104306821D01*
X149004883Y-104140000D01*
X149021313Y-103973179D01*
X149069977Y-103812756D01*
X149148995Y-103664922D01*
X149255341Y-103535341D01*
X149384922Y-103428995D01*
X149532756Y-103349977D01*
X149532759Y-103349976D01*
X149532761Y-103349975D01*
X149693175Y-103301314D01*
X149693176Y-103301314D01*
X149693179Y-103301313D01*
X149818196Y-103289000D01*
X149901804Y-103289000D01*
X150026821Y-103301313D01*
X150026821Y-103301313D01*
G37*
G36*
X157646821Y-100761313D02*
X157646824Y-100761314D01*
X157646825Y-100761314D01*
X157807239Y-100809975D01*
X157807241Y-100809976D01*
X157807244Y-100809977D01*
X157955078Y-100888995D01*
X158084659Y-100995341D01*
X158191005Y-101124922D01*
X158270023Y-101272756D01*
X158318687Y-101433179D01*
X158335117Y-101600000D01*
X158318687Y-101766821D01*
X158270023Y-101927244D01*
X158191005Y-102075078D01*
X158084659Y-102204659D01*
X157955078Y-102311005D01*
X157807244Y-102390023D01*
X157807241Y-102390024D01*
X157807239Y-102390025D01*
X157646825Y-102438686D01*
X157646824Y-102438686D01*
X157646821Y-102438687D01*
X157521804Y-102451000D01*
X157438196Y-102451000D01*
X157313179Y-102438687D01*
X157313176Y-102438686D01*
X157313175Y-102438686D01*
X157152761Y-102390025D01*
X157152759Y-102390024D01*
X157152756Y-102390023D01*
X157004922Y-102311005D01*
X156875341Y-102204659D01*
X156768995Y-102075078D01*
X156689977Y-101927244D01*
X156641313Y-101766821D01*
X156624883Y-101600000D01*
X156641313Y-101433179D01*
X156689977Y-101272756D01*
X156768995Y-101124922D01*
X156875341Y-100995341D01*
X157004922Y-100888995D01*
X157152756Y-100809977D01*
X157152759Y-100809976D01*
X157152761Y-100809975D01*
X157313175Y-100761314D01*
X157313176Y-100761314D01*
X157313179Y-100761313D01*
X157438196Y-100749000D01*
X157521804Y-100749000D01*
X157646821Y-100761313D01*
X157646821Y-100761313D01*
G37*
G36*
X150026821Y-100761313D02*
X150026824Y-100761314D01*
X150026825Y-100761314D01*
X150187239Y-100809975D01*
X150187241Y-100809976D01*
X150187244Y-100809977D01*
X150335078Y-100888995D01*
X150464659Y-100995341D01*
X150571005Y-101124922D01*
X150650023Y-101272756D01*
X150698687Y-101433179D01*
X150715117Y-101600000D01*
X150698687Y-101766821D01*
X150650023Y-101927244D01*
X150571005Y-102075078D01*
X150464659Y-102204659D01*
X150335078Y-102311005D01*
X150187244Y-102390023D01*
X150187241Y-102390024D01*
X150187239Y-102390025D01*
X150026825Y-102438686D01*
X150026824Y-102438686D01*
X150026821Y-102438687D01*
X149901804Y-102451000D01*
X149818196Y-102451000D01*
X149693179Y-102438687D01*
X149693176Y-102438686D01*
X149693175Y-102438686D01*
X149532761Y-102390025D01*
X149532759Y-102390024D01*
X149532756Y-102390023D01*
X149384922Y-102311005D01*
X149255341Y-102204659D01*
X149148995Y-102075078D01*
X149069977Y-101927244D01*
X149021313Y-101766821D01*
X149004883Y-101600000D01*
X149021313Y-101433179D01*
X149069977Y-101272756D01*
X149148995Y-101124922D01*
X149255341Y-100995341D01*
X149384922Y-100888995D01*
X149532756Y-100809977D01*
X149532759Y-100809976D01*
X149532761Y-100809975D01*
X149693175Y-100761314D01*
X149693176Y-100761314D01*
X149693179Y-100761313D01*
X149818196Y-100749000D01*
X149901804Y-100749000D01*
X150026821Y-100761313D01*
X150026821Y-100761313D01*
G37*
G36*
X203223060Y-101813560D02*
X199620940Y-101813560D01*
X199620940Y-98211440D01*
X203223060Y-98211440D01*
X203223060Y-101813560D01*
X203223060Y-101813560D01*
G37*
G36*
X124800560Y-100226060D02*
X121198440Y-100226060D01*
X121198440Y-96623940D01*
X124800560Y-96623940D01*
X124800560Y-100226060D01*
X124800560Y-100226060D01*
G37*
G36*
X184016135Y-97520019D02*
X184197403Y-97556075D01*
X184425071Y-97650378D01*
X184629042Y-97786668D01*
X184629969Y-97787287D01*
X184804213Y-97961531D01*
X184804215Y-97961534D01*
X184941122Y-98166429D01*
X185035425Y-98394097D01*
X185083500Y-98635787D01*
X185083500Y-98882213D01*
X185035425Y-99123903D01*
X184941122Y-99351571D01*
X184818506Y-99535078D01*
X184804213Y-99556469D01*
X184629969Y-99730713D01*
X184629966Y-99730715D01*
X184425071Y-99867622D01*
X184197403Y-99961925D01*
X184016136Y-99997981D01*
X183955714Y-100010000D01*
X183709286Y-100010000D01*
X183648865Y-99997981D01*
X183467597Y-99961925D01*
X183239929Y-99867622D01*
X183035034Y-99730715D01*
X183035031Y-99730713D01*
X182860787Y-99556469D01*
X182846494Y-99535078D01*
X182723878Y-99351571D01*
X182629575Y-99123903D01*
X182581500Y-98882213D01*
X182581500Y-98635787D01*
X182629575Y-98394097D01*
X182723878Y-98166429D01*
X182860785Y-97961534D01*
X182860787Y-97961531D01*
X183035031Y-97787287D01*
X183035958Y-97786668D01*
X183239929Y-97650378D01*
X183467597Y-97556075D01*
X183648864Y-97520019D01*
X183709286Y-97508000D01*
X183955714Y-97508000D01*
X184016135Y-97520019D01*
X184016135Y-97520019D01*
G37*
G36*
X157646821Y-98221313D02*
X157646824Y-98221314D01*
X157646825Y-98221314D01*
X157807239Y-98269975D01*
X157807241Y-98269976D01*
X157807244Y-98269977D01*
X157955078Y-98348995D01*
X158084659Y-98455341D01*
X158191005Y-98584922D01*
X158270023Y-98732756D01*
X158270024Y-98732759D01*
X158270025Y-98732761D01*
X158315361Y-98882214D01*
X158318687Y-98893179D01*
X158335117Y-99060000D01*
X158318687Y-99226821D01*
X158318686Y-99226824D01*
X158318686Y-99226825D01*
X158280845Y-99351571D01*
X158270023Y-99387244D01*
X158191005Y-99535078D01*
X158084659Y-99664659D01*
X157955078Y-99771005D01*
X157807244Y-99850023D01*
X157807241Y-99850024D01*
X157807239Y-99850025D01*
X157646825Y-99898686D01*
X157646824Y-99898686D01*
X157646821Y-99898687D01*
X157521804Y-99911000D01*
X157438196Y-99911000D01*
X157313179Y-99898687D01*
X157313176Y-99898686D01*
X157313175Y-99898686D01*
X157152761Y-99850025D01*
X157152759Y-99850024D01*
X157152756Y-99850023D01*
X157004922Y-99771005D01*
X156875341Y-99664659D01*
X156768995Y-99535078D01*
X156689977Y-99387244D01*
X156679156Y-99351571D01*
X156641314Y-99226825D01*
X156641314Y-99226824D01*
X156641313Y-99226821D01*
X156624883Y-99060000D01*
X156641313Y-98893179D01*
X156644639Y-98882214D01*
X156689975Y-98732761D01*
X156689976Y-98732759D01*
X156689977Y-98732756D01*
X156768995Y-98584922D01*
X156875341Y-98455341D01*
X157004922Y-98348995D01*
X157152756Y-98269977D01*
X157152759Y-98269976D01*
X157152761Y-98269975D01*
X157313175Y-98221314D01*
X157313176Y-98221314D01*
X157313179Y-98221313D01*
X157438196Y-98209000D01*
X157521804Y-98209000D01*
X157646821Y-98221313D01*
X157646821Y-98221313D01*
G37*
G36*
X150026821Y-98221313D02*
X150026824Y-98221314D01*
X150026825Y-98221314D01*
X150187239Y-98269975D01*
X150187241Y-98269976D01*
X150187244Y-98269977D01*
X150335078Y-98348995D01*
X150464659Y-98455341D01*
X150571005Y-98584922D01*
X150650023Y-98732756D01*
X150650024Y-98732759D01*
X150650025Y-98732761D01*
X150695361Y-98882214D01*
X150698687Y-98893179D01*
X150715117Y-99060000D01*
X150698687Y-99226821D01*
X150698686Y-99226824D01*
X150698686Y-99226825D01*
X150660845Y-99351571D01*
X150650023Y-99387244D01*
X150571005Y-99535078D01*
X150464659Y-99664659D01*
X150335078Y-99771005D01*
X150187244Y-99850023D01*
X150187241Y-99850024D01*
X150187239Y-99850025D01*
X150026825Y-99898686D01*
X150026824Y-99898686D01*
X150026821Y-99898687D01*
X149901804Y-99911000D01*
X149818196Y-99911000D01*
X149693179Y-99898687D01*
X149693176Y-99898686D01*
X149693175Y-99898686D01*
X149532761Y-99850025D01*
X149532759Y-99850024D01*
X149532756Y-99850023D01*
X149384922Y-99771005D01*
X149255341Y-99664659D01*
X149148995Y-99535078D01*
X149069977Y-99387244D01*
X149059156Y-99351571D01*
X149021314Y-99226825D01*
X149021314Y-99226824D01*
X149021313Y-99226821D01*
X149004883Y-99060000D01*
X149021313Y-98893179D01*
X149024639Y-98882214D01*
X149069975Y-98732761D01*
X149069976Y-98732759D01*
X149069977Y-98732756D01*
X149148995Y-98584922D01*
X149255341Y-98455341D01*
X149384922Y-98348995D01*
X149532756Y-98269977D01*
X149532759Y-98269976D01*
X149532761Y-98269975D01*
X149693175Y-98221314D01*
X149693176Y-98221314D01*
X149693179Y-98221313D01*
X149818196Y-98209000D01*
X149901804Y-98209000D01*
X150026821Y-98221313D01*
X150026821Y-98221313D01*
G37*
G36*
X150711000Y-97371000D02*
X149009000Y-97371000D01*
X149009000Y-95669000D01*
X150711000Y-95669000D01*
X150711000Y-97371000D01*
X150711000Y-97371000D01*
G37*
G36*
X157646821Y-95681313D02*
X157646824Y-95681314D01*
X157646825Y-95681314D01*
X157807239Y-95729975D01*
X157807241Y-95729976D01*
X157807244Y-95729977D01*
X157955078Y-95808995D01*
X158084659Y-95915341D01*
X158191005Y-96044922D01*
X158270023Y-96192756D01*
X158318687Y-96353179D01*
X158335117Y-96520000D01*
X158318687Y-96686821D01*
X158270023Y-96847244D01*
X158191005Y-96995078D01*
X158084659Y-97124659D01*
X157955078Y-97231005D01*
X157807244Y-97310023D01*
X157807241Y-97310024D01*
X157807239Y-97310025D01*
X157646825Y-97358686D01*
X157646824Y-97358686D01*
X157646821Y-97358687D01*
X157521804Y-97371000D01*
X157438196Y-97371000D01*
X157313179Y-97358687D01*
X157313176Y-97358686D01*
X157313175Y-97358686D01*
X157152761Y-97310025D01*
X157152759Y-97310024D01*
X157152756Y-97310023D01*
X157004922Y-97231005D01*
X156875341Y-97124659D01*
X156768995Y-96995078D01*
X156689977Y-96847244D01*
X156641313Y-96686821D01*
X156624883Y-96520000D01*
X156641313Y-96353179D01*
X156689977Y-96192756D01*
X156768995Y-96044922D01*
X156875341Y-95915341D01*
X157004922Y-95808995D01*
X157152756Y-95729977D01*
X157152759Y-95729976D01*
X157152761Y-95729975D01*
X157313175Y-95681314D01*
X157313176Y-95681314D01*
X157313179Y-95681313D01*
X157438196Y-95669000D01*
X157521804Y-95669000D01*
X157646821Y-95681313D01*
X157646821Y-95681313D01*
G37*
G36*
X201648905Y-93141289D02*
X201947350Y-93200653D01*
X202275122Y-93336421D01*
X202570109Y-93533525D01*
X202820975Y-93784391D01*
X203018079Y-94079378D01*
X203153847Y-94407150D01*
X203223060Y-94755111D01*
X203223060Y-95109889D01*
X203153847Y-95457850D01*
X203018079Y-95785622D01*
X202820975Y-96080609D01*
X202570109Y-96331475D01*
X202275122Y-96528579D01*
X201947350Y-96664347D01*
X201648905Y-96723711D01*
X201599390Y-96733560D01*
X201244610Y-96733560D01*
X201195095Y-96723711D01*
X200896650Y-96664347D01*
X200568878Y-96528579D01*
X200273891Y-96331475D01*
X200023025Y-96080609D01*
X199825921Y-95785622D01*
X199690153Y-95457850D01*
X199620940Y-95109889D01*
X199620940Y-94755111D01*
X199690153Y-94407150D01*
X199825921Y-94079378D01*
X200023025Y-93784391D01*
X200273891Y-93533525D01*
X200568878Y-93336421D01*
X200896650Y-93200653D01*
X201195095Y-93141289D01*
X201244610Y-93131440D01*
X201599390Y-93131440D01*
X201648905Y-93141289D01*
X201648905Y-93141289D01*
G37*
G36*
X190875256Y-92371298D02*
X190981579Y-92392447D01*
X191194037Y-92480450D01*
X191221627Y-92491878D01*
X191282042Y-92516903D01*
X191548852Y-92695180D01*
X191552454Y-92697587D01*
X191782413Y-92927546D01*
X191782415Y-92927549D01*
X191963097Y-93197958D01*
X192087553Y-93498421D01*
X192151000Y-93817391D01*
X192151000Y-94142609D01*
X192087553Y-94461579D01*
X192074492Y-94493111D01*
X191963098Y-94762040D01*
X191782413Y-95032454D01*
X191552454Y-95262413D01*
X191552451Y-95262415D01*
X191282042Y-95443097D01*
X190981579Y-95567553D01*
X190875256Y-95588702D01*
X190662611Y-95631000D01*
X190337389Y-95631000D01*
X190124744Y-95588702D01*
X190018421Y-95567553D01*
X189717958Y-95443097D01*
X189447549Y-95262415D01*
X189447546Y-95262413D01*
X189217587Y-95032454D01*
X189036902Y-94762040D01*
X188925508Y-94493111D01*
X188912447Y-94461579D01*
X188849000Y-94142609D01*
X188849000Y-93817391D01*
X188912447Y-93498421D01*
X189036903Y-93197958D01*
X189217585Y-92927549D01*
X189217587Y-92927546D01*
X189447546Y-92697587D01*
X189451148Y-92695180D01*
X189717958Y-92516903D01*
X189778374Y-92491878D01*
X189805963Y-92480450D01*
X190018421Y-92392447D01*
X190124744Y-92371298D01*
X190337389Y-92329000D01*
X190662611Y-92329000D01*
X190875256Y-92371298D01*
X190875256Y-92371298D01*
G37*
G36*
X123226405Y-91553789D02*
X123524850Y-91613153D01*
X123852622Y-91748921D01*
X124147609Y-91946025D01*
X124398475Y-92196891D01*
X124595579Y-92491878D01*
X124731347Y-92819650D01*
X124800560Y-93167611D01*
X124800560Y-93522389D01*
X124731347Y-93870350D01*
X124595579Y-94198122D01*
X124398475Y-94493109D01*
X124147609Y-94743975D01*
X123852622Y-94941079D01*
X123524850Y-95076847D01*
X123226405Y-95136211D01*
X123176890Y-95146060D01*
X122822110Y-95146060D01*
X122772595Y-95136211D01*
X122474150Y-95076847D01*
X122146378Y-94941079D01*
X121851391Y-94743975D01*
X121600525Y-94493109D01*
X121403421Y-94198122D01*
X121267653Y-93870350D01*
X121198440Y-93522389D01*
X121198440Y-93167611D01*
X121267653Y-92819650D01*
X121403421Y-92491878D01*
X121600525Y-92196891D01*
X121851391Y-91946025D01*
X122146378Y-91748921D01*
X122474150Y-91613153D01*
X122772595Y-91553789D01*
X122822110Y-91543940D01*
X123176890Y-91543940D01*
X123226405Y-91553789D01*
X123226405Y-91553789D01*
G37*
G36*
X169872135Y-87597519D02*
X170053403Y-87633575D01*
X170281071Y-87727878D01*
X170423577Y-87823098D01*
X170485969Y-87864787D01*
X170660213Y-88039031D01*
X170660215Y-88039034D01*
X170797122Y-88243929D01*
X170891425Y-88471597D01*
X170939500Y-88713287D01*
X170939500Y-88959713D01*
X170891425Y-89201403D01*
X170797122Y-89429071D01*
X170664481Y-89627582D01*
X170660213Y-89633969D01*
X170485969Y-89808213D01*
X170485966Y-89808215D01*
X170281071Y-89945122D01*
X170053403Y-90039425D01*
X169872135Y-90075481D01*
X169811714Y-90087500D01*
X169565286Y-90087500D01*
X169504865Y-90075481D01*
X169323597Y-90039425D01*
X169095929Y-89945122D01*
X168891034Y-89808215D01*
X168891031Y-89808213D01*
X168716787Y-89633969D01*
X168712519Y-89627582D01*
X168579878Y-89429071D01*
X168485575Y-89201403D01*
X168437500Y-88959713D01*
X168437500Y-88713287D01*
X168485575Y-88471597D01*
X168579878Y-88243929D01*
X168716785Y-88039034D01*
X168716787Y-88039031D01*
X168891031Y-87864787D01*
X168953423Y-87823098D01*
X169095929Y-87727878D01*
X169323597Y-87633575D01*
X169504865Y-87597519D01*
X169565286Y-87585500D01*
X169811714Y-87585500D01*
X169872135Y-87597519D01*
X169872135Y-87597519D01*
G37*
G36*
X175939500Y-90087500D02*
X173437500Y-90087500D01*
X173437500Y-87585500D01*
X175939500Y-87585500D01*
X175939500Y-90087500D01*
X175939500Y-90087500D01*
G37*
G36*
X183715067Y-87003459D02*
X183845572Y-87029418D01*
X184091439Y-87131259D01*
X184279622Y-87257000D01*
X184312715Y-87279112D01*
X184500888Y-87467285D01*
X184500890Y-87467288D01*
X184648741Y-87688561D01*
X184750582Y-87934428D01*
X184762724Y-87995472D01*
X184802500Y-88195437D01*
X184802500Y-88461563D01*
X184776541Y-88592067D01*
X184750582Y-88722572D01*
X184648741Y-88968439D01*
X184509254Y-89177194D01*
X184500888Y-89189715D01*
X184312715Y-89377888D01*
X184312712Y-89377890D01*
X184091439Y-89525741D01*
X183845572Y-89627582D01*
X183813477Y-89633966D01*
X183584563Y-89679500D01*
X183318437Y-89679500D01*
X183089523Y-89633966D01*
X183057428Y-89627582D01*
X182811561Y-89525741D01*
X182590288Y-89377890D01*
X182590285Y-89377888D01*
X182402112Y-89189715D01*
X182393746Y-89177194D01*
X182254259Y-88968439D01*
X182152418Y-88722572D01*
X182126459Y-88592067D01*
X182100500Y-88461563D01*
X182100500Y-88195437D01*
X182140276Y-87995472D01*
X182152418Y-87934428D01*
X182254259Y-87688561D01*
X182402110Y-87467288D01*
X182402112Y-87467285D01*
X182590285Y-87279112D01*
X182623378Y-87257000D01*
X182811561Y-87131259D01*
X183057428Y-87029418D01*
X183187933Y-87003459D01*
X183318437Y-86977500D01*
X183584563Y-86977500D01*
X183715067Y-87003459D01*
X183715067Y-87003459D01*
G37*
G36*
X188715067Y-87003459D02*
X188845572Y-87029418D01*
X189091439Y-87131259D01*
X189279622Y-87257000D01*
X189312715Y-87279112D01*
X189500888Y-87467285D01*
X189500890Y-87467288D01*
X189648741Y-87688561D01*
X189750582Y-87934428D01*
X189762724Y-87995472D01*
X189802500Y-88195437D01*
X189802500Y-88461563D01*
X189776541Y-88592067D01*
X189750582Y-88722572D01*
X189648741Y-88968439D01*
X189509254Y-89177194D01*
X189500888Y-89189715D01*
X189312715Y-89377888D01*
X189312712Y-89377890D01*
X189091439Y-89525741D01*
X188845572Y-89627582D01*
X188813477Y-89633966D01*
X188584563Y-89679500D01*
X188318437Y-89679500D01*
X188089523Y-89633966D01*
X188057428Y-89627582D01*
X187811561Y-89525741D01*
X187590288Y-89377890D01*
X187590285Y-89377888D01*
X187402112Y-89189715D01*
X187393746Y-89177194D01*
X187254259Y-88968439D01*
X187152418Y-88722572D01*
X187126459Y-88592067D01*
X187100500Y-88461563D01*
X187100500Y-88195437D01*
X187140276Y-87995472D01*
X187152418Y-87934428D01*
X187254259Y-87688561D01*
X187402110Y-87467288D01*
X187402112Y-87467285D01*
X187590285Y-87279112D01*
X187623378Y-87257000D01*
X187811561Y-87131259D01*
X188057428Y-87029418D01*
X188187933Y-87003459D01*
X188318437Y-86977500D01*
X188584563Y-86977500D01*
X188715067Y-87003459D01*
X188715067Y-87003459D01*
G37*
G36*
X194900510Y-87153541D02*
X195024032Y-87165707D01*
X195222146Y-87225805D01*
X195404729Y-87323397D01*
X195564765Y-87454735D01*
X195696103Y-87614771D01*
X195793695Y-87797354D01*
X195853793Y-87995468D01*
X195874085Y-88201500D01*
X195853793Y-88407532D01*
X195793695Y-88605646D01*
X195696103Y-88788229D01*
X195564765Y-88948265D01*
X195404729Y-89079603D01*
X195222146Y-89177195D01*
X195024032Y-89237293D01*
X194900510Y-89249459D01*
X194869631Y-89252500D01*
X194766369Y-89252500D01*
X194735490Y-89249459D01*
X194611968Y-89237293D01*
X194413854Y-89177195D01*
X194231271Y-89079603D01*
X194071235Y-88948265D01*
X193939897Y-88788229D01*
X193842305Y-88605646D01*
X193782207Y-88407532D01*
X193761915Y-88201500D01*
X193782207Y-87995468D01*
X193842305Y-87797354D01*
X193939897Y-87614771D01*
X194071235Y-87454735D01*
X194231271Y-87323397D01*
X194413854Y-87225805D01*
X194611968Y-87165707D01*
X194735490Y-87153541D01*
X194766369Y-87150500D01*
X194869631Y-87150500D01*
X194900510Y-87153541D01*
X194900510Y-87153541D01*
G37*
G36*
X132455256Y-84751298D02*
X132561579Y-84772447D01*
X132862042Y-84896903D01*
X132948990Y-84955000D01*
X133132454Y-85077587D01*
X133362413Y-85307546D01*
X133362415Y-85307549D01*
X133543097Y-85577958D01*
X133667553Y-85878421D01*
X133731000Y-86197391D01*
X133731000Y-86522609D01*
X133667553Y-86841579D01*
X133601917Y-87000038D01*
X133547564Y-87131259D01*
X133543097Y-87142042D01*
X133421919Y-87323397D01*
X133362413Y-87412454D01*
X133132454Y-87642413D01*
X133132451Y-87642415D01*
X132862042Y-87823097D01*
X132561579Y-87947553D01*
X132455256Y-87968702D01*
X132242611Y-88011000D01*
X131917389Y-88011000D01*
X131704744Y-87968702D01*
X131598421Y-87947553D01*
X131297958Y-87823097D01*
X131027549Y-87642415D01*
X131027546Y-87642413D01*
X130797587Y-87412454D01*
X130738081Y-87323397D01*
X130616903Y-87142042D01*
X130612437Y-87131259D01*
X130558083Y-87000038D01*
X130492447Y-86841579D01*
X130429000Y-86522609D01*
X130429000Y-86197391D01*
X130492447Y-85878421D01*
X130616903Y-85577958D01*
X130797585Y-85307549D01*
X130797587Y-85307546D01*
X131027546Y-85077587D01*
X131211010Y-84955000D01*
X131297958Y-84896903D01*
X131598421Y-84772447D01*
X131704744Y-84751298D01*
X131917389Y-84709000D01*
X132242611Y-84709000D01*
X132455256Y-84751298D01*
X132455256Y-84751298D01*
G37*
G36*
X161054234Y-84999232D02*
X161263702Y-85085996D01*
X161452223Y-85211962D01*
X161612538Y-85372277D01*
X161738504Y-85560798D01*
X161825268Y-85770266D01*
X161869500Y-85992635D01*
X161869500Y-86219365D01*
X161825268Y-86441734D01*
X161738504Y-86651202D01*
X161612538Y-86839723D01*
X161452223Y-87000038D01*
X161263702Y-87126004D01*
X161054234Y-87212768D01*
X160831865Y-87257000D01*
X160605135Y-87257000D01*
X160382766Y-87212768D01*
X160173298Y-87126004D01*
X159984777Y-87000038D01*
X159824462Y-86839723D01*
X159698496Y-86651202D01*
X159611732Y-86441734D01*
X159567500Y-86219365D01*
X159567500Y-85992635D01*
X159611732Y-85770266D01*
X159698496Y-85560798D01*
X159824462Y-85372277D01*
X159984777Y-85211962D01*
X160173298Y-85085996D01*
X160382766Y-84999232D01*
X160605135Y-84955000D01*
X160831865Y-84955000D01*
X161054234Y-84999232D01*
X161054234Y-84999232D01*
G37*
G36*
X138054234Y-84999232D02*
X138263702Y-85085996D01*
X138452223Y-85211962D01*
X138612538Y-85372277D01*
X138738504Y-85560798D01*
X138825268Y-85770266D01*
X138869500Y-85992635D01*
X138869500Y-86219365D01*
X138825268Y-86441734D01*
X138738504Y-86651202D01*
X138612538Y-86839723D01*
X138452223Y-87000038D01*
X138263702Y-87126004D01*
X138054234Y-87212768D01*
X137831865Y-87257000D01*
X137605135Y-87257000D01*
X137382766Y-87212768D01*
X137173298Y-87126004D01*
X136984777Y-87000038D01*
X136824462Y-86839723D01*
X136698496Y-86651202D01*
X136611732Y-86441734D01*
X136567500Y-86219365D01*
X136567500Y-85992635D01*
X136611732Y-85770266D01*
X136698496Y-85560798D01*
X136824462Y-85372277D01*
X136984777Y-85211962D01*
X137173298Y-85085996D01*
X137382766Y-84999232D01*
X137605135Y-84955000D01*
X137831865Y-84955000D01*
X138054234Y-84999232D01*
X138054234Y-84999232D01*
G37*
G36*
X195869000Y-84172500D02*
X193767000Y-84172500D01*
X193767000Y-82070500D01*
X195869000Y-82070500D01*
X195869000Y-84172500D01*
X195869000Y-84172500D01*
G37*
G36*
X189761060Y-79715560D02*
X186158940Y-79715560D01*
X186158940Y-76113440D01*
X189761060Y-76113440D01*
X189761060Y-79715560D01*
X189761060Y-79715560D01*
G37*
G36*
X183106905Y-76123289D02*
X183405350Y-76182653D01*
X183733122Y-76318421D01*
X184028109Y-76515525D01*
X184278975Y-76766391D01*
X184476079Y-77061378D01*
X184611847Y-77389150D01*
X184681060Y-77737111D01*
X184681060Y-78091889D01*
X184611847Y-78439850D01*
X184476079Y-78767622D01*
X184278975Y-79062609D01*
X184028109Y-79313475D01*
X183733122Y-79510579D01*
X183405350Y-79646347D01*
X183106905Y-79705711D01*
X183057390Y-79715560D01*
X182702610Y-79715560D01*
X182653095Y-79705711D01*
X182354650Y-79646347D01*
X182026878Y-79510579D01*
X181731891Y-79313475D01*
X181481025Y-79062609D01*
X181283921Y-78767622D01*
X181148153Y-78439850D01*
X181078940Y-78091889D01*
X181078940Y-77737111D01*
X181148153Y-77389150D01*
X181283921Y-77061378D01*
X181481025Y-76766391D01*
X181731891Y-76515525D01*
X182026878Y-76318421D01*
X182354650Y-76182653D01*
X182653095Y-76123289D01*
X182702610Y-76113440D01*
X183057390Y-76113440D01*
X183106905Y-76123289D01*
X183106905Y-76123289D01*
G37*
G36*
X174323111Y-75928653D02*
X174642350Y-75992153D01*
X174970122Y-76127921D01*
X175265109Y-76325025D01*
X175515975Y-76575891D01*
X175713079Y-76870878D01*
X175848847Y-77198650D01*
X175918060Y-77546611D01*
X175918060Y-77901389D01*
X175848847Y-78249350D01*
X175713079Y-78577122D01*
X175515975Y-78872109D01*
X175265109Y-79122975D01*
X174970122Y-79320079D01*
X174642350Y-79455847D01*
X174343905Y-79515211D01*
X174294390Y-79525060D01*
X173939610Y-79525060D01*
X173890095Y-79515211D01*
X173591650Y-79455847D01*
X173263878Y-79320079D01*
X172968891Y-79122975D01*
X172718025Y-78872109D01*
X172520921Y-78577122D01*
X172385153Y-78249350D01*
X172315940Y-77901389D01*
X172315940Y-77546611D01*
X172385153Y-77198650D01*
X172520921Y-76870878D01*
X172718025Y-76575891D01*
X172968891Y-76325025D01*
X173263878Y-76127921D01*
X173591650Y-75992153D01*
X173910889Y-75928653D01*
X173939610Y-75922940D01*
X174294390Y-75922940D01*
X174323111Y-75928653D01*
X174323111Y-75928653D01*
G37*
G36*
X170838060Y-79525060D02*
X167235940Y-79525060D01*
X167235940Y-75922940D01*
X170838060Y-75922940D01*
X170838060Y-79525060D01*
X170838060Y-79525060D01*
G37*
G36*
X161059060Y-79461560D02*
X157456940Y-79461560D01*
X157456940Y-75859440D01*
X161059060Y-75859440D01*
X161059060Y-79461560D01*
X161059060Y-79461560D01*
G37*
G36*
X141882060Y-79461560D02*
X138279940Y-79461560D01*
X138279940Y-75859440D01*
X141882060Y-75859440D01*
X141882060Y-79461560D01*
X141882060Y-79461560D01*
G37*
G36*
X145387905Y-75869289D02*
X145686350Y-75928653D01*
X146014122Y-76064421D01*
X146309109Y-76261525D01*
X146559975Y-76512391D01*
X146757079Y-76807378D01*
X146892847Y-77135150D01*
X146962060Y-77483111D01*
X146962060Y-77837889D01*
X146892847Y-78185850D01*
X146757079Y-78513622D01*
X146559975Y-78808609D01*
X146309109Y-79059475D01*
X146014122Y-79256579D01*
X145686350Y-79392347D01*
X145387905Y-79451711D01*
X145338390Y-79461560D01*
X144983610Y-79461560D01*
X144934095Y-79451711D01*
X144635650Y-79392347D01*
X144307878Y-79256579D01*
X144012891Y-79059475D01*
X143762025Y-78808609D01*
X143564921Y-78513622D01*
X143429153Y-78185850D01*
X143359940Y-77837889D01*
X143359940Y-77483111D01*
X143429153Y-77135150D01*
X143564921Y-76807378D01*
X143762025Y-76512391D01*
X144012891Y-76261525D01*
X144307878Y-76064421D01*
X144635650Y-75928653D01*
X144934095Y-75869289D01*
X144983610Y-75859440D01*
X145338390Y-75859440D01*
X145387905Y-75869289D01*
X145387905Y-75869289D01*
G37*
G36*
X154404905Y-75869289D02*
X154703350Y-75928653D01*
X155031122Y-76064421D01*
X155326109Y-76261525D01*
X155576975Y-76512391D01*
X155774079Y-76807378D01*
X155909847Y-77135150D01*
X155979060Y-77483111D01*
X155979060Y-77837889D01*
X155909847Y-78185850D01*
X155774079Y-78513622D01*
X155576975Y-78808609D01*
X155326109Y-79059475D01*
X155031122Y-79256579D01*
X154703350Y-79392347D01*
X154404905Y-79451711D01*
X154355390Y-79461560D01*
X154000610Y-79461560D01*
X153951095Y-79451711D01*
X153652650Y-79392347D01*
X153324878Y-79256579D01*
X153029891Y-79059475D01*
X152779025Y-78808609D01*
X152581921Y-78513622D01*
X152446153Y-78185850D01*
X152376940Y-77837889D01*
X152376940Y-77483111D01*
X152446153Y-77135150D01*
X152581921Y-76807378D01*
X152779025Y-76512391D01*
X153029891Y-76261525D01*
X153324878Y-76064421D01*
X153652650Y-75928653D01*
X153951095Y-75869289D01*
X154000610Y-75859440D01*
X154355390Y-75859440D01*
X154404905Y-75869289D01*
X154404905Y-75869289D01*
G37*
M02*
