G04 #@! TF.GenerationSoftware,KiCad,Pcbnew,(5.0.2)-1*
G04 #@! TF.CreationDate,2021-12-13T13:30:45+03:00*
G04 #@! TF.ProjectId,tasarim,74617361-7269-46d2-9e6b-696361645f70,rev?*
G04 #@! TF.SameCoordinates,Original*
G04 #@! TF.FileFunction,Legend,Bot*
G04 #@! TF.FilePolarity,Positive*
%FSLAX46Y46*%
G04 Gerber Fmt 4.6, Leading zero omitted, Abs format (unit mm)*
G04 Created by KiCad (PCBNEW (5.0.2)-1) date 13.12.2021 13:30:45*
%MOMM*%
%LPD*%
G01*
G04 APERTURE LIST*
%ADD10C,0.300000*%
G04 APERTURE END LIST*
D10*
X180477428Y-107104571D02*
X180477428Y-105604571D01*
X179977428Y-106676000D01*
X179477428Y-105604571D01*
X179477428Y-107104571D01*
X178120285Y-106104571D02*
X178120285Y-107104571D01*
X178763142Y-106104571D02*
X178763142Y-106890285D01*
X178691714Y-107033142D01*
X178548857Y-107104571D01*
X178334571Y-107104571D01*
X178191714Y-107033142D01*
X178120285Y-106961714D01*
X177406000Y-107104571D02*
X177406000Y-105604571D01*
X176763142Y-107104571D02*
X176763142Y-106318857D01*
X176834571Y-106176000D01*
X176977428Y-106104571D01*
X177191714Y-106104571D01*
X177334571Y-106176000D01*
X177406000Y-106247428D01*
X175406000Y-107104571D02*
X175406000Y-106318857D01*
X175477428Y-106176000D01*
X175620285Y-106104571D01*
X175906000Y-106104571D01*
X176048857Y-106176000D01*
X175406000Y-107033142D02*
X175548857Y-107104571D01*
X175906000Y-107104571D01*
X176048857Y-107033142D01*
X176120285Y-106890285D01*
X176120285Y-106747428D01*
X176048857Y-106604571D01*
X175906000Y-106533142D01*
X175548857Y-106533142D01*
X175406000Y-106461714D01*
X174691714Y-107104571D02*
X174691714Y-106104571D01*
X174691714Y-106247428D02*
X174620285Y-106176000D01*
X174477428Y-106104571D01*
X174263142Y-106104571D01*
X174120285Y-106176000D01*
X174048857Y-106318857D01*
X174048857Y-107104571D01*
X174048857Y-106318857D02*
X173977428Y-106176000D01*
X173834571Y-106104571D01*
X173620285Y-106104571D01*
X173477428Y-106176000D01*
X173406000Y-106318857D01*
X173406000Y-107104571D01*
X172691714Y-107104571D02*
X172691714Y-106104571D01*
X172691714Y-106247428D02*
X172620285Y-106176000D01*
X172477428Y-106104571D01*
X172263142Y-106104571D01*
X172120285Y-106176000D01*
X172048857Y-106318857D01*
X172048857Y-107104571D01*
X172048857Y-106318857D02*
X171977428Y-106176000D01*
X171834571Y-106104571D01*
X171620285Y-106104571D01*
X171477428Y-106176000D01*
X171406000Y-106318857D01*
X171406000Y-107104571D01*
X170120285Y-107033142D02*
X170263142Y-107104571D01*
X170548857Y-107104571D01*
X170691714Y-107033142D01*
X170763142Y-106890285D01*
X170763142Y-106318857D01*
X170691714Y-106176000D01*
X170548857Y-106104571D01*
X170263142Y-106104571D01*
X170120285Y-106176000D01*
X170048857Y-106318857D01*
X170048857Y-106461714D01*
X170763142Y-106604571D01*
X169620285Y-106104571D02*
X169048857Y-106104571D01*
X169406000Y-105604571D02*
X169406000Y-106890285D01*
X169334571Y-107033142D01*
X169191714Y-107104571D01*
X169048857Y-107104571D01*
X167477428Y-106676000D02*
X166763142Y-106676000D01*
X167620285Y-107104571D02*
X167120285Y-105604571D01*
X166620285Y-107104571D01*
X165906000Y-107104571D02*
X166048857Y-107033142D01*
X166120285Y-106890285D01*
X166120285Y-105604571D01*
X165334571Y-107104571D02*
X165334571Y-106104571D01*
X165334571Y-105604571D02*
X165406000Y-105676000D01*
X165334571Y-105747428D01*
X165263142Y-105676000D01*
X165334571Y-105604571D01*
X165334571Y-105747428D01*
X163191714Y-106390285D02*
X163191714Y-107104571D01*
X163691714Y-105604571D02*
X163191714Y-106390285D01*
X162691714Y-105604571D01*
X162191714Y-107104571D02*
X162191714Y-106104571D01*
X161263142Y-107104571D02*
X161406000Y-107033142D01*
X161477428Y-106890285D01*
X161477428Y-105604571D01*
X160691714Y-107104571D02*
X160691714Y-106104571D01*
X160691714Y-106247428D02*
X160620285Y-106176000D01*
X160477428Y-106104571D01*
X160263142Y-106104571D01*
X160120285Y-106176000D01*
X160048857Y-106318857D01*
X160048857Y-107104571D01*
X160048857Y-106318857D02*
X159977428Y-106176000D01*
X159834571Y-106104571D01*
X159620285Y-106104571D01*
X159477428Y-106176000D01*
X159406000Y-106318857D01*
X159406000Y-107104571D01*
X158048857Y-107104571D02*
X158048857Y-106318857D01*
X158120285Y-106176000D01*
X158263142Y-106104571D01*
X158548857Y-106104571D01*
X158691714Y-106176000D01*
X158048857Y-107033142D02*
X158191714Y-107104571D01*
X158548857Y-107104571D01*
X158691714Y-107033142D01*
X158763142Y-106890285D01*
X158763142Y-106747428D01*
X158691714Y-106604571D01*
X158548857Y-106533142D01*
X158191714Y-106533142D01*
X158048857Y-106461714D01*
X157477428Y-106104571D02*
X156691714Y-106104571D01*
X157477428Y-107104571D01*
X156691714Y-107104571D01*
X180283714Y-104310571D02*
X180283714Y-102810571D01*
X179926571Y-102810571D01*
X179712285Y-102882000D01*
X179569428Y-103024857D01*
X179498000Y-103167714D01*
X179426571Y-103453428D01*
X179426571Y-103667714D01*
X179498000Y-103953428D01*
X179569428Y-104096285D01*
X179712285Y-104239142D01*
X179926571Y-104310571D01*
X180283714Y-104310571D01*
X178783714Y-104310571D02*
X178783714Y-103310571D01*
X178783714Y-102810571D02*
X178855142Y-102882000D01*
X178783714Y-102953428D01*
X178712285Y-102882000D01*
X178783714Y-102810571D01*
X178783714Y-102953428D01*
X177855142Y-104310571D02*
X177998000Y-104239142D01*
X178069428Y-104096285D01*
X178069428Y-102810571D01*
X176640857Y-104310571D02*
X176640857Y-103524857D01*
X176712285Y-103382000D01*
X176855142Y-103310571D01*
X177140857Y-103310571D01*
X177283714Y-103382000D01*
X176640857Y-104239142D02*
X176783714Y-104310571D01*
X177140857Y-104310571D01*
X177283714Y-104239142D01*
X177355142Y-104096285D01*
X177355142Y-103953428D01*
X177283714Y-103810571D01*
X177140857Y-103739142D01*
X176783714Y-103739142D01*
X176640857Y-103667714D01*
X175926571Y-103310571D02*
X175926571Y-104310571D01*
X175926571Y-103453428D02*
X175855142Y-103382000D01*
X175712285Y-103310571D01*
X175498000Y-103310571D01*
X175355142Y-103382000D01*
X175283714Y-103524857D01*
X175283714Y-104310571D01*
X173498000Y-104239142D02*
X173283714Y-104310571D01*
X172926571Y-104310571D01*
X172783714Y-104239142D01*
X172712285Y-104167714D01*
X172640857Y-104024857D01*
X172640857Y-103882000D01*
X172712285Y-103739142D01*
X172783714Y-103667714D01*
X172926571Y-103596285D01*
X173212285Y-103524857D01*
X173355142Y-103453428D01*
X173426571Y-103382000D01*
X173498000Y-103239142D01*
X173498000Y-103096285D01*
X173426571Y-102953428D01*
X173355142Y-102882000D01*
X173212285Y-102810571D01*
X172855142Y-102810571D01*
X172640857Y-102882000D01*
X171355142Y-103310571D02*
X171355142Y-104310571D01*
X171998000Y-103310571D02*
X171998000Y-104096285D01*
X171926571Y-104239142D01*
X171783714Y-104310571D01*
X171569428Y-104310571D01*
X171426571Y-104239142D01*
X171355142Y-104167714D01*
X169998000Y-104239142D02*
X170140857Y-104310571D01*
X170426571Y-104310571D01*
X170569428Y-104239142D01*
X170640857Y-104167714D01*
X170712285Y-104024857D01*
X170712285Y-103596285D01*
X170640857Y-103453428D01*
X170569428Y-103382000D01*
X170426571Y-103310571D01*
X170140857Y-103310571D01*
X169998000Y-103382000D01*
X168712285Y-103310571D02*
X168712285Y-104310571D01*
X169355142Y-103310571D02*
X169355142Y-104096285D01*
X169283714Y-104239142D01*
X169140857Y-104310571D01*
X168926571Y-104310571D01*
X168783714Y-104239142D01*
X168712285Y-104167714D01*
X180244000Y-100730857D02*
X179744000Y-100730857D01*
X179529714Y-101516571D02*
X180244000Y-101516571D01*
X180244000Y-100016571D01*
X179529714Y-100016571D01*
X178958285Y-101445142D02*
X178815428Y-101516571D01*
X178529714Y-101516571D01*
X178386857Y-101445142D01*
X178315428Y-101302285D01*
X178315428Y-101230857D01*
X178386857Y-101088000D01*
X178529714Y-101016571D01*
X178744000Y-101016571D01*
X178886857Y-100945142D01*
X178958285Y-100802285D01*
X178958285Y-100730857D01*
X178886857Y-100588000D01*
X178744000Y-100516571D01*
X178529714Y-100516571D01*
X178386857Y-100588000D01*
X177672571Y-101516571D02*
X177672571Y-100516571D01*
X177672571Y-100802285D02*
X177601142Y-100659428D01*
X177529714Y-100588000D01*
X177386857Y-100516571D01*
X177244000Y-100516571D01*
X176101142Y-101516571D02*
X176101142Y-100730857D01*
X176172571Y-100588000D01*
X176315428Y-100516571D01*
X176601142Y-100516571D01*
X176744000Y-100588000D01*
X176101142Y-101445142D02*
X176244000Y-101516571D01*
X176601142Y-101516571D01*
X176744000Y-101445142D01*
X176815428Y-101302285D01*
X176815428Y-101159428D01*
X176744000Y-101016571D01*
X176601142Y-100945142D01*
X176244000Y-100945142D01*
X176101142Y-100873714D01*
X173458285Y-100088000D02*
X173601142Y-100016571D01*
X173815428Y-100016571D01*
X174029714Y-100088000D01*
X174172571Y-100230857D01*
X174244000Y-100373714D01*
X174315428Y-100659428D01*
X174315428Y-100873714D01*
X174244000Y-101159428D01*
X174172571Y-101302285D01*
X174029714Y-101445142D01*
X173815428Y-101516571D01*
X173672571Y-101516571D01*
X173458285Y-101445142D01*
X173386857Y-101373714D01*
X173386857Y-100873714D01*
X173672571Y-100873714D01*
X172101142Y-100516571D02*
X172101142Y-101516571D01*
X172744000Y-100516571D02*
X172744000Y-101302285D01*
X172672571Y-101445142D01*
X172529714Y-101516571D01*
X172315428Y-101516571D01*
X172172571Y-101445142D01*
X172101142Y-101373714D01*
X172672571Y-100016571D02*
X172601142Y-100088000D01*
X172672571Y-100159428D01*
X172744000Y-100088000D01*
X172672571Y-100016571D01*
X172672571Y-100159428D01*
X172101142Y-100016571D02*
X172029714Y-100088000D01*
X172101142Y-100159428D01*
X172172571Y-100088000D01*
X172101142Y-100016571D01*
X172101142Y-100159428D01*
X171386857Y-100516571D02*
X171386857Y-101516571D01*
X171386857Y-100659428D02*
X171315428Y-100588000D01*
X171172571Y-100516571D01*
X170958285Y-100516571D01*
X170815428Y-100588000D01*
X170744000Y-100730857D01*
X170744000Y-101516571D01*
X169458285Y-101445142D02*
X169601142Y-101516571D01*
X169886857Y-101516571D01*
X170029714Y-101445142D01*
X170101142Y-101302285D01*
X170101142Y-100730857D01*
X170029714Y-100588000D01*
X169886857Y-100516571D01*
X169601142Y-100516571D01*
X169458285Y-100588000D01*
X169386857Y-100730857D01*
X169386857Y-100873714D01*
X170101142Y-101016571D01*
X168815428Y-101445142D02*
X168672571Y-101516571D01*
X168386857Y-101516571D01*
X168244000Y-101445142D01*
X168172571Y-101302285D01*
X168172571Y-101230857D01*
X168244000Y-101088000D01*
X168386857Y-101016571D01*
X168601142Y-101016571D01*
X168744000Y-100945142D01*
X168815428Y-100802285D01*
X168815428Y-100730857D01*
X168744000Y-100588000D01*
X168601142Y-100516571D01*
X168386857Y-100516571D01*
X168244000Y-100588000D01*
X168529714Y-101588000D02*
X168386857Y-101659428D01*
X168315428Y-101802285D01*
X168386857Y-101945142D01*
X168529714Y-102016571D01*
X168744000Y-102016571D01*
X180342857Y-97476571D02*
X179842857Y-98976571D01*
X179342857Y-97476571D01*
X178271428Y-98905142D02*
X178414285Y-98976571D01*
X178700000Y-98976571D01*
X178842857Y-98905142D01*
X178914285Y-98762285D01*
X178914285Y-98190857D01*
X178842857Y-98048000D01*
X178700000Y-97976571D01*
X178414285Y-97976571D01*
X178271428Y-98048000D01*
X178200000Y-98190857D01*
X178200000Y-98333714D01*
X178914285Y-98476571D01*
X177557142Y-98976571D02*
X177557142Y-97976571D01*
X177557142Y-98262285D02*
X177485714Y-98119428D01*
X177414285Y-98048000D01*
X177271428Y-97976571D01*
X177128571Y-97976571D01*
X175985714Y-98976571D02*
X175985714Y-97476571D01*
X175985714Y-98905142D02*
X176128571Y-98976571D01*
X176414285Y-98976571D01*
X176557142Y-98905142D01*
X176628571Y-98833714D01*
X176700000Y-98690857D01*
X176700000Y-98262285D01*
X176628571Y-98119428D01*
X176557142Y-98048000D01*
X176414285Y-97976571D01*
X176128571Y-97976571D01*
X175985714Y-98048000D01*
X174628571Y-98976571D02*
X174628571Y-98190857D01*
X174700000Y-98048000D01*
X174842857Y-97976571D01*
X175128571Y-97976571D01*
X175271428Y-98048000D01*
X174628571Y-98905142D02*
X174771428Y-98976571D01*
X175128571Y-98976571D01*
X175271428Y-98905142D01*
X175342857Y-98762285D01*
X175342857Y-98619428D01*
X175271428Y-98476571D01*
X175128571Y-98405142D01*
X174771428Y-98405142D01*
X174628571Y-98333714D01*
X173914285Y-97976571D02*
X173914285Y-98976571D01*
X173914285Y-98119428D02*
X173842857Y-98048000D01*
X173700000Y-97976571D01*
X173485714Y-97976571D01*
X173342857Y-98048000D01*
X173271428Y-98190857D01*
X173271428Y-98976571D01*
X171485714Y-98548000D02*
X170771428Y-98548000D01*
X171628571Y-98976571D02*
X171128571Y-97476571D01*
X170628571Y-98976571D01*
X170342857Y-97976571D02*
X169771428Y-97976571D01*
X170128571Y-97476571D02*
X170128571Y-98762285D01*
X170057142Y-98905142D01*
X169914285Y-98976571D01*
X169771428Y-98976571D01*
X168700000Y-98905142D02*
X168842857Y-98976571D01*
X169128571Y-98976571D01*
X169271428Y-98905142D01*
X169342857Y-98762285D01*
X169342857Y-98190857D01*
X169271428Y-98048000D01*
X169128571Y-97976571D01*
X168842857Y-97976571D01*
X168700000Y-98048000D01*
X168628571Y-98190857D01*
X168628571Y-98333714D01*
X169342857Y-98476571D01*
X168057142Y-98905142D02*
X167914285Y-98976571D01*
X167628571Y-98976571D01*
X167485714Y-98905142D01*
X167414285Y-98762285D01*
X167414285Y-98690857D01*
X167485714Y-98548000D01*
X167628571Y-98476571D01*
X167842857Y-98476571D01*
X167985714Y-98405142D01*
X168057142Y-98262285D01*
X168057142Y-98190857D01*
X167985714Y-98048000D01*
X167842857Y-97976571D01*
X167628571Y-97976571D01*
X167485714Y-98048000D01*
X167771428Y-99048000D02*
X167628571Y-99119428D01*
X167557142Y-99262285D01*
X167628571Y-99405142D01*
X167771428Y-99476571D01*
X167985714Y-99476571D01*
X166771428Y-98976571D02*
X166771428Y-97976571D01*
X166771428Y-98119428D02*
X166700000Y-98048000D01*
X166557142Y-97976571D01*
X166342857Y-97976571D01*
X166200000Y-98048000D01*
X166128571Y-98190857D01*
X166128571Y-98976571D01*
X166128571Y-98190857D02*
X166057142Y-98048000D01*
X165914285Y-97976571D01*
X165700000Y-97976571D01*
X165557142Y-98048000D01*
X165485714Y-98190857D01*
X165485714Y-98976571D01*
X164128571Y-98976571D02*
X164128571Y-98190857D01*
X164200000Y-98048000D01*
X164342857Y-97976571D01*
X164628571Y-97976571D01*
X164771428Y-98048000D01*
X164128571Y-98905142D02*
X164271428Y-98976571D01*
X164628571Y-98976571D01*
X164771428Y-98905142D01*
X164842857Y-98762285D01*
X164842857Y-98619428D01*
X164771428Y-98476571D01*
X164628571Y-98405142D01*
X164271428Y-98405142D01*
X164128571Y-98333714D01*
X163414285Y-97976571D02*
X163414285Y-98976571D01*
X163414285Y-98119428D02*
X163342857Y-98048000D01*
X163200000Y-97976571D01*
X162985714Y-97976571D01*
X162842857Y-98048000D01*
X162771428Y-98190857D01*
X162771428Y-98976571D01*
X191645714Y-85768571D02*
X191645714Y-84268571D01*
X191288571Y-84268571D01*
X191074285Y-84340000D01*
X190931428Y-84482857D01*
X190860000Y-84625714D01*
X190788571Y-84911428D01*
X190788571Y-85125714D01*
X190860000Y-85411428D01*
X190931428Y-85554285D01*
X191074285Y-85697142D01*
X191288571Y-85768571D01*
X191645714Y-85768571D01*
X189288571Y-85625714D02*
X189360000Y-85697142D01*
X189574285Y-85768571D01*
X189717142Y-85768571D01*
X189931428Y-85697142D01*
X190074285Y-85554285D01*
X190145714Y-85411428D01*
X190217142Y-85125714D01*
X190217142Y-84911428D01*
X190145714Y-84625714D01*
X190074285Y-84482857D01*
X189931428Y-84340000D01*
X189717142Y-84268571D01*
X189574285Y-84268571D01*
X189360000Y-84340000D01*
X189288571Y-84411428D01*
X188645714Y-85197142D02*
X187502857Y-85197142D01*
X186788571Y-85768571D02*
X186788571Y-84268571D01*
X186431428Y-84268571D01*
X186217142Y-84340000D01*
X186074285Y-84482857D01*
X186002857Y-84625714D01*
X185931428Y-84911428D01*
X185931428Y-85125714D01*
X186002857Y-85411428D01*
X186074285Y-85554285D01*
X186217142Y-85697142D01*
X186431428Y-85768571D01*
X186788571Y-85768571D01*
X184431428Y-85625714D02*
X184502857Y-85697142D01*
X184717142Y-85768571D01*
X184860000Y-85768571D01*
X185074285Y-85697142D01*
X185217142Y-85554285D01*
X185288571Y-85411428D01*
X185360000Y-85125714D01*
X185360000Y-84911428D01*
X185288571Y-84625714D01*
X185217142Y-84482857D01*
X185074285Y-84340000D01*
X184860000Y-84268571D01*
X184717142Y-84268571D01*
X184502857Y-84340000D01*
X184431428Y-84411428D01*
X181788571Y-85625714D02*
X181860000Y-85697142D01*
X182074285Y-85768571D01*
X182217142Y-85768571D01*
X182431428Y-85697142D01*
X182574285Y-85554285D01*
X182645714Y-85411428D01*
X182717142Y-85125714D01*
X182717142Y-84911428D01*
X182645714Y-84625714D01*
X182574285Y-84482857D01*
X182431428Y-84340000D01*
X182217142Y-84268571D01*
X182074285Y-84268571D01*
X181860000Y-84340000D01*
X181788571Y-84411428D01*
X180931428Y-85768571D02*
X181074285Y-85697142D01*
X181145714Y-85625714D01*
X181217142Y-85482857D01*
X181217142Y-85054285D01*
X181145714Y-84911428D01*
X181074285Y-84840000D01*
X180931428Y-84768571D01*
X180717142Y-84768571D01*
X180574285Y-84840000D01*
X180502857Y-84911428D01*
X180431428Y-85054285D01*
X180431428Y-85482857D01*
X180502857Y-85625714D01*
X180574285Y-85697142D01*
X180717142Y-85768571D01*
X180931428Y-85768571D01*
X179788571Y-84768571D02*
X179788571Y-85768571D01*
X179788571Y-84911428D02*
X179717142Y-84840000D01*
X179574285Y-84768571D01*
X179360000Y-84768571D01*
X179217142Y-84840000D01*
X179145714Y-84982857D01*
X179145714Y-85768571D01*
X178574285Y-84768571D02*
X178217142Y-85768571D01*
X177860000Y-84768571D01*
X176717142Y-85697142D02*
X176860000Y-85768571D01*
X177145714Y-85768571D01*
X177288571Y-85697142D01*
X177360000Y-85554285D01*
X177360000Y-84982857D01*
X177288571Y-84840000D01*
X177145714Y-84768571D01*
X176860000Y-84768571D01*
X176717142Y-84840000D01*
X176645714Y-84982857D01*
X176645714Y-85125714D01*
X177360000Y-85268571D01*
X176002857Y-85768571D02*
X176002857Y-84768571D01*
X176002857Y-85054285D02*
X175931428Y-84911428D01*
X175860000Y-84840000D01*
X175717142Y-84768571D01*
X175574285Y-84768571D01*
X175288571Y-84768571D02*
X174717142Y-84768571D01*
X175074285Y-84268571D02*
X175074285Y-85554285D01*
X175002857Y-85697142D01*
X174860000Y-85768571D01*
X174717142Y-85768571D01*
X173645714Y-85697142D02*
X173788571Y-85768571D01*
X174074285Y-85768571D01*
X174217142Y-85697142D01*
X174288571Y-85554285D01*
X174288571Y-84982857D01*
X174217142Y-84840000D01*
X174074285Y-84768571D01*
X173788571Y-84768571D01*
X173645714Y-84840000D01*
X173574285Y-84982857D01*
X173574285Y-85125714D01*
X174288571Y-85268571D01*
X172931428Y-85768571D02*
X172931428Y-84768571D01*
X172931428Y-85054285D02*
X172860000Y-84911428D01*
X172788571Y-84840000D01*
X172645714Y-84768571D01*
X172502857Y-84768571D01*
X191700000Y-81871428D02*
X191628571Y-81800000D01*
X191485714Y-81728571D01*
X191128571Y-81728571D01*
X190985714Y-81800000D01*
X190914285Y-81871428D01*
X190842857Y-82014285D01*
X190842857Y-82157142D01*
X190914285Y-82371428D01*
X191771428Y-83228571D01*
X190842857Y-83228571D01*
X189914285Y-81728571D02*
X189771428Y-81728571D01*
X189628571Y-81800000D01*
X189557142Y-81871428D01*
X189485714Y-82014285D01*
X189414285Y-82300000D01*
X189414285Y-82657142D01*
X189485714Y-82942857D01*
X189557142Y-83085714D01*
X189628571Y-83157142D01*
X189771428Y-83228571D01*
X189914285Y-83228571D01*
X190057142Y-83157142D01*
X190128571Y-83085714D01*
X190200000Y-82942857D01*
X190271428Y-82657142D01*
X190271428Y-82300000D01*
X190200000Y-82014285D01*
X190128571Y-81871428D01*
X190057142Y-81800000D01*
X189914285Y-81728571D01*
X188842857Y-81871428D02*
X188771428Y-81800000D01*
X188628571Y-81728571D01*
X188271428Y-81728571D01*
X188128571Y-81800000D01*
X188057142Y-81871428D01*
X187985714Y-82014285D01*
X187985714Y-82157142D01*
X188057142Y-82371428D01*
X188914285Y-83228571D01*
X187985714Y-83228571D01*
X186557142Y-83228571D02*
X187414285Y-83228571D01*
X186985714Y-83228571D02*
X186985714Y-81728571D01*
X187128571Y-81942857D01*
X187271428Y-82085714D01*
X187414285Y-82157142D01*
X184771428Y-82657142D02*
X183628571Y-82657142D01*
X181842857Y-81871428D02*
X181771428Y-81800000D01*
X181628571Y-81728571D01*
X181271428Y-81728571D01*
X181128571Y-81800000D01*
X181057142Y-81871428D01*
X180985714Y-82014285D01*
X180985714Y-82157142D01*
X181057142Y-82371428D01*
X181914285Y-83228571D01*
X180985714Y-83228571D01*
X180057142Y-81728571D02*
X179914285Y-81728571D01*
X179771428Y-81800000D01*
X179700000Y-81871428D01*
X179628571Y-82014285D01*
X179557142Y-82300000D01*
X179557142Y-82657142D01*
X179628571Y-82942857D01*
X179700000Y-83085714D01*
X179771428Y-83157142D01*
X179914285Y-83228571D01*
X180057142Y-83228571D01*
X180200000Y-83157142D01*
X180271428Y-83085714D01*
X180342857Y-82942857D01*
X180414285Y-82657142D01*
X180414285Y-82300000D01*
X180342857Y-82014285D01*
X180271428Y-81871428D01*
X180200000Y-81800000D01*
X180057142Y-81728571D01*
X178985714Y-81871428D02*
X178914285Y-81800000D01*
X178771428Y-81728571D01*
X178414285Y-81728571D01*
X178271428Y-81800000D01*
X178200000Y-81871428D01*
X178128571Y-82014285D01*
X178128571Y-82157142D01*
X178200000Y-82371428D01*
X179057142Y-83228571D01*
X178128571Y-83228571D01*
X177557142Y-81871428D02*
X177485714Y-81800000D01*
X177342857Y-81728571D01*
X176985714Y-81728571D01*
X176842857Y-81800000D01*
X176771428Y-81871428D01*
X176700000Y-82014285D01*
X176700000Y-82157142D01*
X176771428Y-82371428D01*
X177628571Y-83228571D01*
X176700000Y-83228571D01*
X175128571Y-81728571D02*
X174271428Y-81728571D01*
X174700000Y-83228571D02*
X174700000Y-81728571D01*
X173128571Y-83228571D02*
X173128571Y-82442857D01*
X173200000Y-82300000D01*
X173342857Y-82228571D01*
X173628571Y-82228571D01*
X173771428Y-82300000D01*
X173128571Y-83157142D02*
X173271428Y-83228571D01*
X173628571Y-83228571D01*
X173771428Y-83157142D01*
X173842857Y-83014285D01*
X173842857Y-82871428D01*
X173771428Y-82728571D01*
X173628571Y-82657142D01*
X173271428Y-82657142D01*
X173128571Y-82585714D01*
X172485714Y-83157142D02*
X172342857Y-83228571D01*
X172057142Y-83228571D01*
X171914285Y-83157142D01*
X171842857Y-83014285D01*
X171842857Y-82942857D01*
X171914285Y-82800000D01*
X172057142Y-82728571D01*
X172271428Y-82728571D01*
X172414285Y-82657142D01*
X172485714Y-82514285D01*
X172485714Y-82442857D01*
X172414285Y-82300000D01*
X172271428Y-82228571D01*
X172057142Y-82228571D01*
X171914285Y-82300000D01*
X170557142Y-83228571D02*
X170557142Y-82442857D01*
X170628571Y-82300000D01*
X170771428Y-82228571D01*
X171057142Y-82228571D01*
X171200000Y-82300000D01*
X170557142Y-83157142D02*
X170700000Y-83228571D01*
X171057142Y-83228571D01*
X171200000Y-83157142D01*
X171271428Y-83014285D01*
X171271428Y-82871428D01*
X171200000Y-82728571D01*
X171057142Y-82657142D01*
X170700000Y-82657142D01*
X170557142Y-82585714D01*
X169842857Y-83228571D02*
X169842857Y-82228571D01*
X169842857Y-82514285D02*
X169771428Y-82371428D01*
X169700000Y-82300000D01*
X169557142Y-82228571D01*
X169414285Y-82228571D01*
X168914285Y-83228571D02*
X168914285Y-82228571D01*
X168200000Y-83228571D02*
X168200000Y-82228571D01*
X168200000Y-82371428D02*
X168128571Y-82300000D01*
X167985714Y-82228571D01*
X167771428Y-82228571D01*
X167628571Y-82300000D01*
X167557142Y-82442857D01*
X167557142Y-83228571D01*
X167557142Y-82442857D02*
X167485714Y-82300000D01*
X167342857Y-82228571D01*
X167128571Y-82228571D01*
X166985714Y-82300000D01*
X166914285Y-82442857D01*
X166914285Y-83228571D01*
X165057142Y-83228571D02*
X165057142Y-81728571D01*
X164700000Y-81728571D01*
X164485714Y-81800000D01*
X164342857Y-81942857D01*
X164271428Y-82085714D01*
X164200000Y-82371428D01*
X164200000Y-82585714D01*
X164271428Y-82871428D01*
X164342857Y-83014285D01*
X164485714Y-83157142D01*
X164700000Y-83228571D01*
X165057142Y-83228571D01*
X162985714Y-83157142D02*
X163128571Y-83228571D01*
X163414285Y-83228571D01*
X163557142Y-83157142D01*
X163628571Y-83014285D01*
X163628571Y-82442857D01*
X163557142Y-82300000D01*
X163414285Y-82228571D01*
X163128571Y-82228571D01*
X162985714Y-82300000D01*
X162914285Y-82442857D01*
X162914285Y-82585714D01*
X163628571Y-82728571D01*
X162271428Y-83228571D02*
X162271428Y-82228571D01*
X162271428Y-82514285D02*
X162200000Y-82371428D01*
X162128571Y-82300000D01*
X161985714Y-82228571D01*
X161842857Y-82228571D01*
X161414285Y-83157142D02*
X161271428Y-83228571D01*
X160985714Y-83228571D01*
X160842857Y-83157142D01*
X160771428Y-83014285D01*
X160771428Y-82942857D01*
X160842857Y-82800000D01*
X160985714Y-82728571D01*
X161200000Y-82728571D01*
X161342857Y-82657142D01*
X161414285Y-82514285D01*
X161414285Y-82442857D01*
X161342857Y-82300000D01*
X161200000Y-82228571D01*
X160985714Y-82228571D01*
X160842857Y-82300000D01*
X160128571Y-83228571D02*
X160128571Y-82228571D01*
X160128571Y-81728571D02*
X160200000Y-81800000D01*
X160128571Y-81871428D01*
X160057142Y-81800000D01*
X160128571Y-81728571D01*
X160128571Y-81871428D01*
X158271428Y-83228571D02*
X158271428Y-81728571D01*
X157700000Y-81728571D01*
X157557142Y-81800000D01*
X157485714Y-81871428D01*
X157414285Y-82014285D01*
X157414285Y-82228571D01*
X157485714Y-82371428D01*
X157557142Y-82442857D01*
X157700000Y-82514285D01*
X158271428Y-82514285D01*
X156771428Y-83228571D02*
X156771428Y-82228571D01*
X156771428Y-82514285D02*
X156700000Y-82371428D01*
X156628571Y-82300000D01*
X156485714Y-82228571D01*
X156342857Y-82228571D01*
X155628571Y-83228571D02*
X155771428Y-83157142D01*
X155842857Y-83085714D01*
X155914285Y-82942857D01*
X155914285Y-82514285D01*
X155842857Y-82371428D01*
X155771428Y-82300000D01*
X155628571Y-82228571D01*
X155414285Y-82228571D01*
X155271428Y-82300000D01*
X155200000Y-82371428D01*
X155128571Y-82514285D01*
X155128571Y-82942857D01*
X155200000Y-83085714D01*
X155271428Y-83157142D01*
X155414285Y-83228571D01*
X155628571Y-83228571D01*
X154485714Y-82228571D02*
X154485714Y-83514285D01*
X154557142Y-83657142D01*
X154700000Y-83728571D01*
X154771428Y-83728571D01*
X154485714Y-81728571D02*
X154557142Y-81800000D01*
X154485714Y-81871428D01*
X154414285Y-81800000D01*
X154485714Y-81728571D01*
X154485714Y-81871428D01*
X153200000Y-83157142D02*
X153342857Y-83228571D01*
X153628571Y-83228571D01*
X153771428Y-83157142D01*
X153842857Y-83014285D01*
X153842857Y-82442857D01*
X153771428Y-82300000D01*
X153628571Y-82228571D01*
X153342857Y-82228571D01*
X153200000Y-82300000D01*
X153128571Y-82442857D01*
X153128571Y-82585714D01*
X153842857Y-82728571D01*
X152557142Y-83157142D02*
X152414285Y-83228571D01*
X152128571Y-83228571D01*
X151985714Y-83157142D01*
X151914285Y-83014285D01*
X151914285Y-82942857D01*
X151985714Y-82800000D01*
X152128571Y-82728571D01*
X152342857Y-82728571D01*
X152485714Y-82657142D01*
X152557142Y-82514285D01*
X152557142Y-82442857D01*
X152485714Y-82300000D01*
X152342857Y-82228571D01*
X152128571Y-82228571D01*
X151985714Y-82300000D01*
X151271428Y-83228571D02*
X151271428Y-82228571D01*
X151271428Y-81728571D02*
X151342857Y-81800000D01*
X151271428Y-81871428D01*
X151200000Y-81800000D01*
X151271428Y-81728571D01*
X151271428Y-81871428D01*
X180366857Y-95166571D02*
X180366857Y-93666571D01*
X179509714Y-95166571D02*
X180152571Y-94309428D01*
X179509714Y-93666571D02*
X180366857Y-94523714D01*
X178224000Y-94166571D02*
X178224000Y-95166571D01*
X178866857Y-94166571D02*
X178866857Y-94952285D01*
X178795428Y-95095142D01*
X178652571Y-95166571D01*
X178438285Y-95166571D01*
X178295428Y-95095142D01*
X178224000Y-95023714D01*
X177509714Y-95166571D02*
X177509714Y-94166571D01*
X177509714Y-94452285D02*
X177438285Y-94309428D01*
X177366857Y-94238000D01*
X177224000Y-94166571D01*
X177081142Y-94166571D01*
X176795428Y-94166571D02*
X176224000Y-94166571D01*
X176581142Y-93666571D02*
X176581142Y-94952285D01*
X176509714Y-95095142D01*
X176366857Y-95166571D01*
X176224000Y-95166571D01*
X175509714Y-95166571D02*
X175652571Y-95095142D01*
X175724000Y-94952285D01*
X175724000Y-93666571D01*
X174295428Y-95166571D02*
X174295428Y-94380857D01*
X174366857Y-94238000D01*
X174509714Y-94166571D01*
X174795428Y-94166571D01*
X174938285Y-94238000D01*
X174295428Y-95095142D02*
X174438285Y-95166571D01*
X174795428Y-95166571D01*
X174938285Y-95095142D01*
X175009714Y-94952285D01*
X175009714Y-94809428D01*
X174938285Y-94666571D01*
X174795428Y-94595142D01*
X174438285Y-94595142D01*
X174295428Y-94523714D01*
X173581142Y-95166571D02*
X173581142Y-94166571D01*
X173581142Y-94452285D02*
X173509714Y-94309428D01*
X173438285Y-94238000D01*
X173295428Y-94166571D01*
X173152571Y-94166571D01*
X171724000Y-93666571D02*
X171224000Y-95166571D01*
X170724000Y-93666571D01*
X169581142Y-95166571D02*
X169581142Y-94380857D01*
X169652571Y-94238000D01*
X169795428Y-94166571D01*
X170081142Y-94166571D01*
X170224000Y-94238000D01*
X169581142Y-95095142D02*
X169724000Y-95166571D01*
X170081142Y-95166571D01*
X170224000Y-95095142D01*
X170295428Y-94952285D01*
X170295428Y-94809428D01*
X170224000Y-94666571D01*
X170081142Y-94595142D01*
X169724000Y-94595142D01*
X169581142Y-94523714D01*
X168224000Y-95166571D02*
X168224000Y-93666571D01*
X168224000Y-95095142D02*
X168366857Y-95166571D01*
X168652571Y-95166571D01*
X168795428Y-95095142D01*
X168866857Y-95023714D01*
X168938285Y-94880857D01*
X168938285Y-94452285D01*
X168866857Y-94309428D01*
X168795428Y-94238000D01*
X168652571Y-94166571D01*
X168366857Y-94166571D01*
X168224000Y-94238000D01*
X167509714Y-95166571D02*
X167509714Y-94166571D01*
X167509714Y-93666571D02*
X167581142Y-93738000D01*
X167509714Y-93809428D01*
X167438285Y-93738000D01*
X167509714Y-93666571D01*
X167509714Y-93809428D01*
X166866857Y-95095142D02*
X166724000Y-95166571D01*
X166438285Y-95166571D01*
X166295428Y-95095142D01*
X166224000Y-94952285D01*
X166224000Y-94880857D01*
X166295428Y-94738000D01*
X166438285Y-94666571D01*
X166652571Y-94666571D01*
X166795428Y-94595142D01*
X166866857Y-94452285D01*
X166866857Y-94380857D01*
X166795428Y-94238000D01*
X166652571Y-94166571D01*
X166438285Y-94166571D01*
X166295428Y-94238000D01*
X165581142Y-95166571D02*
X165581142Y-94166571D01*
X165581142Y-93666571D02*
X165652571Y-93738000D01*
X165581142Y-93809428D01*
X165509714Y-93738000D01*
X165581142Y-93666571D01*
X165581142Y-93809428D01*
M02*
