G04 #@! TF.GenerationSoftware,KiCad,Pcbnew,(5.0.2)-1*
G04 #@! TF.CreationDate,2021-12-13T13:30:45+03:00*
G04 #@! TF.ProjectId,tasarim,74617361-7269-46d2-9e6b-696361645f70,rev?*
G04 #@! TF.SameCoordinates,Original*
G04 #@! TF.FileFunction,Copper,L1,Top*
G04 #@! TF.FilePolarity,Positive*
%FSLAX46Y46*%
G04 Gerber Fmt 4.6, Leading zero omitted, Abs format (unit mm)*
G04 Created by KiCad (PCBNEW (5.0.2)-1) date 13.12.2021 13:30:45*
%MOMM*%
%LPD*%
G01*
G04 APERTURE LIST*
G04 #@! TA.AperFunction,ComponentPad*
%ADD10R,1.600000X1.600000*%
G04 #@! TD*
G04 #@! TA.AperFunction,ComponentPad*
%ADD11O,1.600000X1.600000*%
G04 #@! TD*
G04 #@! TA.AperFunction,ComponentPad*
%ADD12C,2.400000*%
G04 #@! TD*
G04 #@! TA.AperFunction,ComponentPad*
%ADD13R,2.400000X2.400000*%
G04 #@! TD*
G04 #@! TA.AperFunction,Conductor*
%ADD14C,0.100000*%
G04 #@! TD*
G04 #@! TA.AperFunction,SMDPad,CuDef*
%ADD15C,1.425000*%
G04 #@! TD*
G04 #@! TA.AperFunction,ComponentPad*
%ADD16R,2.000000X2.000000*%
G04 #@! TD*
G04 #@! TA.AperFunction,ComponentPad*
%ADD17O,2.000000X2.000000*%
G04 #@! TD*
G04 #@! TA.AperFunction,ComponentPad*
%ADD18C,2.200000*%
G04 #@! TD*
G04 #@! TA.AperFunction,ComponentPad*
%ADD19C,3.500120*%
G04 #@! TD*
G04 #@! TA.AperFunction,ComponentPad*
%ADD20R,3.500120X3.500120*%
G04 #@! TD*
G04 #@! TA.AperFunction,ComponentPad*
%ADD21C,2.600000*%
G04 #@! TD*
G04 #@! TA.AperFunction,ComponentPad*
%ADD22R,1.905000X2.000000*%
G04 #@! TD*
G04 #@! TA.AperFunction,ComponentPad*
%ADD23O,1.905000X2.000000*%
G04 #@! TD*
G04 #@! TA.AperFunction,ComponentPad*
%ADD24C,2.800000*%
G04 #@! TD*
G04 #@! TA.AperFunction,ComponentPad*
%ADD25O,2.800000X2.800000*%
G04 #@! TD*
G04 #@! TA.AperFunction,ViaPad*
%ADD26C,2.000000*%
G04 #@! TD*
G04 #@! TA.AperFunction,ViaPad*
%ADD27C,1.400000*%
G04 #@! TD*
G04 #@! TA.AperFunction,ViaPad*
%ADD28C,0.800000*%
G04 #@! TD*
G04 #@! TA.AperFunction,Conductor*
%ADD29C,0.750000*%
G04 #@! TD*
G04 #@! TA.AperFunction,Conductor*
%ADD30C,2.000000*%
G04 #@! TD*
G04 #@! TA.AperFunction,Conductor*
%ADD31C,1.000000*%
G04 #@! TD*
G04 #@! TA.AperFunction,Conductor*
%ADD32C,0.800000*%
G04 #@! TD*
G04 APERTURE END LIST*
D10*
G04 #@! TO.P,U1,1*
G04 #@! TO.N,Net-(C2-Pad1)*
X149860000Y-96520000D03*
D11*
G04 #@! TO.P,U1,5*
G04 #@! TO.N,GNDREF*
X157480000Y-104140000D03*
G04 #@! TO.P,U1,2*
G04 #@! TO.N,Net-(R1-Pad1)*
X149860000Y-99060000D03*
G04 #@! TO.P,U1,6*
G04 #@! TO.N,Net-(R7-Pad2)*
X157480000Y-101600000D03*
G04 #@! TO.P,U1,3*
G04 #@! TO.N,Net-(C5-Pad1)*
X149860000Y-101600000D03*
G04 #@! TO.P,U1,7*
G04 #@! TO.N,Net-(C4-Pad1)*
X157480000Y-99060000D03*
G04 #@! TO.P,U1,4*
G04 #@! TO.N,Net-(C3-Pad1)*
X149860000Y-104140000D03*
G04 #@! TO.P,U1,8*
G04 #@! TO.N,Net-(C1-Pad1)*
X157480000Y-96520000D03*
G04 #@! TD*
D12*
G04 #@! TO.P,C4,2*
G04 #@! TO.N,GNDREF*
X169688500Y-88836500D03*
D13*
G04 #@! TO.P,C4,1*
G04 #@! TO.N,Net-(C4-Pad1)*
X174688500Y-88836500D03*
G04 #@! TD*
D14*
G04 #@! TO.N,GNDREF*
G04 #@! TO.C,C1*
G36*
X132094504Y-106276704D02*
X132118773Y-106280304D01*
X132142571Y-106286265D01*
X132165671Y-106294530D01*
X132187849Y-106305020D01*
X132208893Y-106317633D01*
X132228598Y-106332247D01*
X132246777Y-106348723D01*
X132263253Y-106366902D01*
X132277867Y-106386607D01*
X132290480Y-106407651D01*
X132300970Y-106429829D01*
X132309235Y-106452929D01*
X132315196Y-106476727D01*
X132318796Y-106500996D01*
X132320000Y-106525500D01*
X132320000Y-107450500D01*
X132318796Y-107475004D01*
X132315196Y-107499273D01*
X132309235Y-107523071D01*
X132300970Y-107546171D01*
X132290480Y-107568349D01*
X132277867Y-107589393D01*
X132263253Y-107609098D01*
X132246777Y-107627277D01*
X132228598Y-107643753D01*
X132208893Y-107658367D01*
X132187849Y-107670980D01*
X132165671Y-107681470D01*
X132142571Y-107689735D01*
X132118773Y-107695696D01*
X132094504Y-107699296D01*
X132070000Y-107700500D01*
X130820000Y-107700500D01*
X130795496Y-107699296D01*
X130771227Y-107695696D01*
X130747429Y-107689735D01*
X130724329Y-107681470D01*
X130702151Y-107670980D01*
X130681107Y-107658367D01*
X130661402Y-107643753D01*
X130643223Y-107627277D01*
X130626747Y-107609098D01*
X130612133Y-107589393D01*
X130599520Y-107568349D01*
X130589030Y-107546171D01*
X130580765Y-107523071D01*
X130574804Y-107499273D01*
X130571204Y-107475004D01*
X130570000Y-107450500D01*
X130570000Y-106525500D01*
X130571204Y-106500996D01*
X130574804Y-106476727D01*
X130580765Y-106452929D01*
X130589030Y-106429829D01*
X130599520Y-106407651D01*
X130612133Y-106386607D01*
X130626747Y-106366902D01*
X130643223Y-106348723D01*
X130661402Y-106332247D01*
X130681107Y-106317633D01*
X130702151Y-106305020D01*
X130724329Y-106294530D01*
X130747429Y-106286265D01*
X130771227Y-106280304D01*
X130795496Y-106276704D01*
X130820000Y-106275500D01*
X132070000Y-106275500D01*
X132094504Y-106276704D01*
X132094504Y-106276704D01*
G37*
D15*
G04 #@! TD*
G04 #@! TO.P,C1,2*
G04 #@! TO.N,GNDREF*
X131445000Y-106988000D03*
D14*
G04 #@! TO.N,Net-(C1-Pad1)*
G04 #@! TO.C,C1*
G36*
X132094504Y-103301704D02*
X132118773Y-103305304D01*
X132142571Y-103311265D01*
X132165671Y-103319530D01*
X132187849Y-103330020D01*
X132208893Y-103342633D01*
X132228598Y-103357247D01*
X132246777Y-103373723D01*
X132263253Y-103391902D01*
X132277867Y-103411607D01*
X132290480Y-103432651D01*
X132300970Y-103454829D01*
X132309235Y-103477929D01*
X132315196Y-103501727D01*
X132318796Y-103525996D01*
X132320000Y-103550500D01*
X132320000Y-104475500D01*
X132318796Y-104500004D01*
X132315196Y-104524273D01*
X132309235Y-104548071D01*
X132300970Y-104571171D01*
X132290480Y-104593349D01*
X132277867Y-104614393D01*
X132263253Y-104634098D01*
X132246777Y-104652277D01*
X132228598Y-104668753D01*
X132208893Y-104683367D01*
X132187849Y-104695980D01*
X132165671Y-104706470D01*
X132142571Y-104714735D01*
X132118773Y-104720696D01*
X132094504Y-104724296D01*
X132070000Y-104725500D01*
X130820000Y-104725500D01*
X130795496Y-104724296D01*
X130771227Y-104720696D01*
X130747429Y-104714735D01*
X130724329Y-104706470D01*
X130702151Y-104695980D01*
X130681107Y-104683367D01*
X130661402Y-104668753D01*
X130643223Y-104652277D01*
X130626747Y-104634098D01*
X130612133Y-104614393D01*
X130599520Y-104593349D01*
X130589030Y-104571171D01*
X130580765Y-104548071D01*
X130574804Y-104524273D01*
X130571204Y-104500004D01*
X130570000Y-104475500D01*
X130570000Y-103550500D01*
X130571204Y-103525996D01*
X130574804Y-103501727D01*
X130580765Y-103477929D01*
X130589030Y-103454829D01*
X130599520Y-103432651D01*
X130612133Y-103411607D01*
X130626747Y-103391902D01*
X130643223Y-103373723D01*
X130661402Y-103357247D01*
X130681107Y-103342633D01*
X130702151Y-103330020D01*
X130724329Y-103319530D01*
X130747429Y-103311265D01*
X130771227Y-103305304D01*
X130795496Y-103301704D01*
X130820000Y-103300500D01*
X132070000Y-103300500D01*
X132094504Y-103301704D01*
X132094504Y-103301704D01*
G37*
D15*
G04 #@! TD*
G04 #@! TO.P,C1,1*
G04 #@! TO.N,Net-(C1-Pad1)*
X131445000Y-104013000D03*
D14*
G04 #@! TO.N,Net-(C2-Pad1)*
G04 #@! TO.C,C2*
G36*
X138282004Y-91836204D02*
X138306273Y-91839804D01*
X138330071Y-91845765D01*
X138353171Y-91854030D01*
X138375349Y-91864520D01*
X138396393Y-91877133D01*
X138416098Y-91891747D01*
X138434277Y-91908223D01*
X138450753Y-91926402D01*
X138465367Y-91946107D01*
X138477980Y-91967151D01*
X138488470Y-91989329D01*
X138496735Y-92012429D01*
X138502696Y-92036227D01*
X138506296Y-92060496D01*
X138507500Y-92085000D01*
X138507500Y-93335000D01*
X138506296Y-93359504D01*
X138502696Y-93383773D01*
X138496735Y-93407571D01*
X138488470Y-93430671D01*
X138477980Y-93452849D01*
X138465367Y-93473893D01*
X138450753Y-93493598D01*
X138434277Y-93511777D01*
X138416098Y-93528253D01*
X138396393Y-93542867D01*
X138375349Y-93555480D01*
X138353171Y-93565970D01*
X138330071Y-93574235D01*
X138306273Y-93580196D01*
X138282004Y-93583796D01*
X138257500Y-93585000D01*
X137332500Y-93585000D01*
X137307996Y-93583796D01*
X137283727Y-93580196D01*
X137259929Y-93574235D01*
X137236829Y-93565970D01*
X137214651Y-93555480D01*
X137193607Y-93542867D01*
X137173902Y-93528253D01*
X137155723Y-93511777D01*
X137139247Y-93493598D01*
X137124633Y-93473893D01*
X137112020Y-93452849D01*
X137101530Y-93430671D01*
X137093265Y-93407571D01*
X137087304Y-93383773D01*
X137083704Y-93359504D01*
X137082500Y-93335000D01*
X137082500Y-92085000D01*
X137083704Y-92060496D01*
X137087304Y-92036227D01*
X137093265Y-92012429D01*
X137101530Y-91989329D01*
X137112020Y-91967151D01*
X137124633Y-91946107D01*
X137139247Y-91926402D01*
X137155723Y-91908223D01*
X137173902Y-91891747D01*
X137193607Y-91877133D01*
X137214651Y-91864520D01*
X137236829Y-91854030D01*
X137259929Y-91845765D01*
X137283727Y-91839804D01*
X137307996Y-91836204D01*
X137332500Y-91835000D01*
X138257500Y-91835000D01*
X138282004Y-91836204D01*
X138282004Y-91836204D01*
G37*
D15*
G04 #@! TD*
G04 #@! TO.P,C2,1*
G04 #@! TO.N,Net-(C2-Pad1)*
X137795000Y-92710000D03*
D14*
G04 #@! TO.N,Net-(C2-Pad2)*
G04 #@! TO.C,C2*
G36*
X135307004Y-91836204D02*
X135331273Y-91839804D01*
X135355071Y-91845765D01*
X135378171Y-91854030D01*
X135400349Y-91864520D01*
X135421393Y-91877133D01*
X135441098Y-91891747D01*
X135459277Y-91908223D01*
X135475753Y-91926402D01*
X135490367Y-91946107D01*
X135502980Y-91967151D01*
X135513470Y-91989329D01*
X135521735Y-92012429D01*
X135527696Y-92036227D01*
X135531296Y-92060496D01*
X135532500Y-92085000D01*
X135532500Y-93335000D01*
X135531296Y-93359504D01*
X135527696Y-93383773D01*
X135521735Y-93407571D01*
X135513470Y-93430671D01*
X135502980Y-93452849D01*
X135490367Y-93473893D01*
X135475753Y-93493598D01*
X135459277Y-93511777D01*
X135441098Y-93528253D01*
X135421393Y-93542867D01*
X135400349Y-93555480D01*
X135378171Y-93565970D01*
X135355071Y-93574235D01*
X135331273Y-93580196D01*
X135307004Y-93583796D01*
X135282500Y-93585000D01*
X134357500Y-93585000D01*
X134332996Y-93583796D01*
X134308727Y-93580196D01*
X134284929Y-93574235D01*
X134261829Y-93565970D01*
X134239651Y-93555480D01*
X134218607Y-93542867D01*
X134198902Y-93528253D01*
X134180723Y-93511777D01*
X134164247Y-93493598D01*
X134149633Y-93473893D01*
X134137020Y-93452849D01*
X134126530Y-93430671D01*
X134118265Y-93407571D01*
X134112304Y-93383773D01*
X134108704Y-93359504D01*
X134107500Y-93335000D01*
X134107500Y-92085000D01*
X134108704Y-92060496D01*
X134112304Y-92036227D01*
X134118265Y-92012429D01*
X134126530Y-91989329D01*
X134137020Y-91967151D01*
X134149633Y-91946107D01*
X134164247Y-91926402D01*
X134180723Y-91908223D01*
X134198902Y-91891747D01*
X134218607Y-91877133D01*
X134239651Y-91864520D01*
X134261829Y-91854030D01*
X134284929Y-91845765D01*
X134308727Y-91839804D01*
X134332996Y-91836204D01*
X134357500Y-91835000D01*
X135282500Y-91835000D01*
X135307004Y-91836204D01*
X135307004Y-91836204D01*
G37*
D15*
G04 #@! TD*
G04 #@! TO.P,C2,2*
G04 #@! TO.N,Net-(C2-Pad2)*
X134820000Y-92710000D03*
D14*
G04 #@! TO.N,GNDREF*
G04 #@! TO.C,C3*
G36*
X132132004Y-109489204D02*
X132156273Y-109492804D01*
X132180071Y-109498765D01*
X132203171Y-109507030D01*
X132225349Y-109517520D01*
X132246393Y-109530133D01*
X132266098Y-109544747D01*
X132284277Y-109561223D01*
X132300753Y-109579402D01*
X132315367Y-109599107D01*
X132327980Y-109620151D01*
X132338470Y-109642329D01*
X132346735Y-109665429D01*
X132352696Y-109689227D01*
X132356296Y-109713496D01*
X132357500Y-109738000D01*
X132357500Y-110988000D01*
X132356296Y-111012504D01*
X132352696Y-111036773D01*
X132346735Y-111060571D01*
X132338470Y-111083671D01*
X132327980Y-111105849D01*
X132315367Y-111126893D01*
X132300753Y-111146598D01*
X132284277Y-111164777D01*
X132266098Y-111181253D01*
X132246393Y-111195867D01*
X132225349Y-111208480D01*
X132203171Y-111218970D01*
X132180071Y-111227235D01*
X132156273Y-111233196D01*
X132132004Y-111236796D01*
X132107500Y-111238000D01*
X131182500Y-111238000D01*
X131157996Y-111236796D01*
X131133727Y-111233196D01*
X131109929Y-111227235D01*
X131086829Y-111218970D01*
X131064651Y-111208480D01*
X131043607Y-111195867D01*
X131023902Y-111181253D01*
X131005723Y-111164777D01*
X130989247Y-111146598D01*
X130974633Y-111126893D01*
X130962020Y-111105849D01*
X130951530Y-111083671D01*
X130943265Y-111060571D01*
X130937304Y-111036773D01*
X130933704Y-111012504D01*
X130932500Y-110988000D01*
X130932500Y-109738000D01*
X130933704Y-109713496D01*
X130937304Y-109689227D01*
X130943265Y-109665429D01*
X130951530Y-109642329D01*
X130962020Y-109620151D01*
X130974633Y-109599107D01*
X130989247Y-109579402D01*
X131005723Y-109561223D01*
X131023902Y-109544747D01*
X131043607Y-109530133D01*
X131064651Y-109517520D01*
X131086829Y-109507030D01*
X131109929Y-109498765D01*
X131133727Y-109492804D01*
X131157996Y-109489204D01*
X131182500Y-109488000D01*
X132107500Y-109488000D01*
X132132004Y-109489204D01*
X132132004Y-109489204D01*
G37*
D15*
G04 #@! TD*
G04 #@! TO.P,C3,2*
G04 #@! TO.N,GNDREF*
X131645000Y-110363000D03*
D14*
G04 #@! TO.N,Net-(C3-Pad1)*
G04 #@! TO.C,C3*
G36*
X135107004Y-109489204D02*
X135131273Y-109492804D01*
X135155071Y-109498765D01*
X135178171Y-109507030D01*
X135200349Y-109517520D01*
X135221393Y-109530133D01*
X135241098Y-109544747D01*
X135259277Y-109561223D01*
X135275753Y-109579402D01*
X135290367Y-109599107D01*
X135302980Y-109620151D01*
X135313470Y-109642329D01*
X135321735Y-109665429D01*
X135327696Y-109689227D01*
X135331296Y-109713496D01*
X135332500Y-109738000D01*
X135332500Y-110988000D01*
X135331296Y-111012504D01*
X135327696Y-111036773D01*
X135321735Y-111060571D01*
X135313470Y-111083671D01*
X135302980Y-111105849D01*
X135290367Y-111126893D01*
X135275753Y-111146598D01*
X135259277Y-111164777D01*
X135241098Y-111181253D01*
X135221393Y-111195867D01*
X135200349Y-111208480D01*
X135178171Y-111218970D01*
X135155071Y-111227235D01*
X135131273Y-111233196D01*
X135107004Y-111236796D01*
X135082500Y-111238000D01*
X134157500Y-111238000D01*
X134132996Y-111236796D01*
X134108727Y-111233196D01*
X134084929Y-111227235D01*
X134061829Y-111218970D01*
X134039651Y-111208480D01*
X134018607Y-111195867D01*
X133998902Y-111181253D01*
X133980723Y-111164777D01*
X133964247Y-111146598D01*
X133949633Y-111126893D01*
X133937020Y-111105849D01*
X133926530Y-111083671D01*
X133918265Y-111060571D01*
X133912304Y-111036773D01*
X133908704Y-111012504D01*
X133907500Y-110988000D01*
X133907500Y-109738000D01*
X133908704Y-109713496D01*
X133912304Y-109689227D01*
X133918265Y-109665429D01*
X133926530Y-109642329D01*
X133937020Y-109620151D01*
X133949633Y-109599107D01*
X133964247Y-109579402D01*
X133980723Y-109561223D01*
X133998902Y-109544747D01*
X134018607Y-109530133D01*
X134039651Y-109517520D01*
X134061829Y-109507030D01*
X134084929Y-109498765D01*
X134108727Y-109492804D01*
X134132996Y-109489204D01*
X134157500Y-109488000D01*
X135082500Y-109488000D01*
X135107004Y-109489204D01*
X135107004Y-109489204D01*
G37*
D15*
G04 #@! TD*
G04 #@! TO.P,C3,1*
G04 #@! TO.N,Net-(C3-Pad1)*
X134620000Y-110363000D03*
D14*
G04 #@! TO.N,Net-(C5-Pad1)*
G04 #@! TO.C,C5*
G36*
X152252004Y-110886204D02*
X152276273Y-110889804D01*
X152300071Y-110895765D01*
X152323171Y-110904030D01*
X152345349Y-110914520D01*
X152366393Y-110927133D01*
X152386098Y-110941747D01*
X152404277Y-110958223D01*
X152420753Y-110976402D01*
X152435367Y-110996107D01*
X152447980Y-111017151D01*
X152458470Y-111039329D01*
X152466735Y-111062429D01*
X152472696Y-111086227D01*
X152476296Y-111110496D01*
X152477500Y-111135000D01*
X152477500Y-112385000D01*
X152476296Y-112409504D01*
X152472696Y-112433773D01*
X152466735Y-112457571D01*
X152458470Y-112480671D01*
X152447980Y-112502849D01*
X152435367Y-112523893D01*
X152420753Y-112543598D01*
X152404277Y-112561777D01*
X152386098Y-112578253D01*
X152366393Y-112592867D01*
X152345349Y-112605480D01*
X152323171Y-112615970D01*
X152300071Y-112624235D01*
X152276273Y-112630196D01*
X152252004Y-112633796D01*
X152227500Y-112635000D01*
X151302500Y-112635000D01*
X151277996Y-112633796D01*
X151253727Y-112630196D01*
X151229929Y-112624235D01*
X151206829Y-112615970D01*
X151184651Y-112605480D01*
X151163607Y-112592867D01*
X151143902Y-112578253D01*
X151125723Y-112561777D01*
X151109247Y-112543598D01*
X151094633Y-112523893D01*
X151082020Y-112502849D01*
X151071530Y-112480671D01*
X151063265Y-112457571D01*
X151057304Y-112433773D01*
X151053704Y-112409504D01*
X151052500Y-112385000D01*
X151052500Y-111135000D01*
X151053704Y-111110496D01*
X151057304Y-111086227D01*
X151063265Y-111062429D01*
X151071530Y-111039329D01*
X151082020Y-111017151D01*
X151094633Y-110996107D01*
X151109247Y-110976402D01*
X151125723Y-110958223D01*
X151143902Y-110941747D01*
X151163607Y-110927133D01*
X151184651Y-110914520D01*
X151206829Y-110904030D01*
X151229929Y-110895765D01*
X151253727Y-110889804D01*
X151277996Y-110886204D01*
X151302500Y-110885000D01*
X152227500Y-110885000D01*
X152252004Y-110886204D01*
X152252004Y-110886204D01*
G37*
D15*
G04 #@! TD*
G04 #@! TO.P,C5,1*
G04 #@! TO.N,Net-(C5-Pad1)*
X151765000Y-111760000D03*
D14*
G04 #@! TO.N,GNDREF*
G04 #@! TO.C,C5*
G36*
X155227004Y-110886204D02*
X155251273Y-110889804D01*
X155275071Y-110895765D01*
X155298171Y-110904030D01*
X155320349Y-110914520D01*
X155341393Y-110927133D01*
X155361098Y-110941747D01*
X155379277Y-110958223D01*
X155395753Y-110976402D01*
X155410367Y-110996107D01*
X155422980Y-111017151D01*
X155433470Y-111039329D01*
X155441735Y-111062429D01*
X155447696Y-111086227D01*
X155451296Y-111110496D01*
X155452500Y-111135000D01*
X155452500Y-112385000D01*
X155451296Y-112409504D01*
X155447696Y-112433773D01*
X155441735Y-112457571D01*
X155433470Y-112480671D01*
X155422980Y-112502849D01*
X155410367Y-112523893D01*
X155395753Y-112543598D01*
X155379277Y-112561777D01*
X155361098Y-112578253D01*
X155341393Y-112592867D01*
X155320349Y-112605480D01*
X155298171Y-112615970D01*
X155275071Y-112624235D01*
X155251273Y-112630196D01*
X155227004Y-112633796D01*
X155202500Y-112635000D01*
X154277500Y-112635000D01*
X154252996Y-112633796D01*
X154228727Y-112630196D01*
X154204929Y-112624235D01*
X154181829Y-112615970D01*
X154159651Y-112605480D01*
X154138607Y-112592867D01*
X154118902Y-112578253D01*
X154100723Y-112561777D01*
X154084247Y-112543598D01*
X154069633Y-112523893D01*
X154057020Y-112502849D01*
X154046530Y-112480671D01*
X154038265Y-112457571D01*
X154032304Y-112433773D01*
X154028704Y-112409504D01*
X154027500Y-112385000D01*
X154027500Y-111135000D01*
X154028704Y-111110496D01*
X154032304Y-111086227D01*
X154038265Y-111062429D01*
X154046530Y-111039329D01*
X154057020Y-111017151D01*
X154069633Y-110996107D01*
X154084247Y-110976402D01*
X154100723Y-110958223D01*
X154118902Y-110941747D01*
X154138607Y-110927133D01*
X154159651Y-110914520D01*
X154181829Y-110904030D01*
X154204929Y-110895765D01*
X154228727Y-110889804D01*
X154252996Y-110886204D01*
X154277500Y-110885000D01*
X155202500Y-110885000D01*
X155227004Y-110886204D01*
X155227004Y-110886204D01*
G37*
D15*
G04 #@! TD*
G04 #@! TO.P,C5,2*
G04 #@! TO.N,GNDREF*
X154740000Y-111760000D03*
D13*
G04 #@! TO.P,C6,1*
G04 #@! TO.N,Net-(C6-Pad1)*
X183832500Y-103759000D03*
D12*
G04 #@! TO.P,C6,2*
G04 #@! TO.N,GNDREF*
X183832500Y-98759000D03*
G04 #@! TD*
D16*
G04 #@! TO.P,D1,1*
G04 #@! TO.N,Net-(C6-Pad1)*
X194818000Y-83121500D03*
D17*
G04 #@! TO.P,D1,2*
G04 #@! TO.N,Net-(D1-Pad2)*
X194818000Y-88201500D03*
G04 #@! TD*
D18*
G04 #@! TO.P,F1,1*
G04 #@! TO.N,Net-(C4-Pad1)*
X160718500Y-86106000D03*
G04 #@! TO.P,F1,2*
G04 #@! TO.N,Net-(F1-Pad2)*
X137718500Y-86106000D03*
G04 #@! TD*
D19*
G04 #@! TO.P,,2*
G04 #@! TO.N,Net-(J1-Pad2)*
X122999500Y-93345000D03*
D20*
G04 #@! TO.P,,1*
G04 #@! TO.N,GNDREF*
X122999500Y-98425000D03*
G04 #@! TD*
G04 #@! TO.P,,1*
G04 #@! TO.N,Net-(J1-Pad2)*
X140081000Y-77660500D03*
D19*
G04 #@! TO.P,,2*
G04 #@! TO.N,Net-(F1-Pad2)*
X145161000Y-77660500D03*
G04 #@! TD*
G04 #@! TO.P,Potansiyometre,2*
G04 #@! TO.N,Net-(J3-Pad2)*
X154178000Y-77660500D03*
D20*
G04 #@! TO.P,Potansiyometre,1*
G04 #@! TO.N,Net-(C6-Pad1)*
X159258000Y-77660500D03*
G04 #@! TD*
G04 #@! TO.P,Ak\0131m \00D6.,1*
G04 #@! TO.N,Net-(J4-Pad1)*
X187960000Y-77914500D03*
D19*
G04 #@! TO.P,Ak\0131m \00D6.,2*
G04 #@! TO.N,Net-(C6-Pad1)*
X182880000Y-77914500D03*
G04 #@! TD*
G04 #@! TO.P,Gerilim \00D6.,2*
G04 #@! TO.N,Net-(J4-Pad1)*
X174117000Y-77724000D03*
D20*
G04 #@! TO.P,Gerilim \00D6.,1*
G04 #@! TO.N,GNDREF*
X169037000Y-77724000D03*
G04 #@! TD*
G04 #@! TO.P,,1*
G04 #@! TO.N,GNDREF*
X201422000Y-100012500D03*
D19*
G04 #@! TO.P,,2*
G04 #@! TO.N,Net-(J4-Pad1)*
X201422000Y-94932500D03*
G04 #@! TD*
D21*
G04 #@! TO.P,L1,1*
G04 #@! TO.N,Net-(C4-Pad1)*
X183451500Y-88328500D03*
G04 #@! TO.P,L1,2*
G04 #@! TO.N,Net-(D1-Pad2)*
X188451500Y-88328500D03*
G04 #@! TD*
D22*
G04 #@! TO.P,Q1,1*
G04 #@! TO.N,Net-(Q1-Pad1)*
X196215000Y-110236000D03*
D23*
G04 #@! TO.P,Q1,2*
G04 #@! TO.N,Net-(D1-Pad2)*
X193675000Y-110236000D03*
G04 #@! TO.P,Q1,3*
G04 #@! TO.N,Net-(Q1-Pad3)*
X191135000Y-110236000D03*
G04 #@! TD*
D14*
G04 #@! TO.N,GNDREF*
G04 #@! TO.C,R1*
G36*
X132094504Y-98348704D02*
X132118773Y-98352304D01*
X132142571Y-98358265D01*
X132165671Y-98366530D01*
X132187849Y-98377020D01*
X132208893Y-98389633D01*
X132228598Y-98404247D01*
X132246777Y-98420723D01*
X132263253Y-98438902D01*
X132277867Y-98458607D01*
X132290480Y-98479651D01*
X132300970Y-98501829D01*
X132309235Y-98524929D01*
X132315196Y-98548727D01*
X132318796Y-98572996D01*
X132320000Y-98597500D01*
X132320000Y-99522500D01*
X132318796Y-99547004D01*
X132315196Y-99571273D01*
X132309235Y-99595071D01*
X132300970Y-99618171D01*
X132290480Y-99640349D01*
X132277867Y-99661393D01*
X132263253Y-99681098D01*
X132246777Y-99699277D01*
X132228598Y-99715753D01*
X132208893Y-99730367D01*
X132187849Y-99742980D01*
X132165671Y-99753470D01*
X132142571Y-99761735D01*
X132118773Y-99767696D01*
X132094504Y-99771296D01*
X132070000Y-99772500D01*
X130820000Y-99772500D01*
X130795496Y-99771296D01*
X130771227Y-99767696D01*
X130747429Y-99761735D01*
X130724329Y-99753470D01*
X130702151Y-99742980D01*
X130681107Y-99730367D01*
X130661402Y-99715753D01*
X130643223Y-99699277D01*
X130626747Y-99681098D01*
X130612133Y-99661393D01*
X130599520Y-99640349D01*
X130589030Y-99618171D01*
X130580765Y-99595071D01*
X130574804Y-99571273D01*
X130571204Y-99547004D01*
X130570000Y-99522500D01*
X130570000Y-98597500D01*
X130571204Y-98572996D01*
X130574804Y-98548727D01*
X130580765Y-98524929D01*
X130589030Y-98501829D01*
X130599520Y-98479651D01*
X130612133Y-98458607D01*
X130626747Y-98438902D01*
X130643223Y-98420723D01*
X130661402Y-98404247D01*
X130681107Y-98389633D01*
X130702151Y-98377020D01*
X130724329Y-98366530D01*
X130747429Y-98358265D01*
X130771227Y-98352304D01*
X130795496Y-98348704D01*
X130820000Y-98347500D01*
X132070000Y-98347500D01*
X132094504Y-98348704D01*
X132094504Y-98348704D01*
G37*
D15*
G04 #@! TD*
G04 #@! TO.P,R1,2*
G04 #@! TO.N,GNDREF*
X131445000Y-99060000D03*
D14*
G04 #@! TO.N,Net-(R1-Pad1)*
G04 #@! TO.C,R1*
G36*
X132094504Y-95373704D02*
X132118773Y-95377304D01*
X132142571Y-95383265D01*
X132165671Y-95391530D01*
X132187849Y-95402020D01*
X132208893Y-95414633D01*
X132228598Y-95429247D01*
X132246777Y-95445723D01*
X132263253Y-95463902D01*
X132277867Y-95483607D01*
X132290480Y-95504651D01*
X132300970Y-95526829D01*
X132309235Y-95549929D01*
X132315196Y-95573727D01*
X132318796Y-95597996D01*
X132320000Y-95622500D01*
X132320000Y-96547500D01*
X132318796Y-96572004D01*
X132315196Y-96596273D01*
X132309235Y-96620071D01*
X132300970Y-96643171D01*
X132290480Y-96665349D01*
X132277867Y-96686393D01*
X132263253Y-96706098D01*
X132246777Y-96724277D01*
X132228598Y-96740753D01*
X132208893Y-96755367D01*
X132187849Y-96767980D01*
X132165671Y-96778470D01*
X132142571Y-96786735D01*
X132118773Y-96792696D01*
X132094504Y-96796296D01*
X132070000Y-96797500D01*
X130820000Y-96797500D01*
X130795496Y-96796296D01*
X130771227Y-96792696D01*
X130747429Y-96786735D01*
X130724329Y-96778470D01*
X130702151Y-96767980D01*
X130681107Y-96755367D01*
X130661402Y-96740753D01*
X130643223Y-96724277D01*
X130626747Y-96706098D01*
X130612133Y-96686393D01*
X130599520Y-96665349D01*
X130589030Y-96643171D01*
X130580765Y-96620071D01*
X130574804Y-96596273D01*
X130571204Y-96572004D01*
X130570000Y-96547500D01*
X130570000Y-95622500D01*
X130571204Y-95597996D01*
X130574804Y-95573727D01*
X130580765Y-95549929D01*
X130589030Y-95526829D01*
X130599520Y-95504651D01*
X130612133Y-95483607D01*
X130626747Y-95463902D01*
X130643223Y-95445723D01*
X130661402Y-95429247D01*
X130681107Y-95414633D01*
X130702151Y-95402020D01*
X130724329Y-95391530D01*
X130747429Y-95383265D01*
X130771227Y-95377304D01*
X130795496Y-95373704D01*
X130820000Y-95372500D01*
X132070000Y-95372500D01*
X132094504Y-95373704D01*
X132094504Y-95373704D01*
G37*
D15*
G04 #@! TD*
G04 #@! TO.P,R1,1*
G04 #@! TO.N,Net-(R1-Pad1)*
X131445000Y-96085000D03*
D14*
G04 #@! TO.N,Net-(C2-Pad2)*
G04 #@! TO.C,R2*
G36*
X135269504Y-95373704D02*
X135293773Y-95377304D01*
X135317571Y-95383265D01*
X135340671Y-95391530D01*
X135362849Y-95402020D01*
X135383893Y-95414633D01*
X135403598Y-95429247D01*
X135421777Y-95445723D01*
X135438253Y-95463902D01*
X135452867Y-95483607D01*
X135465480Y-95504651D01*
X135475970Y-95526829D01*
X135484235Y-95549929D01*
X135490196Y-95573727D01*
X135493796Y-95597996D01*
X135495000Y-95622500D01*
X135495000Y-96547500D01*
X135493796Y-96572004D01*
X135490196Y-96596273D01*
X135484235Y-96620071D01*
X135475970Y-96643171D01*
X135465480Y-96665349D01*
X135452867Y-96686393D01*
X135438253Y-96706098D01*
X135421777Y-96724277D01*
X135403598Y-96740753D01*
X135383893Y-96755367D01*
X135362849Y-96767980D01*
X135340671Y-96778470D01*
X135317571Y-96786735D01*
X135293773Y-96792696D01*
X135269504Y-96796296D01*
X135245000Y-96797500D01*
X133995000Y-96797500D01*
X133970496Y-96796296D01*
X133946227Y-96792696D01*
X133922429Y-96786735D01*
X133899329Y-96778470D01*
X133877151Y-96767980D01*
X133856107Y-96755367D01*
X133836402Y-96740753D01*
X133818223Y-96724277D01*
X133801747Y-96706098D01*
X133787133Y-96686393D01*
X133774520Y-96665349D01*
X133764030Y-96643171D01*
X133755765Y-96620071D01*
X133749804Y-96596273D01*
X133746204Y-96572004D01*
X133745000Y-96547500D01*
X133745000Y-95622500D01*
X133746204Y-95597996D01*
X133749804Y-95573727D01*
X133755765Y-95549929D01*
X133764030Y-95526829D01*
X133774520Y-95504651D01*
X133787133Y-95483607D01*
X133801747Y-95463902D01*
X133818223Y-95445723D01*
X133836402Y-95429247D01*
X133856107Y-95414633D01*
X133877151Y-95402020D01*
X133899329Y-95391530D01*
X133922429Y-95383265D01*
X133946227Y-95377304D01*
X133970496Y-95373704D01*
X133995000Y-95372500D01*
X135245000Y-95372500D01*
X135269504Y-95373704D01*
X135269504Y-95373704D01*
G37*
D15*
G04 #@! TD*
G04 #@! TO.P,R2,1*
G04 #@! TO.N,Net-(C2-Pad2)*
X134620000Y-96085000D03*
D14*
G04 #@! TO.N,Net-(R1-Pad1)*
G04 #@! TO.C,R2*
G36*
X135269504Y-98348704D02*
X135293773Y-98352304D01*
X135317571Y-98358265D01*
X135340671Y-98366530D01*
X135362849Y-98377020D01*
X135383893Y-98389633D01*
X135403598Y-98404247D01*
X135421777Y-98420723D01*
X135438253Y-98438902D01*
X135452867Y-98458607D01*
X135465480Y-98479651D01*
X135475970Y-98501829D01*
X135484235Y-98524929D01*
X135490196Y-98548727D01*
X135493796Y-98572996D01*
X135495000Y-98597500D01*
X135495000Y-99522500D01*
X135493796Y-99547004D01*
X135490196Y-99571273D01*
X135484235Y-99595071D01*
X135475970Y-99618171D01*
X135465480Y-99640349D01*
X135452867Y-99661393D01*
X135438253Y-99681098D01*
X135421777Y-99699277D01*
X135403598Y-99715753D01*
X135383893Y-99730367D01*
X135362849Y-99742980D01*
X135340671Y-99753470D01*
X135317571Y-99761735D01*
X135293773Y-99767696D01*
X135269504Y-99771296D01*
X135245000Y-99772500D01*
X133995000Y-99772500D01*
X133970496Y-99771296D01*
X133946227Y-99767696D01*
X133922429Y-99761735D01*
X133899329Y-99753470D01*
X133877151Y-99742980D01*
X133856107Y-99730367D01*
X133836402Y-99715753D01*
X133818223Y-99699277D01*
X133801747Y-99681098D01*
X133787133Y-99661393D01*
X133774520Y-99640349D01*
X133764030Y-99618171D01*
X133755765Y-99595071D01*
X133749804Y-99571273D01*
X133746204Y-99547004D01*
X133745000Y-99522500D01*
X133745000Y-98597500D01*
X133746204Y-98572996D01*
X133749804Y-98548727D01*
X133755765Y-98524929D01*
X133764030Y-98501829D01*
X133774520Y-98479651D01*
X133787133Y-98458607D01*
X133801747Y-98438902D01*
X133818223Y-98420723D01*
X133836402Y-98404247D01*
X133856107Y-98389633D01*
X133877151Y-98377020D01*
X133899329Y-98366530D01*
X133922429Y-98358265D01*
X133946227Y-98352304D01*
X133970496Y-98348704D01*
X133995000Y-98347500D01*
X135245000Y-98347500D01*
X135269504Y-98348704D01*
X135269504Y-98348704D01*
G37*
D15*
G04 #@! TD*
G04 #@! TO.P,R2,2*
G04 #@! TO.N,Net-(R1-Pad1)*
X134620000Y-99060000D03*
D14*
G04 #@! TO.N,Net-(C1-Pad1)*
G04 #@! TO.C,R3*
G36*
X135269504Y-103301704D02*
X135293773Y-103305304D01*
X135317571Y-103311265D01*
X135340671Y-103319530D01*
X135362849Y-103330020D01*
X135383893Y-103342633D01*
X135403598Y-103357247D01*
X135421777Y-103373723D01*
X135438253Y-103391902D01*
X135452867Y-103411607D01*
X135465480Y-103432651D01*
X135475970Y-103454829D01*
X135484235Y-103477929D01*
X135490196Y-103501727D01*
X135493796Y-103525996D01*
X135495000Y-103550500D01*
X135495000Y-104475500D01*
X135493796Y-104500004D01*
X135490196Y-104524273D01*
X135484235Y-104548071D01*
X135475970Y-104571171D01*
X135465480Y-104593349D01*
X135452867Y-104614393D01*
X135438253Y-104634098D01*
X135421777Y-104652277D01*
X135403598Y-104668753D01*
X135383893Y-104683367D01*
X135362849Y-104695980D01*
X135340671Y-104706470D01*
X135317571Y-104714735D01*
X135293773Y-104720696D01*
X135269504Y-104724296D01*
X135245000Y-104725500D01*
X133995000Y-104725500D01*
X133970496Y-104724296D01*
X133946227Y-104720696D01*
X133922429Y-104714735D01*
X133899329Y-104706470D01*
X133877151Y-104695980D01*
X133856107Y-104683367D01*
X133836402Y-104668753D01*
X133818223Y-104652277D01*
X133801747Y-104634098D01*
X133787133Y-104614393D01*
X133774520Y-104593349D01*
X133764030Y-104571171D01*
X133755765Y-104548071D01*
X133749804Y-104524273D01*
X133746204Y-104500004D01*
X133745000Y-104475500D01*
X133745000Y-103550500D01*
X133746204Y-103525996D01*
X133749804Y-103501727D01*
X133755765Y-103477929D01*
X133764030Y-103454829D01*
X133774520Y-103432651D01*
X133787133Y-103411607D01*
X133801747Y-103391902D01*
X133818223Y-103373723D01*
X133836402Y-103357247D01*
X133856107Y-103342633D01*
X133877151Y-103330020D01*
X133899329Y-103319530D01*
X133922429Y-103311265D01*
X133946227Y-103305304D01*
X133970496Y-103301704D01*
X133995000Y-103300500D01*
X135245000Y-103300500D01*
X135269504Y-103301704D01*
X135269504Y-103301704D01*
G37*
D15*
G04 #@! TD*
G04 #@! TO.P,R3,2*
G04 #@! TO.N,Net-(C1-Pad1)*
X134620000Y-104013000D03*
D14*
G04 #@! TO.N,Net-(C3-Pad1)*
G04 #@! TO.C,R3*
G36*
X135269504Y-106276704D02*
X135293773Y-106280304D01*
X135317571Y-106286265D01*
X135340671Y-106294530D01*
X135362849Y-106305020D01*
X135383893Y-106317633D01*
X135403598Y-106332247D01*
X135421777Y-106348723D01*
X135438253Y-106366902D01*
X135452867Y-106386607D01*
X135465480Y-106407651D01*
X135475970Y-106429829D01*
X135484235Y-106452929D01*
X135490196Y-106476727D01*
X135493796Y-106500996D01*
X135495000Y-106525500D01*
X135495000Y-107450500D01*
X135493796Y-107475004D01*
X135490196Y-107499273D01*
X135484235Y-107523071D01*
X135475970Y-107546171D01*
X135465480Y-107568349D01*
X135452867Y-107589393D01*
X135438253Y-107609098D01*
X135421777Y-107627277D01*
X135403598Y-107643753D01*
X135383893Y-107658367D01*
X135362849Y-107670980D01*
X135340671Y-107681470D01*
X135317571Y-107689735D01*
X135293773Y-107695696D01*
X135269504Y-107699296D01*
X135245000Y-107700500D01*
X133995000Y-107700500D01*
X133970496Y-107699296D01*
X133946227Y-107695696D01*
X133922429Y-107689735D01*
X133899329Y-107681470D01*
X133877151Y-107670980D01*
X133856107Y-107658367D01*
X133836402Y-107643753D01*
X133818223Y-107627277D01*
X133801747Y-107609098D01*
X133787133Y-107589393D01*
X133774520Y-107568349D01*
X133764030Y-107546171D01*
X133755765Y-107523071D01*
X133749804Y-107499273D01*
X133746204Y-107475004D01*
X133745000Y-107450500D01*
X133745000Y-106525500D01*
X133746204Y-106500996D01*
X133749804Y-106476727D01*
X133755765Y-106452929D01*
X133764030Y-106429829D01*
X133774520Y-106407651D01*
X133787133Y-106386607D01*
X133801747Y-106366902D01*
X133818223Y-106348723D01*
X133836402Y-106332247D01*
X133856107Y-106317633D01*
X133877151Y-106305020D01*
X133899329Y-106294530D01*
X133922429Y-106286265D01*
X133946227Y-106280304D01*
X133970496Y-106276704D01*
X133995000Y-106275500D01*
X135245000Y-106275500D01*
X135269504Y-106276704D01*
X135269504Y-106276704D01*
G37*
D15*
G04 #@! TD*
G04 #@! TO.P,R3,1*
G04 #@! TO.N,Net-(C3-Pad1)*
X134620000Y-106988000D03*
D14*
G04 #@! TO.N,Net-(J3-Pad2)*
G04 #@! TO.C,R4*
G36*
X132018304Y-89444404D02*
X132042573Y-89448004D01*
X132066371Y-89453965D01*
X132089471Y-89462230D01*
X132111649Y-89472720D01*
X132132693Y-89485333D01*
X132152398Y-89499947D01*
X132170577Y-89516423D01*
X132187053Y-89534602D01*
X132201667Y-89554307D01*
X132214280Y-89575351D01*
X132224770Y-89597529D01*
X132233035Y-89620629D01*
X132238996Y-89644427D01*
X132242596Y-89668696D01*
X132243800Y-89693200D01*
X132243800Y-90618200D01*
X132242596Y-90642704D01*
X132238996Y-90666973D01*
X132233035Y-90690771D01*
X132224770Y-90713871D01*
X132214280Y-90736049D01*
X132201667Y-90757093D01*
X132187053Y-90776798D01*
X132170577Y-90794977D01*
X132152398Y-90811453D01*
X132132693Y-90826067D01*
X132111649Y-90838680D01*
X132089471Y-90849170D01*
X132066371Y-90857435D01*
X132042573Y-90863396D01*
X132018304Y-90866996D01*
X131993800Y-90868200D01*
X130743800Y-90868200D01*
X130719296Y-90866996D01*
X130695027Y-90863396D01*
X130671229Y-90857435D01*
X130648129Y-90849170D01*
X130625951Y-90838680D01*
X130604907Y-90826067D01*
X130585202Y-90811453D01*
X130567023Y-90794977D01*
X130550547Y-90776798D01*
X130535933Y-90757093D01*
X130523320Y-90736049D01*
X130512830Y-90713871D01*
X130504565Y-90690771D01*
X130498604Y-90666973D01*
X130495004Y-90642704D01*
X130493800Y-90618200D01*
X130493800Y-89693200D01*
X130495004Y-89668696D01*
X130498604Y-89644427D01*
X130504565Y-89620629D01*
X130512830Y-89597529D01*
X130523320Y-89575351D01*
X130535933Y-89554307D01*
X130550547Y-89534602D01*
X130567023Y-89516423D01*
X130585202Y-89499947D01*
X130604907Y-89485333D01*
X130625951Y-89472720D01*
X130648129Y-89462230D01*
X130671229Y-89453965D01*
X130695027Y-89448004D01*
X130719296Y-89444404D01*
X130743800Y-89443200D01*
X131993800Y-89443200D01*
X132018304Y-89444404D01*
X132018304Y-89444404D01*
G37*
D15*
G04 #@! TD*
G04 #@! TO.P,R4,1*
G04 #@! TO.N,Net-(J3-Pad2)*
X131368800Y-90155700D03*
D14*
G04 #@! TO.N,Net-(R1-Pad1)*
G04 #@! TO.C,R4*
G36*
X132018304Y-92419404D02*
X132042573Y-92423004D01*
X132066371Y-92428965D01*
X132089471Y-92437230D01*
X132111649Y-92447720D01*
X132132693Y-92460333D01*
X132152398Y-92474947D01*
X132170577Y-92491423D01*
X132187053Y-92509602D01*
X132201667Y-92529307D01*
X132214280Y-92550351D01*
X132224770Y-92572529D01*
X132233035Y-92595629D01*
X132238996Y-92619427D01*
X132242596Y-92643696D01*
X132243800Y-92668200D01*
X132243800Y-93593200D01*
X132242596Y-93617704D01*
X132238996Y-93641973D01*
X132233035Y-93665771D01*
X132224770Y-93688871D01*
X132214280Y-93711049D01*
X132201667Y-93732093D01*
X132187053Y-93751798D01*
X132170577Y-93769977D01*
X132152398Y-93786453D01*
X132132693Y-93801067D01*
X132111649Y-93813680D01*
X132089471Y-93824170D01*
X132066371Y-93832435D01*
X132042573Y-93838396D01*
X132018304Y-93841996D01*
X131993800Y-93843200D01*
X130743800Y-93843200D01*
X130719296Y-93841996D01*
X130695027Y-93838396D01*
X130671229Y-93832435D01*
X130648129Y-93824170D01*
X130625951Y-93813680D01*
X130604907Y-93801067D01*
X130585202Y-93786453D01*
X130567023Y-93769977D01*
X130550547Y-93751798D01*
X130535933Y-93732093D01*
X130523320Y-93711049D01*
X130512830Y-93688871D01*
X130504565Y-93665771D01*
X130498604Y-93641973D01*
X130495004Y-93617704D01*
X130493800Y-93593200D01*
X130493800Y-92668200D01*
X130495004Y-92643696D01*
X130498604Y-92619427D01*
X130504565Y-92595629D01*
X130512830Y-92572529D01*
X130523320Y-92550351D01*
X130535933Y-92529307D01*
X130550547Y-92509602D01*
X130567023Y-92491423D01*
X130585202Y-92474947D01*
X130604907Y-92460333D01*
X130625951Y-92447720D01*
X130648129Y-92437230D01*
X130671229Y-92428965D01*
X130695027Y-92423004D01*
X130719296Y-92419404D01*
X130743800Y-92418200D01*
X131993800Y-92418200D01*
X132018304Y-92419404D01*
X132018304Y-92419404D01*
G37*
D15*
G04 #@! TD*
G04 #@! TO.P,R4,2*
G04 #@! TO.N,Net-(R1-Pad1)*
X131368800Y-93130700D03*
D14*
G04 #@! TO.N,Net-(R1-Pad1)*
G04 #@! TO.C,R5*
G36*
X138444504Y-98348704D02*
X138468773Y-98352304D01*
X138492571Y-98358265D01*
X138515671Y-98366530D01*
X138537849Y-98377020D01*
X138558893Y-98389633D01*
X138578598Y-98404247D01*
X138596777Y-98420723D01*
X138613253Y-98438902D01*
X138627867Y-98458607D01*
X138640480Y-98479651D01*
X138650970Y-98501829D01*
X138659235Y-98524929D01*
X138665196Y-98548727D01*
X138668796Y-98572996D01*
X138670000Y-98597500D01*
X138670000Y-99522500D01*
X138668796Y-99547004D01*
X138665196Y-99571273D01*
X138659235Y-99595071D01*
X138650970Y-99618171D01*
X138640480Y-99640349D01*
X138627867Y-99661393D01*
X138613253Y-99681098D01*
X138596777Y-99699277D01*
X138578598Y-99715753D01*
X138558893Y-99730367D01*
X138537849Y-99742980D01*
X138515671Y-99753470D01*
X138492571Y-99761735D01*
X138468773Y-99767696D01*
X138444504Y-99771296D01*
X138420000Y-99772500D01*
X137170000Y-99772500D01*
X137145496Y-99771296D01*
X137121227Y-99767696D01*
X137097429Y-99761735D01*
X137074329Y-99753470D01*
X137052151Y-99742980D01*
X137031107Y-99730367D01*
X137011402Y-99715753D01*
X136993223Y-99699277D01*
X136976747Y-99681098D01*
X136962133Y-99661393D01*
X136949520Y-99640349D01*
X136939030Y-99618171D01*
X136930765Y-99595071D01*
X136924804Y-99571273D01*
X136921204Y-99547004D01*
X136920000Y-99522500D01*
X136920000Y-98597500D01*
X136921204Y-98572996D01*
X136924804Y-98548727D01*
X136930765Y-98524929D01*
X136939030Y-98501829D01*
X136949520Y-98479651D01*
X136962133Y-98458607D01*
X136976747Y-98438902D01*
X136993223Y-98420723D01*
X137011402Y-98404247D01*
X137031107Y-98389633D01*
X137052151Y-98377020D01*
X137074329Y-98366530D01*
X137097429Y-98358265D01*
X137121227Y-98352304D01*
X137145496Y-98348704D01*
X137170000Y-98347500D01*
X138420000Y-98347500D01*
X138444504Y-98348704D01*
X138444504Y-98348704D01*
G37*
D15*
G04 #@! TD*
G04 #@! TO.P,R5,2*
G04 #@! TO.N,Net-(R1-Pad1)*
X137795000Y-99060000D03*
D14*
G04 #@! TO.N,Net-(C2-Pad1)*
G04 #@! TO.C,R5*
G36*
X138444504Y-95373704D02*
X138468773Y-95377304D01*
X138492571Y-95383265D01*
X138515671Y-95391530D01*
X138537849Y-95402020D01*
X138558893Y-95414633D01*
X138578598Y-95429247D01*
X138596777Y-95445723D01*
X138613253Y-95463902D01*
X138627867Y-95483607D01*
X138640480Y-95504651D01*
X138650970Y-95526829D01*
X138659235Y-95549929D01*
X138665196Y-95573727D01*
X138668796Y-95597996D01*
X138670000Y-95622500D01*
X138670000Y-96547500D01*
X138668796Y-96572004D01*
X138665196Y-96596273D01*
X138659235Y-96620071D01*
X138650970Y-96643171D01*
X138640480Y-96665349D01*
X138627867Y-96686393D01*
X138613253Y-96706098D01*
X138596777Y-96724277D01*
X138578598Y-96740753D01*
X138558893Y-96755367D01*
X138537849Y-96767980D01*
X138515671Y-96778470D01*
X138492571Y-96786735D01*
X138468773Y-96792696D01*
X138444504Y-96796296D01*
X138420000Y-96797500D01*
X137170000Y-96797500D01*
X137145496Y-96796296D01*
X137121227Y-96792696D01*
X137097429Y-96786735D01*
X137074329Y-96778470D01*
X137052151Y-96767980D01*
X137031107Y-96755367D01*
X137011402Y-96740753D01*
X136993223Y-96724277D01*
X136976747Y-96706098D01*
X136962133Y-96686393D01*
X136949520Y-96665349D01*
X136939030Y-96643171D01*
X136930765Y-96620071D01*
X136924804Y-96596273D01*
X136921204Y-96572004D01*
X136920000Y-96547500D01*
X136920000Y-95622500D01*
X136921204Y-95597996D01*
X136924804Y-95573727D01*
X136930765Y-95549929D01*
X136939030Y-95526829D01*
X136949520Y-95504651D01*
X136962133Y-95483607D01*
X136976747Y-95463902D01*
X136993223Y-95445723D01*
X137011402Y-95429247D01*
X137031107Y-95414633D01*
X137052151Y-95402020D01*
X137074329Y-95391530D01*
X137097429Y-95383265D01*
X137121227Y-95377304D01*
X137145496Y-95373704D01*
X137170000Y-95372500D01*
X138420000Y-95372500D01*
X138444504Y-95373704D01*
X138444504Y-95373704D01*
G37*
D15*
G04 #@! TD*
G04 #@! TO.P,R5,1*
G04 #@! TO.N,Net-(C2-Pad1)*
X137795000Y-96085000D03*
D14*
G04 #@! TO.N,Net-(C3-Pad1)*
G04 #@! TO.C,R6*
G36*
X138444504Y-106276704D02*
X138468773Y-106280304D01*
X138492571Y-106286265D01*
X138515671Y-106294530D01*
X138537849Y-106305020D01*
X138558893Y-106317633D01*
X138578598Y-106332247D01*
X138596777Y-106348723D01*
X138613253Y-106366902D01*
X138627867Y-106386607D01*
X138640480Y-106407651D01*
X138650970Y-106429829D01*
X138659235Y-106452929D01*
X138665196Y-106476727D01*
X138668796Y-106500996D01*
X138670000Y-106525500D01*
X138670000Y-107450500D01*
X138668796Y-107475004D01*
X138665196Y-107499273D01*
X138659235Y-107523071D01*
X138650970Y-107546171D01*
X138640480Y-107568349D01*
X138627867Y-107589393D01*
X138613253Y-107609098D01*
X138596777Y-107627277D01*
X138578598Y-107643753D01*
X138558893Y-107658367D01*
X138537849Y-107670980D01*
X138515671Y-107681470D01*
X138492571Y-107689735D01*
X138468773Y-107695696D01*
X138444504Y-107699296D01*
X138420000Y-107700500D01*
X137170000Y-107700500D01*
X137145496Y-107699296D01*
X137121227Y-107695696D01*
X137097429Y-107689735D01*
X137074329Y-107681470D01*
X137052151Y-107670980D01*
X137031107Y-107658367D01*
X137011402Y-107643753D01*
X136993223Y-107627277D01*
X136976747Y-107609098D01*
X136962133Y-107589393D01*
X136949520Y-107568349D01*
X136939030Y-107546171D01*
X136930765Y-107523071D01*
X136924804Y-107499273D01*
X136921204Y-107475004D01*
X136920000Y-107450500D01*
X136920000Y-106525500D01*
X136921204Y-106500996D01*
X136924804Y-106476727D01*
X136930765Y-106452929D01*
X136939030Y-106429829D01*
X136949520Y-106407651D01*
X136962133Y-106386607D01*
X136976747Y-106366902D01*
X136993223Y-106348723D01*
X137011402Y-106332247D01*
X137031107Y-106317633D01*
X137052151Y-106305020D01*
X137074329Y-106294530D01*
X137097429Y-106286265D01*
X137121227Y-106280304D01*
X137145496Y-106276704D01*
X137170000Y-106275500D01*
X138420000Y-106275500D01*
X138444504Y-106276704D01*
X138444504Y-106276704D01*
G37*
D15*
G04 #@! TD*
G04 #@! TO.P,R6,1*
G04 #@! TO.N,Net-(C3-Pad1)*
X137795000Y-106988000D03*
D14*
G04 #@! TO.N,Net-(C5-Pad1)*
G04 #@! TO.C,R6*
G36*
X138444504Y-103301704D02*
X138468773Y-103305304D01*
X138492571Y-103311265D01*
X138515671Y-103319530D01*
X138537849Y-103330020D01*
X138558893Y-103342633D01*
X138578598Y-103357247D01*
X138596777Y-103373723D01*
X138613253Y-103391902D01*
X138627867Y-103411607D01*
X138640480Y-103432651D01*
X138650970Y-103454829D01*
X138659235Y-103477929D01*
X138665196Y-103501727D01*
X138668796Y-103525996D01*
X138670000Y-103550500D01*
X138670000Y-104475500D01*
X138668796Y-104500004D01*
X138665196Y-104524273D01*
X138659235Y-104548071D01*
X138650970Y-104571171D01*
X138640480Y-104593349D01*
X138627867Y-104614393D01*
X138613253Y-104634098D01*
X138596777Y-104652277D01*
X138578598Y-104668753D01*
X138558893Y-104683367D01*
X138537849Y-104695980D01*
X138515671Y-104706470D01*
X138492571Y-104714735D01*
X138468773Y-104720696D01*
X138444504Y-104724296D01*
X138420000Y-104725500D01*
X137170000Y-104725500D01*
X137145496Y-104724296D01*
X137121227Y-104720696D01*
X137097429Y-104714735D01*
X137074329Y-104706470D01*
X137052151Y-104695980D01*
X137031107Y-104683367D01*
X137011402Y-104668753D01*
X136993223Y-104652277D01*
X136976747Y-104634098D01*
X136962133Y-104614393D01*
X136949520Y-104593349D01*
X136939030Y-104571171D01*
X136930765Y-104548071D01*
X136924804Y-104524273D01*
X136921204Y-104500004D01*
X136920000Y-104475500D01*
X136920000Y-103550500D01*
X136921204Y-103525996D01*
X136924804Y-103501727D01*
X136930765Y-103477929D01*
X136939030Y-103454829D01*
X136949520Y-103432651D01*
X136962133Y-103411607D01*
X136976747Y-103391902D01*
X136993223Y-103373723D01*
X137011402Y-103357247D01*
X137031107Y-103342633D01*
X137052151Y-103330020D01*
X137074329Y-103319530D01*
X137097429Y-103311265D01*
X137121227Y-103305304D01*
X137145496Y-103301704D01*
X137170000Y-103300500D01*
X138420000Y-103300500D01*
X138444504Y-103301704D01*
X138444504Y-103301704D01*
G37*
D15*
G04 #@! TD*
G04 #@! TO.P,R6,2*
G04 #@! TO.N,Net-(C5-Pad1)*
X137795000Y-104013000D03*
D14*
G04 #@! TO.N,Net-(R7-Pad2)*
G04 #@! TO.C,R7*
G36*
X167873004Y-100853204D02*
X167897273Y-100856804D01*
X167921071Y-100862765D01*
X167944171Y-100871030D01*
X167966349Y-100881520D01*
X167987393Y-100894133D01*
X168007098Y-100908747D01*
X168025277Y-100925223D01*
X168041753Y-100943402D01*
X168056367Y-100963107D01*
X168068980Y-100984151D01*
X168079470Y-101006329D01*
X168087735Y-101029429D01*
X168093696Y-101053227D01*
X168097296Y-101077496D01*
X168098500Y-101102000D01*
X168098500Y-102352000D01*
X168097296Y-102376504D01*
X168093696Y-102400773D01*
X168087735Y-102424571D01*
X168079470Y-102447671D01*
X168068980Y-102469849D01*
X168056367Y-102490893D01*
X168041753Y-102510598D01*
X168025277Y-102528777D01*
X168007098Y-102545253D01*
X167987393Y-102559867D01*
X167966349Y-102572480D01*
X167944171Y-102582970D01*
X167921071Y-102591235D01*
X167897273Y-102597196D01*
X167873004Y-102600796D01*
X167848500Y-102602000D01*
X166923500Y-102602000D01*
X166898996Y-102600796D01*
X166874727Y-102597196D01*
X166850929Y-102591235D01*
X166827829Y-102582970D01*
X166805651Y-102572480D01*
X166784607Y-102559867D01*
X166764902Y-102545253D01*
X166746723Y-102528777D01*
X166730247Y-102510598D01*
X166715633Y-102490893D01*
X166703020Y-102469849D01*
X166692530Y-102447671D01*
X166684265Y-102424571D01*
X166678304Y-102400773D01*
X166674704Y-102376504D01*
X166673500Y-102352000D01*
X166673500Y-101102000D01*
X166674704Y-101077496D01*
X166678304Y-101053227D01*
X166684265Y-101029429D01*
X166692530Y-101006329D01*
X166703020Y-100984151D01*
X166715633Y-100963107D01*
X166730247Y-100943402D01*
X166746723Y-100925223D01*
X166764902Y-100908747D01*
X166784607Y-100894133D01*
X166805651Y-100881520D01*
X166827829Y-100871030D01*
X166850929Y-100862765D01*
X166874727Y-100856804D01*
X166898996Y-100853204D01*
X166923500Y-100852000D01*
X167848500Y-100852000D01*
X167873004Y-100853204D01*
X167873004Y-100853204D01*
G37*
D15*
G04 #@! TD*
G04 #@! TO.P,R7,2*
G04 #@! TO.N,Net-(R7-Pad2)*
X167386000Y-101727000D03*
D14*
G04 #@! TO.N,Net-(Q1-Pad1)*
G04 #@! TO.C,R7*
G36*
X170848004Y-100853204D02*
X170872273Y-100856804D01*
X170896071Y-100862765D01*
X170919171Y-100871030D01*
X170941349Y-100881520D01*
X170962393Y-100894133D01*
X170982098Y-100908747D01*
X171000277Y-100925223D01*
X171016753Y-100943402D01*
X171031367Y-100963107D01*
X171043980Y-100984151D01*
X171054470Y-101006329D01*
X171062735Y-101029429D01*
X171068696Y-101053227D01*
X171072296Y-101077496D01*
X171073500Y-101102000D01*
X171073500Y-102352000D01*
X171072296Y-102376504D01*
X171068696Y-102400773D01*
X171062735Y-102424571D01*
X171054470Y-102447671D01*
X171043980Y-102469849D01*
X171031367Y-102490893D01*
X171016753Y-102510598D01*
X171000277Y-102528777D01*
X170982098Y-102545253D01*
X170962393Y-102559867D01*
X170941349Y-102572480D01*
X170919171Y-102582970D01*
X170896071Y-102591235D01*
X170872273Y-102597196D01*
X170848004Y-102600796D01*
X170823500Y-102602000D01*
X169898500Y-102602000D01*
X169873996Y-102600796D01*
X169849727Y-102597196D01*
X169825929Y-102591235D01*
X169802829Y-102582970D01*
X169780651Y-102572480D01*
X169759607Y-102559867D01*
X169739902Y-102545253D01*
X169721723Y-102528777D01*
X169705247Y-102510598D01*
X169690633Y-102490893D01*
X169678020Y-102469849D01*
X169667530Y-102447671D01*
X169659265Y-102424571D01*
X169653304Y-102400773D01*
X169649704Y-102376504D01*
X169648500Y-102352000D01*
X169648500Y-101102000D01*
X169649704Y-101077496D01*
X169653304Y-101053227D01*
X169659265Y-101029429D01*
X169667530Y-101006329D01*
X169678020Y-100984151D01*
X169690633Y-100963107D01*
X169705247Y-100943402D01*
X169721723Y-100925223D01*
X169739902Y-100908747D01*
X169759607Y-100894133D01*
X169780651Y-100881520D01*
X169802829Y-100871030D01*
X169825929Y-100862765D01*
X169849727Y-100856804D01*
X169873996Y-100853204D01*
X169898500Y-100852000D01*
X170823500Y-100852000D01*
X170848004Y-100853204D01*
X170848004Y-100853204D01*
G37*
D15*
G04 #@! TD*
G04 #@! TO.P,R7,1*
G04 #@! TO.N,Net-(Q1-Pad1)*
X170361000Y-101727000D03*
D14*
G04 #@! TO.N,Net-(Q1-Pad3)*
G04 #@! TO.C,R8*
G36*
X170848004Y-103774204D02*
X170872273Y-103777804D01*
X170896071Y-103783765D01*
X170919171Y-103792030D01*
X170941349Y-103802520D01*
X170962393Y-103815133D01*
X170982098Y-103829747D01*
X171000277Y-103846223D01*
X171016753Y-103864402D01*
X171031367Y-103884107D01*
X171043980Y-103905151D01*
X171054470Y-103927329D01*
X171062735Y-103950429D01*
X171068696Y-103974227D01*
X171072296Y-103998496D01*
X171073500Y-104023000D01*
X171073500Y-105273000D01*
X171072296Y-105297504D01*
X171068696Y-105321773D01*
X171062735Y-105345571D01*
X171054470Y-105368671D01*
X171043980Y-105390849D01*
X171031367Y-105411893D01*
X171016753Y-105431598D01*
X171000277Y-105449777D01*
X170982098Y-105466253D01*
X170962393Y-105480867D01*
X170941349Y-105493480D01*
X170919171Y-105503970D01*
X170896071Y-105512235D01*
X170872273Y-105518196D01*
X170848004Y-105521796D01*
X170823500Y-105523000D01*
X169898500Y-105523000D01*
X169873996Y-105521796D01*
X169849727Y-105518196D01*
X169825929Y-105512235D01*
X169802829Y-105503970D01*
X169780651Y-105493480D01*
X169759607Y-105480867D01*
X169739902Y-105466253D01*
X169721723Y-105449777D01*
X169705247Y-105431598D01*
X169690633Y-105411893D01*
X169678020Y-105390849D01*
X169667530Y-105368671D01*
X169659265Y-105345571D01*
X169653304Y-105321773D01*
X169649704Y-105297504D01*
X169648500Y-105273000D01*
X169648500Y-104023000D01*
X169649704Y-103998496D01*
X169653304Y-103974227D01*
X169659265Y-103950429D01*
X169667530Y-103927329D01*
X169678020Y-103905151D01*
X169690633Y-103884107D01*
X169705247Y-103864402D01*
X169721723Y-103846223D01*
X169739902Y-103829747D01*
X169759607Y-103815133D01*
X169780651Y-103802520D01*
X169802829Y-103792030D01*
X169825929Y-103783765D01*
X169849727Y-103777804D01*
X169873996Y-103774204D01*
X169898500Y-103773000D01*
X170823500Y-103773000D01*
X170848004Y-103774204D01*
X170848004Y-103774204D01*
G37*
D15*
G04 #@! TD*
G04 #@! TO.P,R8,1*
G04 #@! TO.N,Net-(Q1-Pad3)*
X170361000Y-104648000D03*
D14*
G04 #@! TO.N,Net-(C5-Pad1)*
G04 #@! TO.C,R8*
G36*
X167873004Y-103774204D02*
X167897273Y-103777804D01*
X167921071Y-103783765D01*
X167944171Y-103792030D01*
X167966349Y-103802520D01*
X167987393Y-103815133D01*
X168007098Y-103829747D01*
X168025277Y-103846223D01*
X168041753Y-103864402D01*
X168056367Y-103884107D01*
X168068980Y-103905151D01*
X168079470Y-103927329D01*
X168087735Y-103950429D01*
X168093696Y-103974227D01*
X168097296Y-103998496D01*
X168098500Y-104023000D01*
X168098500Y-105273000D01*
X168097296Y-105297504D01*
X168093696Y-105321773D01*
X168087735Y-105345571D01*
X168079470Y-105368671D01*
X168068980Y-105390849D01*
X168056367Y-105411893D01*
X168041753Y-105431598D01*
X168025277Y-105449777D01*
X168007098Y-105466253D01*
X167987393Y-105480867D01*
X167966349Y-105493480D01*
X167944171Y-105503970D01*
X167921071Y-105512235D01*
X167897273Y-105518196D01*
X167873004Y-105521796D01*
X167848500Y-105523000D01*
X166923500Y-105523000D01*
X166898996Y-105521796D01*
X166874727Y-105518196D01*
X166850929Y-105512235D01*
X166827829Y-105503970D01*
X166805651Y-105493480D01*
X166784607Y-105480867D01*
X166764902Y-105466253D01*
X166746723Y-105449777D01*
X166730247Y-105431598D01*
X166715633Y-105411893D01*
X166703020Y-105390849D01*
X166692530Y-105368671D01*
X166684265Y-105345571D01*
X166678304Y-105321773D01*
X166674704Y-105297504D01*
X166673500Y-105273000D01*
X166673500Y-104023000D01*
X166674704Y-103998496D01*
X166678304Y-103974227D01*
X166684265Y-103950429D01*
X166692530Y-103927329D01*
X166703020Y-103905151D01*
X166715633Y-103884107D01*
X166730247Y-103864402D01*
X166746723Y-103846223D01*
X166764902Y-103829747D01*
X166784607Y-103815133D01*
X166805651Y-103802520D01*
X166827829Y-103792030D01*
X166850929Y-103783765D01*
X166874727Y-103777804D01*
X166898996Y-103774204D01*
X166923500Y-103773000D01*
X167848500Y-103773000D01*
X167873004Y-103774204D01*
X167873004Y-103774204D01*
G37*
D15*
G04 #@! TD*
G04 #@! TO.P,R8,2*
G04 #@! TO.N,Net-(C5-Pad1)*
X167386000Y-104648000D03*
D24*
G04 #@! TO.P,R9,1*
G04 #@! TO.N,GNDREF*
X162687000Y-111506000D03*
D25*
G04 #@! TO.P,R9,2*
G04 #@! TO.N,Net-(Q1-Pad3)*
X177927000Y-111506000D03*
G04 #@! TD*
D26*
G04 #@! TO.N,GNDREF*
X157480000Y-109220000D03*
X168488501Y-96750999D03*
X190817500Y-100012500D03*
X197548500Y-100012500D03*
X197548500Y-100012500D03*
D27*
X164846000Y-87630000D03*
X164846000Y-78994000D03*
X126746000Y-98425000D03*
D28*
G04 #@! TO.N,Net-(C1-Pad1)*
X136525000Y-101371400D03*
D27*
G04 #@! TO.N,Net-(C2-Pad1)*
X145288000Y-96085000D03*
G04 #@! TO.N,Net-(C3-Pad1)*
X144018000Y-106934000D03*
G04 #@! TO.N,Net-(C5-Pad1)*
X142621000Y-104013000D03*
X152536347Y-106934000D03*
D26*
G04 #@! TO.N,Net-(C6-Pad1)*
X176339500Y-99568000D03*
D27*
X179641500Y-84899500D03*
G04 #@! TO.N,Net-(J3-Pad2)*
X148018500Y-89408000D03*
G04 #@! TO.N,Net-(J4-Pad1)*
X187471560Y-81153000D03*
X177546000Y-79756000D03*
D26*
G04 #@! TO.N,Net-(Q1-Pad1)*
X196215000Y-107569000D03*
D27*
G04 #@! TO.N,Net-(Q1-Pad3)*
X173863000Y-107442000D03*
G04 #@! TO.N,Net-(R1-Pad1)*
X144018000Y-99060000D03*
G04 #@! TO.N,Net-(R7-Pad2)*
X160020000Y-101600000D03*
G04 #@! TD*
D29*
G04 #@! TO.N,GNDREF*
X128578000Y-106988000D02*
X131445000Y-106988000D01*
X128270000Y-106680000D02*
X128578000Y-106988000D01*
X128270000Y-101260000D02*
X128270000Y-106680000D01*
X131445000Y-99060000D02*
X130470000Y-99060000D01*
X130470000Y-99060000D02*
X128270000Y-101260000D01*
X131445000Y-110163000D02*
X131645000Y-110363000D01*
X131445000Y-106988000D02*
X131445000Y-110163000D01*
D30*
X168488501Y-96750999D02*
X168488501Y-96750999D01*
X127384560Y-99060000D02*
X131445000Y-99060000D01*
X126749560Y-98425000D02*
X127384560Y-99060000D01*
X168488501Y-96750999D02*
X168488501Y-96750999D01*
X193802000Y-100012500D02*
X190817500Y-100012500D01*
X193802000Y-100012500D02*
X197548500Y-100012500D01*
D31*
X164846000Y-87630000D02*
X164846000Y-78994000D01*
X167767000Y-78994000D02*
X169037000Y-77724000D01*
X154940000Y-111760000D02*
X157480000Y-109220000D01*
X154740000Y-111760000D02*
X154940000Y-111760000D01*
D29*
G04 #@! TO.N,Net-(C1-Pad1)*
X131445000Y-104013000D02*
X134620000Y-104013000D01*
X134620000Y-102641400D02*
X134620000Y-104013000D01*
X136525000Y-101371400D02*
X135890000Y-101371400D01*
X135890000Y-101371400D02*
X134620000Y-102641400D01*
G04 #@! TO.N,Net-(C2-Pad1)*
X149425000Y-96085000D02*
X149860000Y-96520000D01*
X137795000Y-96085000D02*
X145288000Y-96085000D01*
X137795000Y-96085000D02*
X137795000Y-92710000D01*
G04 #@! TO.N,Net-(C2-Pad2)*
X134620000Y-92910000D02*
X134820000Y-92710000D01*
X134620000Y-96085000D02*
X134620000Y-92910000D01*
G04 #@! TO.N,Net-(C3-Pad1)*
X134620000Y-106988000D02*
X134620000Y-110363000D01*
X134620000Y-106988000D02*
X137795000Y-106988000D01*
X138770000Y-106988000D02*
X138824000Y-106934000D01*
X137795000Y-106988000D02*
X138770000Y-106988000D01*
X138824000Y-106934000D02*
X144018000Y-106934000D01*
X144018000Y-106934000D02*
X144018000Y-106934000D01*
G04 #@! TO.N,Net-(C5-Pad1)*
X137795000Y-104013000D02*
X142621000Y-104013000D01*
X152536347Y-110988653D02*
X152536347Y-106934000D01*
X151765000Y-111760000D02*
X152536347Y-110988653D01*
D32*
X167386000Y-104648000D02*
X167386000Y-108966000D01*
D29*
X167386000Y-108966000D02*
X167386000Y-113855500D01*
X167386000Y-113855500D02*
X166814500Y-114427000D01*
X166814500Y-114427000D02*
X152844500Y-114427000D01*
X151765000Y-113347500D02*
X151765000Y-111760000D01*
X152844500Y-114427000D02*
X151765000Y-113347500D01*
X142621000Y-104013000D02*
X142621000Y-104013000D01*
D30*
G04 #@! TO.N,Net-(C6-Pad1)*
X176339500Y-98044000D02*
X176339500Y-99568000D01*
X179641500Y-94742000D02*
X176339500Y-98044000D01*
X179641500Y-84899500D02*
X179641500Y-94742000D01*
G04 #@! TO.N,Net-(D1-Pad2)*
X188578500Y-88201500D02*
X188451500Y-88328500D01*
D29*
G04 #@! TO.N,Net-(J3-Pad2)*
X132140147Y-89384353D02*
X132865647Y-89384353D01*
X131368800Y-90155700D02*
X132140147Y-89384353D01*
X132865647Y-89384353D02*
X132889294Y-89408000D01*
X132889294Y-89408000D02*
X148018500Y-89408000D01*
X148018500Y-89408000D02*
X148018500Y-89408000D01*
D31*
G04 #@! TO.N,Net-(J4-Pad1)*
X177546000Y-81153000D02*
X187471560Y-81153000D01*
X177546000Y-81153000D02*
X177546000Y-79756000D01*
D32*
G04 #@! TO.N,Net-(Q1-Pad1)*
X171173500Y-101727000D02*
X176761500Y-107315000D01*
X170361000Y-101727000D02*
X171173500Y-101727000D01*
X176761500Y-107315000D02*
X196215000Y-107569000D01*
X176761500Y-107315000D02*
X176761500Y-107315000D01*
G04 #@! TO.N,Net-(Q1-Pad3)*
X171069000Y-104648000D02*
X170361000Y-104648000D01*
X173863000Y-107442000D02*
X171069000Y-104648000D01*
D29*
G04 #@! TO.N,Net-(R1-Pad1)*
X134620000Y-99060000D02*
X137795000Y-99060000D01*
X134420000Y-99060000D02*
X131445000Y-96085000D01*
X134620000Y-99060000D02*
X134420000Y-99060000D01*
X138770000Y-99060000D02*
X144018000Y-99060000D01*
X137795000Y-99060000D02*
X138770000Y-99060000D01*
D32*
X131445000Y-93206900D02*
X131368800Y-93130700D01*
X131445000Y-96085000D02*
X131445000Y-93206900D01*
D29*
G04 #@! TO.N,Net-(R7-Pad2)*
X167259000Y-101600000D02*
X167386000Y-101727000D01*
X160020000Y-101600000D02*
X167259000Y-101600000D01*
G04 #@! TD*
M02*
