M48
;DRILL file {KiCad (5.0.2)-1} date 13.12.2021 13:32:04
;FORMAT={-:-/ absolute / inch / decimal}
FMAT,2
INCH,TZ
T1C0.0157
T2C0.0315
T3C0.0433
T4C0.0472
T5C0.0512
T6C0.0551
T7C0.0591
%
G90
G05
T1
X4.99Y-3.875
X5.375Y-3.991
X5.615Y-4.095
X5.67Y-3.9
X5.67Y-4.21
X5.72Y-3.7829
X5.8275Y-3.52
X6.0054Y-4.21
X6.2Y-4.3
X6.3Y-4.
X6.49Y-3.11
X6.49Y-3.45
X6.6334Y-3.8091
X6.845Y-4.23
X6.9425Y-3.92
X6.99Y-3.14
X7.0725Y-3.3425
X7.3808Y-3.195
X7.5125Y-3.9375
X7.725Y-4.235
X7.7775Y-3.9375
X7.7775Y-3.9375
T2
X5.9Y-3.8
X5.9Y-3.9
X5.9Y-4.
X5.9Y-4.1
X6.2Y-3.8
X6.2Y-3.9
X6.2Y-4.
X6.2Y-4.1
T3
X7.67Y-3.2725
X7.67Y-3.4725
X5.422Y-3.39
X6.3275Y-3.39
X7.525Y-4.34
X7.625Y-4.34
X7.725Y-4.34
T4
X6.6806Y-3.4975
X6.8775Y-3.4975
X7.2375Y-3.8881
X7.2375Y-4.085
T5
X7.2225Y-3.4775
X7.4194Y-3.4775
T6
X6.405Y-4.39
X7.005Y-4.39
T7
X7.93Y-3.7375
X7.93Y-3.9375
X6.07Y-3.0575
X6.27Y-3.0575
X5.515Y-3.0575
X5.715Y-3.0575
X7.2Y-3.0675
X7.4Y-3.0675
X6.655Y-3.06
X6.855Y-3.06
X4.8425Y-3.675
X4.8425Y-3.875
T0
M30
